/* XPM */
static char *_16697206401669720949[] = {
/* columns rows colors chars-per-pixel */
"32 32 2 1 ",
"  c None",
". c white",
/* pixels */
"        ................        ",
"        ................        ",
"        ................        ",
"        ................        ",
"........                ........",
"........                ........",
"........                ........",
"........                ........",
"........                ........",
"........                ........",
"........                ........",
"........                ........",
"........                ........",
"........                ........",
"........                ........",
"........                ........",
"........                ........",
"........                ........",
"........                ........",
"........                ........",
"........                ........",
"........                ........",
"........                ........",
"........                ........",
"........                ........",
"........                ........",
"........                ........",
"........                ........",
"        ................        ",
"        ................        ",
"        ................        ",
"        ................        "
};
