/* XPM */
static char *_b66dbe9c91047ef9177c12fda5c585fJYYiCXTSCncQ6ADf[] = {
/* columns rows colors chars-per-pixel */
"32 32 87 1 ",
"  c None",
". c #3458F7",
"X c #3758F6",
"o c #3759F6",
"O c #375AF7",
"+ c #365BF7",
"@ c #3959F5",
"# c #3858F6",
"$ c #3859F6",
"% c #385AF6",
"& c #395BF6",
"* c #385DF7",
"= c #375DF8",
"- c #365FF8",
"; c #375FF8",
": c #3460F9",
"> c #3763F9",
", c #3663FA",
"< c #3465FB",
"1 c #3666FB",
"2 c #3568FC",
"3 c #366BFC",
"4 c #326FFF",
"5 c #3D6AFA",
"6 c #3F6BFA",
"7 c #3D6CF9",
"8 c #3F6CFA",
"9 c #3270FF",
"0 c #3770FD",
"q c #3672FF",
"w c #3673FF",
"e c #3773FF",
"r c #3774FF",
"t c #3775FF",
"y c #3E70FA",
"u c #3876FF",
"i c #406DFA",
"p c #406EFB",
"a c #406FFB",
"s c #4170FB",
"d c #4272FB",
"f c #4273FB",
"g c #4074FA",
"h c #4277FB",
"j c #4575FA",
"k c #4676FA",
"l c #4375FC",
"z c #4778FB",
"x c #4478FC",
"c c #457BFD",
"v c #477EFC",
"b c #477EFD",
"n c #4780FD",
"m c #4981FD",
"M c #4C80FC",
"N c #4E88FF",
"B c #4E8FFE",
"V c #578CFD",
"C c #578DFD",
"Z c #598EFD",
"A c #5A90FE",
"S c #5C92FE",
"D c #5D94FE",
"F c #5E96FE",
"G c #6396FE",
"H c #6694FD",
"J c #6098FE",
"K c #639AFE",
"L c #649DFF",
"P c #669DFE",
"I c #679DFF",
"U c #659FFF",
"Y c #699FFE",
"T c #66A0FF",
"R c #67A1FF",
"E c #68A0FF",
"W c #6CA2FE",
"Q c #6FA2FE",
"! c #70A6FE",
"~ c #70A7FE",
"^ c #70A9FE",
"/ c #70AAFE",
"( c #74ABFE",
") c #71ADFE",
"_ c #78B1FF",
"` c #7EB5FF",
"' c #7DBDFF",
/* pixels */
"                                ",
"                                ",
"                                ",
"                                ",
"                                ",
"                                ",
"             4999               ",
"           GYETTUUN             ",
"           HW!^^)'`r            ",
"           .><230B_u            ",
"             $;><m(r            ",
"              $*>c!r            ",
"               $;xEu            ",
"                ;fYe            ",
"                OfU0            ",
"                .fK0            ",
"                $fG             ",
"                $aF             ",
"                XaF             ",
"             8  .iS             ",
"             y$ $iA             ",
"             g* .6Z             ",
"             h*.$6V             ",
"             vkkzMV             ",
"                bm              ",
"                                ",
"                                ",
"                                ",
"                                ",
"                                ",
"                                ",
"                                "
};
