/* XPM */
static char *a8194c9813eb4290e0ea2930e6290e7eslVjvW6fFUSaoUxa[] = {
/* columns rows colors chars-per-pixel */
"32 32 142 2 ",
"   c None",
".  c #3757F6",
"X  c #3857F5",
"o  c #375AF7",
"O  c #365BF7",
"+  c #375CF7",
"@  c #3858F6",
"#  c #385AF6",
"$  c #385BF7",
"%  c #385CF7",
"&  c #385DF7",
"*  c #3B5EF6",
"=  c #365DF8",
"-  c #375DF8",
";  c #365EF8",
":  c #375EF8",
">  c #375FF8",
",  c #365FF9",
"<  c #3B63F7",
"1  c #3760F9",
"2  c #3761F9",
"3  c #3762F9",
"4  c #3763FA",
"5  c #3764FA",
"6  c #3765FA",
"7  c #3766FB",
"8  c #3767FB",
"9  c #3C67F8",
"0  c #3568FC",
"q  c #3569FC",
"w  c #356BFD",
"e  c #376BFC",
"r  c #336FFF",
"t  c #356CFD",
"y  c #3968FA",
"u  c #3C6AF9",
"i  c #3D6AFA",
"p  c #3D6CFA",
"a  c #3E6DFB",
"s  c #3E6EFA",
"d  c #3F6FFB",
"f  c #386BFC",
"g  c #396EFD",
"h  c #3671FD",
"j  c #3772FE",
"k  c #3773FF",
"l  c #3873FF",
"z  c #3A74FD",
"x  c #3D77FE",
"c  c #3B78FE",
"v  c #3B78FF",
"b  c #3D79FF",
"n  c #3D7AFE",
"m  c #3C7BFE",
"M  c #3D7BFF",
"N  c #3E7BFE",
"B  c #426DFA",
"V  c #4070FA",
"C  c #4072FB",
"Z  c #4173FB",
"A  c #4274FB",
"S  c #4475FB",
"D  c #407BFE",
"F  c #427BFE",
"G  c #447BFC",
"H  c #417CFE",
"J  c #427DFE",
"K  c #437DFE",
"L  c #477EFC",
"P  c #447FFE",
"I  c #497BFC",
"U  c #4181FE",
"Y  c #4281FF",
"T  c #4382FE",
"R  c #4383FF",
"E  c #4580FD",
"W  c #4781FE",
"Q  c #4284FE",
"!  c #4285FE",
"~  c #4585FF",
"^  c #4586FF",
"/  c #4983FD",
"(  c #4881FE",
")  c #4883FE",
"_  c #4983FE",
"`  c #4984FE",
"'  c #4B86FF",
"]  c #468BFE",
"[  c #478DFE",
"{  c #4D88FE",
"}  c #4D88FF",
"|  c #5288FE",
" . c #508BFF",
".. c #558EFE",
"X. c #568EFE",
"o. c #598FFE",
"O. c #5A91FE",
"+. c #5B91FE",
"@. c #5992FF",
"#. c #5893FF",
"$. c #5993FF",
"%. c #5C90FC",
"&. c #5D92FE",
"*. c #5D93FE",
"=. c #5994FE",
"-. c #5A94FF",
";. c #5B96FF",
":. c #5D94FE",
">. c #5E94FE",
",. c #5F95FE",
"<. c #5C96FF",
"1. c #5D97FF",
"2. c #549DFE",
"3. c #5F98FE",
"4. c #6098FE",
"5. c #649AFE",
"6. c #649BFE",
"7. c #619CFE",
"8. c #619DFF",
"9. c #679EFE",
"0. c #689FFE",
"q. c #57A5FE",
"w. c #59A7FE",
"e. c #65A1FE",
"r. c #61A5FE",
"t. c #68A5FE",
"y. c #6DABFE",
"u. c #6CADFE",
"i. c #79B5FE",
"p. c #79B6FF",
"a. c #7CB4FF",
"s. c #7EB6FF",
"d. c #7FBCFF",
"f. c #7FBEFF",
"g. c #81B9FF",
"h. c #8EC4FF",
"j. c #89CAFF",
"k. c #8EC8FF",
"l. c #8EC9FF",
"z. c #88CCFF",
"x. c #91CBFF",
"c. c #9BD0FF",
/* pixels */
"                                                                ",
"                                                                ",
"                                                                ",
"                                                                ",
"                                                                ",
"                                                                ",
"                                                                ",
"                      v  .;.3.1.;.@..._ k                       ",
"                    } a.i.y.t.e.8.1.5.0.9.K                     ",
"                  b a.r.! m c h e 0 0 e | 6.                    ",
"                  } g.[ M M Y } t 8 3 5 e 5.F                   ",
"                  #.f.[ Y ! u.g.l 5 3 3 5 1.K                   ",
"                  ;.j.w.2.w.z.p.z 3 + 3 5 1.F                   ",
"                  ' h.l.h.x.c.8.t 3 + + 3 >.F                   ",
"                    M ! ^ ^ Y l 5 % % : y >.x                   ",
"                                & # o : I @.                    ",
"                                # # : d >.F                     ",
"                                  + d @._                       ",
"                                o d o.L                         ",
"                                y ..L r                         ",
"                              # o.;._ _ _ L                     ",
"                                B S A z C _                     ",
"                                X o : : : G                     ",
"                            % < 9 u u d C L                     ",
"                                                                ",
"                                                                ",
"                                                                ",
"                                                                ",
"                                                                ",
"                                                                ",
"                                                                ",
"                                                                "
};
