/* XPM */
static char *_740a79210d045e5ee99436b05d42d5fFUf7E2SaIwBewqUQ[] = {
/* columns rows colors chars-per-pixel */
"32 32 150 2 ",
"   c None",
".  c #3757F6",
"X  c #3857F5",
"o  c #3658F6",
"O  c #3959F5",
"+  c #395AF5",
"@  c #3858F6",
"#  c #3859F6",
"$  c #385AF6",
"%  c #395AF6",
"&  c #385BF7",
"*  c #395CF6",
"=  c #385DF7",
"-  c #375DF8",
";  c #375EF8",
":  c #375FF8",
">  c #3D63F7",
",  c #3760F8",
"<  c #3761F9",
"1  c #3762F9",
"2  c #3763F9",
"3  c #3763FA",
"4  c #3765FA",
"5  c #3667FB",
"6  c #3767FB",
"7  c #3860F8",
"8  c #3861F9",
"9  c #3862F8",
"0  c #3862F9",
"q  c #3963F9",
"w  c #3A62F8",
"e  c #3965F9",
"r  c #3967FA",
"t  c #3569FC",
"y  c #3669FC",
"u  c #356AFC",
"i  c #356FFD",
"p  c #376FFC",
"a  c #366EFD",
"s  c #3868FB",
"d  c #3869FB",
"f  c #386AFB",
"g  c #3B6BFA",
"h  c #3E6BF8",
"j  c #3B6CFA",
"k  c #3E6DF9",
"l  c #3C6EFB",
"z  c #3C6FFB",
"x  c #386DFC",
"c  c #386EFD",
"v  c #3A6EFC",
"b  c #3270FF",
"n  c #3573FF",
"m  c #3773FF",
"M  c #3872FD",
"N  c #3874FE",
"B  c #3874FF",
"V  c #3A77FE",
"C  c #3979FF",
"Z  c #3A7AFF",
"A  c #3E78FE",
"S  c #3F79FE",
"D  c #3E79FF",
"F  c #3C7BFE",
"G  c #3D7AFF",
"H  c #3F7DFE",
"J  c #3F7EFE",
"K  c #3E7FFE",
"L  c #406FF9",
"P  c #4573FA",
"I  c #4675FA",
"U  c #4776FA",
"Y  c #4677FA",
"T  c #4174FC",
"R  c #4579FB",
"E  c #477DFB",
"W  c #407BFE",
"Q  c #417BFE",
"!  c #407CFF",
"~  c #467DFD",
"^  c #477EFD",
"/  c #4878FB",
"(  c #497AFB",
")  c #4B7CFB",
"_  c #4386FE",
"`  c #4585FE",
"'  c #4487FE",
"]  c #4883FF",
"[  c #4983FF",
"{  c #448BFE",
"}  c #468DFE",
"|  c #4D89FE",
" . c #5185FC",
".. c #5588FD",
"X. c #548AFD",
"o. c #548BFD",
"O. c #518CFE",
"+. c #508DFE",
"@. c #518CFF",
"#. c #528DFF",
"$. c #578CFD",
"%. c #568EFE",
"&. c #568FFF",
"*. c #588BFD",
"=. c #598DFD",
"-. c #5A8EFD",
";. c #4892FE",
":. c #5691FF",
">. c #5991FE",
",. c #5C92FE",
"<. c #5A94FF",
"1. c #5C96FF",
"2. c #5E97FF",
"3. c #5D98FF",
"4. c #5E98FF",
"5. c #5F99FF",
"6. c #6198FE",
"7. c #6298FE",
"8. c #6299FE",
"9. c #619BFE",
"0. c #639AFE",
"q. c #639BFE",
"w. c #6599FD",
"e. c #659CFE",
"r. c #649FFE",
"t. c #679EFE",
"y. c #60A5FE",
"u. c #67A5FE",
"i. c #69A0FE",
"p. c #6BA2FE",
"a. c #66AEFE",
"s. c #6BA9FE",
"d. c #6FAEFE",
"f. c #72AFFF",
"g. c #69B5FF",
"h. c #69B6FF",
"j. c #72B3FE",
"k. c #7AB7FF",
"l. c #7DB6FF",
"z. c #7FB7FF",
"x. c #7FBDFF",
"c. c #7EC0FF",
"v. c #80B6FF",
"b. c #82BAFF",
"n. c #88BEFF",
"m. c #86C0FF",
"M. c #86C1FF",
"N. c #89C2FF",
"B. c #90CFFF",
"V. c #96D4FF",
/* pixels */
"                                                                ",
"                                                                ",
"                                                                ",
"                                                                ",
"                                                                ",
"                                                                ",
"                            b b                                 ",
"                      F @.4.4.4.2.<.&.] n                       ",
"                    @.z.k.d.s.u.y.9.w.i.i.W                     ",
"                  ! b.y._ K F M u u y x &.e.                    ",
"                  :.x.} K K ` | v s 5 q v t.W                   ",
"                  4.c.;._ ' j.z.M 5 < 5 s w.W                   ",
"                  2.B.h.a.h.V.j.u < < < s 0.W                   ",
"                  ] v.m.m.N.n.@.y < = < s 7.F                   ",
"                    n C C C x 5 - & & - T 0.B                   ",
"                          y 7 &     X q w.@.                    ",
"                                      - $.=.                    ",
"                                      & r ,.                    ",
"                      l l l g           q =.F                   ",
"                    L & O & q           : =.                    ",
"                    g       & r q       q $.                    ",
"                    L                 & q $.                    ",
"                    R >           . o - / X.                    ",
"                      ) U P P U U / )  .$.                      ",
"                                ~ ^                             ",
"                                                                ",
"                                                                ",
"                                                                ",
"                                                                ",
"                                                                ",
"                                                                ",
"                                                                "
};
