/* XPM */
static char *f4b5cc88c80c4490d1798eb58d6317e8PGVZQhTKulcce3fu[] = {
/* columns rows colors chars-per-pixel */
"32 32 136 2 ",
"   c None",
".  c #3757F6",
"X  c #3857F6",
"o  c #3658F6",
"O  c #3759F7",
"+  c #375AF6",
"@  c #375AF7",
"#  c #3858F6",
"$  c #385AF6",
"%  c #385BF6",
"&  c #385AF7",
"*  c #385CF7",
"=  c #385DF7",
"-  c #395DF7",
";  c #3A5DF6",
":  c #365DF8",
">  c #365EF8",
",  c #375EF8",
"<  c #375FF8",
"1  c #385DF8",
"2  c #3A61F7",
"3  c #3760F9",
"4  c #3661F9",
"5  c #3761F9",
"6  c #3762F9",
"7  c #3562FA",
"8  c #3563FA",
"9  c #3662FA",
"0  c #3365FB",
"q  c #3564FA",
"w  c #3764FA",
"e  c #3767FB",
"r  c #3960F8",
"t  c #3863F9",
"y  c #3A64F9",
"u  c #3865FA",
"i  c #3965FA",
"p  c #3966FA",
"a  c #3C67F8",
"s  c #3C66F9",
"d  c #3769FC",
"f  c #376AFC",
"g  c #376EFD",
"h  c #3C69F9",
"j  c #3E6AF9",
"k  c #3270FF",
"l  c #3370FF",
"z  c #3472FF",
"x  c #3572FF",
"c  c #3D70FA",
"v  c #3F71FA",
"b  c #3870FD",
"n  c #3874FF",
"m  c #3B76FE",
"M  c #3C79FF",
"N  c #3D79FF",
"B  c #397CFF",
"V  c #3D7CFE",
"C  c #3E7DFE",
"Z  c #3E7CFF",
"A  c #4171FA",
"S  c #4372FA",
"D  c #4474FA",
"F  c #4574FB",
"G  c #4675FB",
"H  c #4776FB",
"J  c #4072FC",
"K  c #4377FD",
"L  c #4278FB",
"P  c #457BFB",
"I  c #467EFC",
"U  c #477EFD",
"Y  c #4783FF",
"T  c #4A82FD",
"R  c #4981FE",
"E  c #4E84FC",
"W  c #4F87FE",
"Q  c #448AFE",
"!  c #458EFE",
"~  c #4F8FFE",
"^  c #4E8FFF",
"/  c #5082FC",
"(  c #5083FC",
")  c #5085FD",
"_  c #5087FD",
"`  c #5187FD",
"'  c #5288FD",
"]  c #5189FE",
"[  c #538AFE",
"{  c #528BFE",
"}  c #548BFD",
"|  c #508DFF",
" . c #538CFE",
".. c #568CFD",
"X. c #568EFD",
"o. c #558DFE",
"O. c #568FFF",
"+. c #588EFD",
"@. c #598EFD",
"#. c #4994FE",
"$. c #5291FF",
"%. c #5695FF",
"&. c #5890FE",
"*. c #5C94FE",
"=. c #5C95FE",
"-. c #5D95FE",
";. c #5E94FE",
":. c #5E97FE",
">. c #5998FF",
",. c #5D98FF",
"<. c #5F98FE",
"1. c #619BFF",
"2. c #619DFF",
"3. c #639DFE",
"4. c #639EFF",
"5. c #639FFF",
"6. c #6AA0FF",
"7. c #6FA2FE",
"8. c #6EAEFE",
"9. c #68B0FF",
"0. c #71B1FE",
"q. c #73B2FF",
"w. c #74B3FF",
"e. c #74B6FE",
"r. c #78B3FF",
"t. c #76BAFF",
"y. c #77BDFF",
"u. c #7BBBFF",
"i. c #80BCFF",
"p. c #87C2FF",
"a. c #85C6FF",
"s. c #8FCDFF",
"d. c #94CFFF",
"f. c #97D4FF",
"g. c #9BD2FF",
"h. c #9ED7FF",
/* pixels */
"                                                                ",
"                                                                ",
"                                                                ",
"                                                                ",
"                                                                ",
"                                                                ",
"                                                                ",
"                                                                ",
"                              E F A A P I                       ",
"                            ` j O . r L                         ",
"                          [ F &   & v                           ",
"                        R / 1     a                             ",
"                        ..s X   - v                             ",
"                      @.F O     j                               ",
"                    [ / :     2                                 ",
"                  R @.i &   - i                                 ",
"                  *.K : & & i           O                       ",
"                [ [ 7 : - w i         O F 7.6.M                 ",
"                [ E 4 4 < 4 4 : - & - 4 K 8.g.|                 ",
"                [ [ 0 0 w 4 w 4 4 4 w e g #.d.%.                ",
"                | 2.` ` [ [ ..@.I f f g ~ y.h.$.                ",
"                  :.*.:.:.,.2.e.r.m g C u.f.0.C                 ",
"                        z g z #.u.Q C ! a.8.B z                 ",
"                            z Y p.e.0.t.f.>.k                   ",
"                              m &.2.,.6.,.M                     ",
"                                  k k k                         ",
"                                                                ",
"                                                                ",
"                                                                ",
"                                                                ",
"                                                                ",
"                                                                "
};
