/* XPM */
static char *c0401f3e87dc4840d14ec14c215dee36c4SQ2GREhT1KaWrF[] = {
/* columns rows colors chars-per-pixel */
"32 32 157 2 ",
"   c None",
".  c #3757F5",
"X  c #3758F6",
"o  c #365BF7",
"O  c #375BF7",
"+  c #375CF7",
"@  c #3859F6",
"#  c #385AF6",
"$  c #385DF7",
"%  c #3A5EF6",
"&  c #375CF8",
"*  c #365DF8",
"=  c #375DF8",
"-  c #365EF8",
";  c #375EF8",
":  c #365FF8",
">  c #375FF8",
",  c #385DF8",
"<  c #3B60F7",
"1  c #3C64F7",
"2  c #3760F8",
"3  c #3660F9",
"4  c #3760F9",
"5  c #3661F9",
"6  c #3762F9",
"7  c #3562FA",
"8  c #3563FA",
"9  c #3763FA",
"0  c #3564FB",
"q  c #3665FA",
"w  c #3765FA",
"e  c #3665FB",
"r  c #3567FB",
"t  c #3767FA",
"y  c #3767FB",
"u  c #3668FB",
"i  c #3469FC",
"p  c #3669FC",
"a  c #356AFC",
"s  c #356BFD",
"d  c #376AFC",
"f  c #366BFC",
"g  c #376BFC",
"h  c #356CFD",
"j  c #376CFD",
"k  c #366DFD",
"l  c #366EFD",
"z  c #3E6BF9",
"x  c #386CFC",
"c  c #386FFD",
"v  c #3770FD",
"b  c #3670FE",
"n  c #3672FE",
"m  c #3774FE",
"M  c #3870FD",
"N  c #3B70FC",
"B  c #3874FE",
"V  c #3874FF",
"C  c #3A74FE",
"Z  c #3A76FE",
"A  c #3A77FE",
"S  c #3B77FE",
"D  c #3D74FD",
"F  c #3B78FE",
"G  c #3B78FF",
"H  c #3D79FF",
"J  c #3D7DFF",
"K  c #4273FA",
"L  c #4374FA",
"P  c #4276FA",
"I  c #4476FB",
"U  c #4277FD",
"Y  c #4479FB",
"T  c #4678FB",
"R  c #477AFB",
"E  c #427AFD",
"W  c #4579FD",
"Q  c #4678FC",
"!  c #427EFE",
"~  c #477EFD",
"^  c #477FFD",
"/  c #447EFE",
"(  c #497BFB",
")  c #4A7DFB",
"_  c #4B7EFC",
"`  c #4081FE",
"'  c #4381FF",
"]  c #4282FE",
"[  c #4384FE",
"{  c #4880FD",
"}  c #4880FE",
"|  c #4A81FE",
" . c #4983FE",
".. c #4882FF",
"X. c #4C80FC",
"o. c #4E81FC",
"O. c #4F82FC",
"+. c #4C85FE",
"@. c #4F87FE",
"#. c #498AFE",
"$. c #4C8BFE",
"%. c #498EFE",
"&. c #5383FC",
"*. c #5388FD",
"=. c #5088FE",
"-. c #5089FE",
";. c #508AFE",
":. c #518AFE",
">. c #518BFF",
",. c #528DFF",
"<. c #578CFD",
"1. c #598EFE",
"2. c #4990FE",
"3. c #4F94FE",
"4. c #5293FF",
"5. c #5791FF",
"6. c #5B90FE",
"7. c #5B91FE",
"8. c #5893FF",
"9. c #5C92FE",
"0. c #5D93FE",
"q. c #5A95FF",
"w. c #5B95FF",
"e. c #5C94FE",
"r. c #5898FF",
"t. c #599DFF",
"y. c #5B9CFE",
"u. c #5F9EFF",
"i. c #6098FE",
"p. c #669FFE",
"a. c #679FFE",
"s. c #59A1FF",
"d. c #61A1FE",
"f. c #67A1FE",
"g. c #69A1FE",
"h. c #69A3FE",
"j. c #6BA4FE",
"k. c #6BA6FE",
"l. c #6DA4FE",
"z. c #6FA7FE",
"x. c #6FAAFE",
"c. c #6FAFFF",
"v. c #71A9FE",
"b. c #74ADFF",
"n. c #7AADFE",
"m. c #70B0FE",
"M. c #74B2FF",
"N. c #7BB3FF",
"B. c #7AB6FF",
"V. c #7BB6FF",
"C. c #7EC4FF",
"Z. c #83B9FE",
"A. c #88C1FF",
"S. c #89C4FF",
"D. c #8BC7FF",
"F. c #8FCBFF",
"G. c #94CDFF",
/* pixels */
"                                                                ",
"                                                                ",
"                                                                ",
"                                                                ",
"                                                                ",
"                                                                ",
"                                                                ",
"                                                                ",
"                      P z 1 < $                                 ",
"                    Y <                                         ",
"                    K .   # X + #                               ",
"                    P X # 7 &.W r , #                           ",
"                    I $ * r n.u.b d r 2 *                       ",
"                    I & * d Z.C.s.4.$.! b h                     ",
"                    ( * 2 u f.G.F.D.S.A.b.'                     ",
"                    ( * 2 w c [ 2.2.%.4.m.N.H                   ",
"                    ) * $ 7 c ! #.' F B ` V.,.                  ",
"                  / _ * , 7 _ r.c.d.F h m x.w.                  ",
"                  _ O.* $ 7 E J t.M.F h b z.w.                  ",
"                  } O.* $ 2 D B r.V.F h b h.5.                  ",
"                   .O.* , 2 w h f.z.M g h h.5.                  ",
"                    :.7 2 , w w U D g g h h.:.                  ",
"                    9.Q r 7 0 d u u h M :.v.H                   ",
"                      9.1.<.<.1.7.w.e.h.z. .                    ",
"                        / +.&.$.:.:.$. .B                       ",
"                                                                ",
"                                                                ",
"                                                                ",
"                                                                ",
"                                                                ",
"                                                                ",
"                                                                "
};
