/* XPM */
static char *result[] = {
/* columns rows colors chars-per-pixel */
"32 32 158 2 ",
"   c #3757F6",
".  c #3658F6",
"X  c #365AF7",
"o  c #375AF7",
"O  c #365BF7",
"+  c #375BF7",
"@  c #3858F6",
"#  c #3859F6",
"$  c #385AF7",
"%  c #385BF7",
"&  c #3A5DF6",
"*  c #375DF8",
"=  c #365EF8",
"-  c #375EF8",
";  c #365FF9",
":  c #3B60F6",
">  c #3C61F7",
",  c #3662F9",
"<  c #3564FB",
"1  c #3565FB",
"2  c #3664FA",
"3  c #3665FB",
"4  c #3566FB",
"5  c #3767FB",
"6  c #3861F9",
"7  c #3A65F9",
"8  c #3864FA",
"9  c #3768FB",
"0  c #3568FC",
"q  c #3569FC",
"w  c #3668FC",
"e  c #3769FC",
"r  c #356AFC",
"t  c #356BFC",
"y  c #376AFC",
"u  c #376BFC",
"i  c #376BFD",
"p  c #366CFD",
"a  c #376CFD",
"s  c #366DFD",
"d  c #376EFD",
"f  c #366FFD",
"g  c #376FFD",
"h  c #356FFE",
"j  c #3A6BFA",
"k  c #3E69F8",
"l  c #3E68F9",
"z  c #3D6AF8",
"x  c #3B6FFB",
"c  c #3F6CF9",
"v  c #3A6FFD",
"b  c #3370FF",
"n  c #3770FD",
"m  c #3471FF",
"M  c #3670FE",
"N  c #3671FE",
"B  c #3472FF",
"V  c #3673FE",
"C  c #3E70FA",
"Z  c #3870FD",
"A  c #3972FD",
"S  c #3973FD",
"D  c #3B73FD",
"F  c #3D72FD",
"G  c #3974FD",
"H  c #3A75FD",
"J  c #3B77FD",
"K  c #3B76FE",
"L  c #3A77FE",
"P  c #3C79FE",
"I  c #3C7AFE",
"U  c #3B7CFF",
"Y  c #3F7DFF",
"T  c #3E7EFE",
"R  c #3F7FFF",
"E  c #416EF9",
"W  c #4076FB",
"Q  c #4474FA",
"!  c #4676FB",
"~  c #4777FB",
"^  c #4176FD",
"/  c #4377FC",
"(  c #4279FC",
")  c #4679FC",
"_  c #477BFD",
"`  c #417FFF",
"'  c #467CFD",
"]  c #467EFD",
"[  c #487CFB",
"{  c #4A7CFB",
"}  c #4A7DFC",
"|  c #487EFC",
" . c #4B7FFC",
".. c #4780FE",
"X. c #4586FE",
"o. c #4880FD",
"O. c #4B80FC",
"+. c #4B81FC",
"@. c #4982FE",
"#. c #4D80FC",
"$. c #4C82FD",
"%. c #4A84FE",
"&. c #4B85FE",
"*. c #4F85FC",
"=. c #4E84FD",
"-. c #4C86FE",
";. c #4D86FE",
":. c #4A89FF",
">. c #4E88FE",
",. c #4F89FE",
"<. c #4E89FF",
"1. c #4F8EFF",
"2. c #4F8FFF",
"3. c #5187FD",
"4. c #508AFF",
"5. c #518DFE",
"6. c #518CFF",
"7. c #518FFF",
"8. c #5491FF",
"9. c #5793FF",
"0. c #5891FF",
"q. c #5A90FE",
"w. c #5895FF",
"e. c #5996FE",
"r. c #5E95FE",
"t. c #5F96FE",
"y. c #5C99FF",
"u. c #5D99FF",
"i. c #6198FE",
"p. c #6199FE",
"a. c #6298FE",
"s. c #6498FF",
"d. c #619CFE",
"f. c #639EFE",
"g. c #629EFF",
"h. c #659CFE",
"j. c #659EFE",
"k. c #61A3FE",
"l. c #65A2FF",
"z. c #69A1FE",
"x. c #6EA2FE",
"c. c #6EA9FE",
"v. c #6FAAFE",
"b. c #74AAFE",
"n. c #71ADFE",
"m. c #74B0FF",
"M. c #76B2FF",
"N. c #79B3FF",
"B. c #78B4FF",
"V. c #7CB6FF",
"C. c #7DBAFF",
"Z. c #7DBCFF",
"A. c #80BBFF",
"S. c #83BAFF",
"D. c #81BDFF",
"F. c #89BEFF",
"G. c #88BFFF",
"H. c None",
/* pixels */
"H.H.H.H.H.H.H.H.H.H.H.H.H.H.H.H.H.H.H.H.H.H.H.H.H.H.H.H.H.H.H.H.",
"H.H.H.H.H.H.H.H.H.H.H.H.H.H.H.H.H.H.H.H.H.H.H.H.H.H.H.H.H.H.H.H.",
"H.H.H.H.H.H.H.H.H.H.H.H.H.H.H.H.H.H.H.H.H.H.H.H.H.H.H.H.H.H.H.H.",
"H.H.H.H.H.H.H.H.H.H.H.H.H.H.H.H.H.H.H.H.H.H.H.H.H.H.H.H.H.H.H.H.",
"H.H.H.H.H.H.H.H.H.H.H.H.H.H.H.H.H.H.H.H.H.H.H.H.H.H.H.H.H.H.H.H.",
"H.H.H.H.H.H.H.H.H.H.H.H.H.H.H.H.H.H.H.H.H.H.H.H.H.H.H.H.H.H.H.H.",
"H.H.H.H.H.H.H.H.H.H.H.H.H.H.H.H.H.H.H.H.H.H.H.H.H.H.H.H.H.H.H.H.",
"H.H.H.H.H.H.H.H.H.H.H.H.H.H.H.H.H._ s.0.Y m H.H.H.H.H.H.H.H.H.H.",
"H.H.H.H.H.H.H.H.H.H.H.H.H.H.H.H.X ! x.S.F.8.B H.H.H.H.H.H.H.H.H.",
"H.H.H.H.H.H.H.H.H.H.H.H.H.H.H.. ; 3 t I k.G.` H.H.H.H.H.H.H.H.H.",
"H.H.H.H.H.H.H.H.H.H.H.H.H.H.> ~  .F u a T A.9.H.H.H.H.H.H.H.H.H.",
"H.H.H.H.H.H.H.H.H.H.H.H.H.H.[ >.g.f.g a L B.u.b H.H.H.H.H.H.H.H.",
"H.H.H.H.H.H.H.H.H.H.H.H.H.H.W N 1.m.H s L M.y.b H.H.H.H.H.H.H.H.",
"H.H.H.H.H.H.H.H.H.H.H.H.H.H.j h 8.V.J s P B.w.b H.H.H.H.H.H.H.H.",
"H.H.H.H.H.H.H.H.H.H.H.H.H.H.6 0 a.z.n d X.D.:.H.H.H.H.H.H.H.H.H.",
"H.H.H.H.H.H.H.H.H.H.H.: H.H.* 2 v Z a f c.Z.U H.H.H.H.H.H.H.H.H.",
"H.H.H.H.H.H.H.H.H.H.C & H.@ 7 / ] D a s e.C.R H.H.H.H.H.H.H.H.H.",
"H.H.H.H.H.H.H.H.H.H.z H.H.o | 5.l.d.d i G v.<.H.H.H.H.H.H.H.H.H.",
"H.H.H.H.H.H.H.H.H.H.k H.H.% ( V 2.n.A y p j.6.H.H.H.H.H.H.H.H.H.",
"H.H.H.H.H.H.H.H.H.H.c H.H.$ x M 7.N.S e r p.4.H.H.H.H.H.H.H.H.H.",
"H.H.H.H.H.H.H.H.H.H.E H.H.# 8 r i.b.d 9 q r.,.H.H.H.H.H.H.H.H.H.",
"H.H.H.H.H.H.H.H.H.H.Q   H.# - 2 ) ^ 9 5 q t.&.H.H.H.H.H.H.H.H.H.",
"H.H.H.H.H.H.H.H.H.H.+.l + O = , < 1 4 w ' h.K H.H.H.H.H.H.H.H.H.",
"H.H.H.H.H.H.H.H.H.H.H.*.#.{ } O.$.=.3.q.i...H.H.H.H.H.H.H.H.H.H.",
"H.H.H.H.H.H.H.H.H.H.H.H.H.o.@.%.&.-.;...H.H.H.H.H.H.H.H.H.H.H.H.",
"H.H.H.H.H.H.H.H.H.H.H.H.H.H.H.H.H.H.H.H.H.H.H.H.H.H.H.H.H.H.H.H.",
"H.H.H.H.H.H.H.H.H.H.H.H.H.H.H.H.H.H.H.H.H.H.H.H.H.H.H.H.H.H.H.H.",
"H.H.H.H.H.H.H.H.H.H.H.H.H.H.H.H.H.H.H.H.H.H.H.H.H.H.H.H.H.H.H.H.",
"H.H.H.H.H.H.H.H.H.H.H.H.H.H.H.H.H.H.H.H.H.H.H.H.H.H.H.H.H.H.H.H.",
"H.H.H.H.H.H.H.H.H.H.H.H.H.H.H.H.H.H.H.H.H.H.H.H.H.H.H.H.H.H.H.H.",
"H.H.H.H.H.H.H.H.H.H.H.H.H.H.H.H.H.H.H.H.H.H.H.H.H.H.H.H.H.H.H.H.",
"H.H.H.H.H.H.H.H.H.H.H.H.H.H.H.H.H.H.H.H.H.H.H.H.H.H.H.H.H.H.H.H."
};
