/* XPM */
static char *_16697206411669720950[] = {
/* columns rows colors chars-per-pixel */
"32 32 2 1 ",
"  c None",
". c white",
/* pixels */
"        ................        ",
"        ................        ",
"        ................        ",
"        ................        ",
"........                ........",
"........                ........",
"........                ........",
"........                ........",
"........                ........",
"........                ........",
"........                ........",
"........                ........",
"........                ........",
"........                ........",
"........                ........",
"        ................        ",
"        ................        ",
"........                ........",
"........                ........",
"........                ........",
"........                ........",
"........                ........",
"........                ........",
"........                ........",
"........                ........",
"........                ........",
"........                ........",
"........                ........",
"        ................        ",
"        ................        ",
"        ................        ",
"        ................        "
};
