/* XPM */
static char *result[] = {
/* columns rows colors chars-per-pixel */
"32 32 161 2 ",
"   c #3857F5",
".  c #3758F6",
"X  c #3759F6",
"o  c #365AF7",
"O  c #365BF7",
"+  c #375CF7",
"@  c #3858F6",
"#  c #3859F6",
"$  c #385AF6",
"%  c #385BF7",
"&  c #385CF7",
"*  c #385DF7",
"=  c #365DF8",
"-  c #345FF9",
";  c #375EF8",
":  c #365FF8",
">  c #375FF8",
",  c #385FF8",
"<  c #395FF8",
"1  c #3760F8",
"2  c #3660F9",
"3  c #3661F9",
"4  c #3762F9",
"5  c #3461FA",
"6  c #3663FA",
"7  c #3763FA",
"8  c #3764FA",
"9  c #3765FA",
"0  c #3566FB",
"q  c #3767FA",
"w  c #3666FB",
"e  c #3766FB",
"r  c #3860F8",
"t  c #3960F8",
"y  c #3961F8",
"u  c #3A66F9",
"i  c #3D67F9",
"p  c #3768FB",
"a  c #3568FC",
"s  c #3668FC",
"d  c #3669FC",
"f  c #3769FC",
"g  c #356AFC",
"h  c #366AFC",
"j  c #376AFC",
"k  c #376BFC",
"l  c #326FFE",
"z  c #376CFC",
"x  c #376CFD",
"c  c #346EFE",
"v  c #386AFB",
"b  c #3A6BFB",
"n  c #3B6FFB",
"m  c #3D6EFA",
"M  c #3E6FFA",
"N  c #386DFC",
"B  c #386FFD",
"V  c #3370FF",
"C  c #3471FF",
"Z  c #3673FF",
"A  c #3774FF",
"S  c #3F70FA",
"D  c #3E73FB",
"F  c #3B71FC",
"G  c #3872FD",
"H  c #3873FD",
"J  c #3B72FD",
"K  c #3C74FD",
"L  c #3C77FD",
"P  c #3D7AFD",
"I  c #3D7AFE",
"U  c #4370FA",
"Y  c #4172FA",
"T  c #4475FA",
"R  c #4676FB",
"E  c #4777FB",
"W  c #4376FC",
"Q  c #4379FB",
"!  c #4778FB",
"~  c #407AFE",
"^  c #427BFE",
"/  c #407DFF",
"(  c #437DFE",
")  c #407EFE",
"_  c #437EFF",
"`  c #447CFD",
"'  c #447EFF",
"]  c #457FFF",
"[  c #477FFE",
"{  c #487AFB",
"}  c #497BFB",
"|  c #4A7CFB",
" . c #4F7CFB",
".. c #487AFC",
"X. c #4B7CFC",
"o. c #4D7FFC",
"O. c #4580FF",
"+. c #4681FF",
"@. c #4682FF",
"#. c #4782FF",
"$. c #4880FD",
"%. c #4A80FC",
"&. c #4A81FD",
"*. c #4A83FD",
"=. c #4D83FC",
"-. c #4A85FF",
";. c #4C84FE",
":. c #4D85FE",
">. c #4E85FE",
",. c #4E87FF",
"<. c #4D89FF",
"1. c #4E88FE",
"2. c #558AFD",
"3. c #508EFE",
"4. c #5F8EFD",
"5. c #5690FE",
"6. c #5691FF",
"7. c #5693FF",
"8. c #5893FF",
"9. c #5D91FD",
"0. c #5F93FD",
"q. c #5C92FE",
"w. c #5D92FE",
"e. c #5C93FE",
"r. c #5B94FE",
"t. c #5E97FF",
"y. c #5798FE",
"u. c #5E98FF",
"i. c #5F9AFF",
"p. c #6094FE",
"a. c #6296FE",
"s. c #609BFF",
"d. c #6499FE",
"f. c #649AFE",
"g. c #659BFE",
"h. c #609CFF",
"j. c #619DFF",
"k. c #629EFE",
"l. c #679EFE",
"z. c #689CFE",
"x. c #6C9DFE",
"c. c #67A0FF",
"v. c #69A0FE",
"b. c #6BA1FE",
"n. c #6BA3FE",
"m. c #6EA6FE",
"M. c #70A7FF",
"N. c #73AAFF",
"B. c #73AEFE",
"V. c #74ACFE",
"C. c #74AFFE",
"Z. c #74B0FF",
"A. c #76B1FF",
"S. c #77B2FF",
"D. c #79B5FF",
"F. c #7BB4FE",
"G. c #7AB5FF",
"H. c #83BDFF",
"J. c #8ABFFF",
"K. c #8BBFFF",
"L. c None",
/* pixels */
"L.L.L.L.L.L.L.L.L.L.L.L.L.L.L.L.L.L.L.L.L.L.L.L.L.L.L.L.L.L.L.L.",
"L.L.L.L.L.L.L.L.L.L.L.L.L.L.L.L.L.L.L.L.L.L.L.L.L.L.L.L.L.L.L.L.",
"L.L.L.L.L.L.L.L.L.L.L.L.L.L.L.L.L.L.L.L.L.L.L.L.L.L.L.L.L.L.L.L.",
"L.L.L.L.L.L.L.L.L.L.L.L.L.L.L.L.L.L.L.L.L.L.L.L.L.L.L.L.L.L.L.L.",
"L.L.L.L.L.L.L.L.L.L.L.L.L.L.L.L.L.L.L.L.L.L.L.L.L.L.L.L.L.L.L.L.",
"L.L.L.L.L.L.L.L.L.L.L.L.L.L.L.L.L.L.L.L.L.L.L.L.L.L.L.L.L.L.L.L.",
"L.L.L.L.L.L.L.L.L.L.L.L.L.V V V V V L.L.L.L.L.L.L.L.L.L.L.L.L.L.",
"L.L.L.L.L.L.L.L.L.L.C / 6.s.j.h.i.u.8.-.A L.L.L.L.L.L.L.L.L.L.L.",
"L.L.L.L.L.L.L.L.L.L.t.J.H.G.S.A.Z.B.C.F.N._ L.L.L.L.L.L.L.L.L.L.",
"L.L.L.L.L.L.L.L.L.,.K.y.P H G H H H G I k.M.Z L.L.L.L.L.L.L.L.L.",
"L.L.L.L.L.L.L.L.L.x.b.g e e k J K x j h L V._ L.L.L.L.L.L.L.L.L.",
"L.L.L.L.L.L.L.L.L.X.U : > 4 F ) 3.` d f B m.#.L.L.L.L.L.L.L.L.L.",
"L.L.L.L.L.L.L.L.L.L.L.L.# ; v c <.1.s p N n.@.L.L.L.L.L.L.L.L.L.",
"L.L.L.L.L.L.L.L.L.L.L.L.L.& w l 7.5.a e z v.+.L.L.L.L.L.L.L.L.L.",
"L.L.L.L.L.L.L.L.L.L.L.L.L.+ 4.c.D.r.0 9 j l.O.L.L.L.L.L.L.L.L.L.",
"L.L.L.L.L.L.L.L.L.L.L.L.L..  .z.f.W 6 4 p g.O.L.L.L.L.L.L.L.L.L.",
"L.L.L.L.L.L.L.L.L.L.L.L.L.L.O - 5 2 > 1 e d.] L.L.L.L.L.L.L.L.L.",
"L.L.L.L.L.L.L.L.L.L.L.L.L.L.% , r * % * 9 a.' L.L.L.L.L.L.L.L.L.",
"L.L.L.L.L.L.L.L.L.L.L.L.L.L.L.L.q , # & 8 p.' L.L.L.L.L.L.L.L.L.",
"L.L.L.L.L.L.L.L.L.L.Q S M m D L.L.r @ % 7 0.( L.L.L.L.L.L.L.L.L.",
"L.L.L.L.L.L.L.L.L.L.Y .   @ u n b < @ % 7 9.( L.L.L.L.L.L.L.L.L.",
"L.L.L.L.L.L.L.L.L.L.T . L.L.$ y t $ # * 9 w.~ L.L.L.L.L.L.L.L.L.",
"L.L.L.L.L.L.L.L.L.L.%.i X . X o o O = 3 ..e.L.L.L.L.L.L.L.L.L.L.",
"L.L.L.L.L.L.L.L.L.L.L.=.| E R ! { } o.2.q.^ L.L.L.L.L.L.L.L.L.L.",
"L.L.L.L.L.L.L.L.L.L.L.L.L.$.&.*.;.:.>.[ L.L.L.L.L.L.L.L.L.L.L.L.",
"L.L.L.L.L.L.L.L.L.L.L.L.L.L.L.L.L.L.L.L.L.L.L.L.L.L.L.L.L.L.L.L.",
"L.L.L.L.L.L.L.L.L.L.L.L.L.L.L.L.L.L.L.L.L.L.L.L.L.L.L.L.L.L.L.L.",
"L.L.L.L.L.L.L.L.L.L.L.L.L.L.L.L.L.L.L.L.L.L.L.L.L.L.L.L.L.L.L.L.",
"L.L.L.L.L.L.L.L.L.L.L.L.L.L.L.L.L.L.L.L.L.L.L.L.L.L.L.L.L.L.L.L.",
"L.L.L.L.L.L.L.L.L.L.L.L.L.L.L.L.L.L.L.L.L.L.L.L.L.L.L.L.L.L.L.L.",
"L.L.L.L.L.L.L.L.L.L.L.L.L.L.L.L.L.L.L.L.L.L.L.L.L.L.L.L.L.L.L.L.",
"L.L.L.L.L.L.L.L.L.L.L.L.L.L.L.L.L.L.L.L.L.L.L.L.L.L.L.L.L.L.L.L."
};
