/* XPM */
static char *_ec398752d4247bcb35b1c07f47e66b9TkxHPmTwwk6EyMmG[] = {
/* columns rows colors chars-per-pixel */
"32 32 157 2 ",
"   c None",
".  c #3857F6",
"X  c #3858F6",
"o  c #385AF6",
"O  c #385BF7",
"+  c #375DF8",
"@  c #345EF9",
"#  c #375FF8",
"$  c #3B63F7",
"%  c #3762F9",
"&  c #3464FA",
"*  c #3765FA",
"=  c #3566FB",
"-  c #3766FA",
";  c #3667FB",
":  c #3767FB",
">  c #3B64F9",
",  c #3B66F9",
"<  c #3C67F8",
"1  c #3569FC",
"2  c #3669FC",
"3  c #3769FC",
"4  c #356AFC",
"5  c #346BFD",
"6  c #356BFD",
"7  c #366AFC",
"8  c #376AFC",
"9  c #376BFC",
"0  c #366BFD",
"q  c #356CFD",
"w  c #356DFD",
"e  c #366CFD",
"r  c #376CFD",
"t  c #376FFD",
"y  c #3868FB",
"u  c #3D6AF9",
"i  c #3D6EFA",
"p  c #386BFC",
"a  c #386EFD",
"s  c #386FFD",
"d  c #396FFD",
"f  c #3370FF",
"g  c #3770FD",
"h  c #3471FF",
"j  c #3775FF",
"k  c #3E71FB",
"l  c #3871FD",
"z  c #3971FD",
"x  c #3872FD",
"c  c #3972FD",
"v  c #3873FE",
"b  c #3973FE",
"n  c #3A75FE",
"m  c #3A76FE",
"M  c #3B76FE",
"N  c #3A76FF",
"B  c #3B7AFF",
"V  c #3C78FE",
"C  c #3C78FF",
"Z  c #3E79FE",
"A  c #3D7BFF",
"S  c #4076FC",
"D  c #407AFE",
"F  c #417CFE",
"G  c #437CFE",
"H  c #417EFF",
"J  c #447CFD",
"K  c #447DFE",
"L  c #4182FF",
"P  c #4580FD",
"I  c #4680FD",
"U  c #4483FF",
"Y  c #4484FF",
"T  c #4883FE",
"R  c #4984FE",
"E  c #4A85FF",
"W  c #4C85FE",
"Q  c #4D85FE",
"!  c #4D87FF",
"~  c #4588FE",
"^  c #4788FE",
"/  c #4789FF",
"(  c #4B88FE",
")  c #4B88FF",
"_  c #498AFF",
"`  c #498BFF",
"'  c #4A8BFF",
"]  c #4C89FE",
"[  c #4D89FE",
"{  c #4E89FF",
"}  c #4F8AFE",
"|  c #4A8CFF",
" . c #4C8DFF",
".. c #4F8EFE",
"X. c #5089FE",
"o. c #528BFE",
"O. c #528BFF",
"+. c #528CFF",
"@. c #548DFF",
"#. c #548FFF",
"$. c #588FFE",
"%. c #4C91FE",
"&. c #4E91FF",
"*. c #4D92FE",
"=. c #5292FE",
"-. c #5591FE",
";. c #5591FF",
":. c #5690FF",
">. c #5790FF",
",. c #5791FF",
"<. c #5693FF",
"1. c #5793FF",
"2. c #5494FE",
"3. c #5794FF",
"4. c #5892FF",
"5. c #5C95FE",
"6. c #5C96FE",
"7. c #5F97FE",
"8. c #5099FF",
"9. c #5B9AFE",
"0. c #5B9BFE",
"q. c #5E98FE",
"w. c #5F99FE",
"e. c #599DFE",
"r. c #5E9EFE",
"t. c #6193FD",
"y. c #6197FE",
"u. c #609BFE",
"i. c #629AFE",
"p. c #609DFE",
"a. c #609EFE",
"s. c #669DFE",
"d. c #649EFE",
"f. c #689FFE",
"g. c #62A2FE",
"h. c #68A3FE",
"j. c #69A4FF",
"k. c #6BABFE",
"l. c #6FA8FE",
"z. c #71A7FE",
"x. c #70A9FE",
"c. c #72ABFE",
"v. c #74ABFE",
"b. c #74ADFE",
"n. c #74ADFF",
"m. c #75ADFF",
"M. c #76ADFF",
"N. c #76AFFF",
"B. c #79B3FF",
"V. c #7EBBFF",
"C. c #84BDFF",
"Z. c #86BEFF",
"A. c #82C3FF",
"S. c #8CC5FF",
"D. c #8FC9FF",
"F. c #93CEFF",
"G. c #9BD1FF",
/* pixels */
"                                                                ",
"                                                                ",
"                                                                ",
"                                                                ",
"                                                                ",
"                                                                ",
"                                                                ",
"                                                                ",
"                                                                ",
"                                                                ",
"                    $     . , , # O                             ",
"                    <     # t.y.q 3 - -                         ",
"                    u O O & z.A.8.) Y B f                       ",
"                    i O # - 7.G.F.D.S.C.j.A                     ",
"                    k # & ; z ^ %.%.*.e.V.n.j                   ",
"                    S - , 3 s n B n z j ^ C.)                   ",
"                    I I W ) =.%.2.F q q B B.4.                  ",
"                    A F Y ^ ^ Y  .W q p z n.3.                  ",
"                  Q h.p.w.g.k.| ) ] 3 p s n.2.g                 ",
"                  +.2.g g B w.*.| ] 9 9 q v.2.                  ",
"                  X.+.3 3 q ] w.e.T 3 3 g l.#.                  ",
"                  X.2.3 3 3 z K G s 3 3 g b.]                   ",
"                  G s.J 3 5 5 3 3 q q z 2.n.C                   ",
"                    Q f.i.6.6.7.w.w.g.z.n.W                     ",
"                      C Q #.2.$.2.4.$.] n                       ",
"                                                                ",
"                                                                ",
"                                                                ",
"                                                                ",
"                                                                ",
"                                                                ",
"                                                                "
};
