/* XPM */
static char *_e2f68c2cb214d30b16de320c6c463d1DAzkEnlOlZPtoUzW[] = {
/* columns rows colors chars-per-pixel */
"32 32 145 2 ",
"   c None",
".  c #3756F5",
"X  c #3759F7",
"o  c #365AF7",
"O  c #375CF7",
"+  c #3959F6",
"@  c #385BF7",
"#  c #385CF7",
"$  c #365DF8",
"%  c #385EF8",
"&  c #3C62F7",
"*  c #3D65F7",
"=  c #3661F9",
"-  c #3463FA",
";  c #3663FA",
":  c #3565FB",
">  c #3764FA",
",  c #3566FB",
"<  c #3766FB",
"1  c #3767FB",
"2  c #3567FC",
"3  c #3860F8",
"4  c #3864F9",
"5  c #3E67F8",
"6  c #3768FB",
"7  c #3568FC",
"8  c #3569FC",
"9  c #3669FC",
"0  c #3769FC",
"q  c #356AFC",
"w  c #356BFC",
"e  c #346BFD",
"r  c #356BFD",
"t  c #366AFC",
"y  c #376AFC",
"u  c #346CFD",
"i  c #356CFD",
"p  c #366CFD",
"a  c #366DFD",
"s  c #366EFD",
"d  c #376FFD",
"f  c #356EFE",
"g  c #3869FB",
"h  c #3A68FA",
"j  c #3E69F8",
"k  c #3F6CF9",
"l  c #3C6DFA",
"z  c #3370FF",
"x  c #3770FD",
"c  c #3771FD",
"v  c #3671FE",
"b  c #3472FF",
"n  c #3E71FB",
"m  c #3E73FC",
"M  c #3874FE",
"N  c #3976FE",
"B  c #3C76FE",
"V  c #3B79FE",
"C  c #3D79FD",
"Z  c #3C78FE",
"A  c #3E79FE",
"S  c #3D7AFF",
"D  c #3E7AFE",
"F  c #416FF9",
"G  c #416DFA",
"H  c #4172FB",
"J  c #4472FA",
"K  c #4174FB",
"L  c #4474FA",
"P  c #4674FB",
"I  c #4577FB",
"U  c #4378FD",
"Y  c #427FFF",
"T  c #487AFB",
"R  c #497AFB",
"E  c #4C7EFB",
"W  c #497DFC",
"Q  c #4A7CFC",
"!  c #4A7FFC",
"~  c #4B80FB",
"^  c #4B81FD",
"/  c #4A82FD",
"(  c #4B83FD",
")  c #4B84FD",
"_  c #4B84FE",
"`  c #4F85FC",
"'  c #4F84FD",
"]  c #4C86FE",
"[  c #4D87FE",
"{  c #4E88FE",
"}  c #4F89FE",
"|  c #4E8BFF",
" . c #5089FE",
".. c #518BFE",
"X. c #528CFE",
"o. c #538CFF",
"O. c #538DFF",
"+. c #528EFF",
"@. c #528FFF",
"#. c #578DFE",
"$. c #548FFF",
"%. c #5690FF",
"&. c #5592FF",
"*. c #5792FE",
"=. c #5792FF",
"-. c #5D92FE",
";. c #5D93FE",
":. c #5994FF",
">. c #5995FF",
",. c #5B96FE",
"<. c #5B96FF",
"1. c #5E95FE",
"2. c #5F97FE",
"3. c #5C98FE",
"4. c #5C98FF",
"5. c #5C99FF",
"6. c #5E9AFF",
"7. c #5F9AFF",
"8. c #6399FE",
"9. c #619AFE",
"0. c #609BFF",
"q. c #619DFE",
"w. c #639EFF",
"e. c #649DFE",
"r. c #669CFE",
"t. c #649FFF",
"y. c #61A2FE",
"u. c #66A0FE",
"i. c #65A2FE",
"p. c #69A1FE",
"a. c #69A3FE",
"s. c #6AA7FE",
"d. c #6CA6FE",
"f. c #6EA8FE",
"g. c #6EABFE",
"h. c #70A2FE",
"j. c #71A6FE",
"k. c #71ABFE",
"l. c #73AEFE",
"z. c #72AEFF",
"x. c #74AFFE",
"c. c #7DB8FF",
"v. c #84BAFF",
"b. c #86BCFF",
"n. c #87BEFF",
/* pixels */
"                                                                ",
"                                                                ",
"                                                                ",
"                                                                ",
"                                                                ",
"                                                                ",
"                                                                ",
"                                    ;.X.C                       ",
"                                  P h.v.b.@.b                   ",
"                                O ; t C y.b./                   ",
"                            + G H g t t V c.=.                  ",
"                            J X.>.) t y b g.7.z                 ",
"                            I C | *.t t c k.7.z                 ",
"                            K C X.7.p t p f.7.f                 ",
"                          . n M *.e.p t p d.<.z                 ",
"                            l M >.i.z g p a.>.z                 ",
"                    &       h z 5.s.z g p i.*.                  ",
"                    *       4 z 7.g.c g 9 e.#.                  ",
"                    j       3 p i.k.c g 8 7.*.                  ",
"                    G       $ 8 t.x.d t 9 8.X.                  ",
"                    H       % 9 j.a.p : 9 <. .                  ",
"                    P .     + ; Q n g : : 8. .                  ",
"                    ~ * X X $ - - : : : K t.C                   ",
"                      ' E ! I W ! ^ ' #.8.)                     ",
"                          ^ ) ' } }  .) B                       ",
"                                                                ",
"                                                                ",
"                                                                ",
"                                                                ",
"                                                                ",
"                                                                ",
"                                                                "
};
