/* XPM */
static char *cdf9dfb15ef24a34bd688d0211b0e232ItQUm5B90m1RLGti[] = {
/* columns rows colors chars-per-pixel */
"32 32 108 2 ",
"   c None",
".  c #3857F5",
"X  c #3759F6",
"o  c #365AF7",
"O  c #375AF7",
"+  c #365BF7",
"@  c #3858F6",
"#  c #3859F6",
"$  c #385AF6",
"%  c #395CF6",
"&  c #385CF7",
"*  c #3A5FF7",
"=  c #335CF8",
"-  c #355EF8",
";  c #355FF9",
":  c #375EF8",
">  c #365FF8",
",  c #375FF8",
"<  c #3A61F7",
"1  c #3760F8",
"2  c #3761F9",
"3  c #3763F9",
"4  c #3462FA",
"5  c #3565FB",
"6  c #3765FA",
"7  c #3567FB",
"8  c #3667FB",
"9  c #3963F9",
"0  c #3B65F8",
"q  c #3A67FA",
"w  c #3568FC",
"e  c #3569FC",
"r  c #356BFC",
"t  c #366BFC",
"y  c #366EFD",
"u  c #3D6AF9",
"i  c #3D6BFA",
"p  c #3F6DFA",
"a  c #3E6FFA",
"s  c #3270FF",
"d  c #3370FF",
"f  c #3471FF",
"g  c #3975FF",
"h  c #3E77FD",
"j  c #3F7BFF",
"k  c #3E7DFE",
"l  c #4573FB",
"z  c #4275FA",
"x  c #4177FB",
"c  c #4777FB",
"v  c #4275FC",
"b  c #4678FB",
"n  c #4079FE",
"m  c #417BFE",
"M  c #417DFF",
"N  c #447CFC",
"B  c #467EFD",
"V  c #477FFD",
"C  c #447FFF",
"Z  c #4879FB",
"A  c #4A7BFC",
"S  c #4A7DFC",
"D  c #4780FE",
"F  c #4981FD",
"G  c #4A83FE",
"H  c #4D85FC",
"J  c #4E88FF",
"K  c #5081FC",
"L  c #5185FC",
"P  c #5188FE",
"I  c #528AFE",
"U  c #578BFD",
"Y  c #558CFD",
"T  c #568DFE",
"R  c #558EFF",
"E  c #5C88FC",
"W  c #5A8EFD",
"Q  c #5B8EFD",
"!  c #598DFE",
"~  c #5890FE",
"^  c #5E94FE",
"/  c #619AFF",
"(  c #6499FE",
")  c #659BFE",
"_  c #619CFF",
"`  c #639DFF",
"'  c #649EFF",
"]  c #679FFF",
"[  c #689CFF",
"{  c #689FFE",
"}  c #6E9FFE",
"|  c #65A0FF",
" . c #66A1FF",
".. c #67A1FF",
"X. c #68A0FF",
"o. c #68A1FF",
"O. c #6CA6FE",
"+. c #6CA7FE",
"@. c #6DA7FE",
"#. c #6EA8FE",
"$. c #6FA8FE",
"%. c #70A6FE",
"&. c #70A8FE",
"*. c #71A8FE",
"=. c #72AAFE",
"-. c #75AFFE",
";. c #70B0FE",
":. c #83BBFE",
/* pixels */
"                                                                ",
"                                                                ",
"                                                                ",
"                                                                ",
"                                                                ",
"                                                                ",
"                          s s s s y s s                         ",
"                    ! [ o.o. . . .' ` ` / R                     ",
"                    E } @.*.*.#.@.@.@.#.;.:.M                   ",
"                      = 1 5 w w 8 y w y k -.C                   ",
"                          @ % , 1 5 5 8 h *.j                   ",
"                              1 1 % 1 5 P o.f                   ",
"                                , @ 1 5 ) J                     ",
"                                  @ , v { g                     ",
"                              %   . 1 U ~                       ",
"                                  @ q / m                       ",
"                            q     O A ^                         ",
"                            %     , ! G                         ",
"                          h     . l ^                           ",
"                          u     o L P                           ",
"                        z <   @ 1 ! m                           ",
"                        z O @ O l R                             ",
"                      C i O O , L C                             ",
"                      H b c b S R                               ",
"                          C S G                                 ",
"                                                                ",
"                                                                ",
"                                                                ",
"                                                                ",
"                                                                ",
"                                                                ",
"                                                                "
};
