/* XPM */
static char *_c35899f239e4d2cecb0297601ff5b19csTm4mobnqHnIdHX[] = {
/* columns rows colors chars-per-pixel */
"32 32 189 2 ",
"   c #010101",
".  c #030609",
"X  c #0D0B0B",
"o  c #100C0D",
"O  c #040B12",
"+  c #170F10",
"@  c #09131F",
"#  c #1E1717",
"$  c #211B1D",
"%  c #091523",
"&  c #04162D",
"*  c #011A37",
"=  c #0D1D30",
"-  c #041C39",
";  c #11243C",
":  c #34282B",
">  c #392D2B",
",  c #3A2F30",
"<  c #483436",
"1  c #0C284A",
"2  c #0D2D55",
"3  c #183252",
"4  c #1E416B",
"5  c #2E4262",
"6  c #214979",
"7  c #5F4847",
"8  c #61464A",
"9  c #654C4C",
"0  c #66504F",
"q  c #775A59",
"w  c #585B7D",
"e  c #6D5967",
"r  c #6C5968",
"t  c #7C5D67",
"y  c #735B69",
"u  c #79616E",
"i  c #805F6D",
"p  c #886769",
"a  c #8A6370",
"s  c #866875",
"d  c #8C6A74",
"f  c #8C6C79",
"g  c #936673",
"h  c #9A6674",
"j  c #946C75",
"k  c #8E717F",
"l  c #977276",
"z  c #95737C",
"x  c #9C757B",
"c  c #9E7A7E",
"v  c #A36C76",
"b  c #A46D79",
"n  c #AB6F7A",
"m  c #AD707B",
"M  c #A17C7E",
"N  c #AC797F",
"B  c #265287",
"V  c #275389",
"C  c #295993",
"Z  c #2C609E",
"A  c #0851AA",
"S  c #3B61AA",
"D  c #2C66B9",
"F  c #3468B7",
"G  c #346ABD",
"H  c #3471BB",
"J  c #3D71BF",
"K  c #495B8E",
"L  c #44699D",
"P  c #56669A",
"I  c #7C708D",
"U  c #626897",
"Y  c #787698",
"T  c #4D6CAC",
"R  c #5C74AD",
"E  c #5877B4",
"W  c #6878AA",
"Q  c #6A7CAE",
"!  c #757CA5",
"~  c #767BAB",
"^  c #6B7DB2",
"/  c #0C5FC7",
"(  c #085EC8",
")  c #125FC2",
"_  c #0D60C7",
"`  c #0761CF",
"'  c #0C63CD",
"]  c #1862C6",
"[  c #1D6ACC",
"{  c #0C65D1",
"}  c #1167D1",
"|  c #156BD3",
" . c #186CD3",
".. c #2063C1",
"X. c #286BC7",
"o. c #356DC0",
"O. c #2E72CC",
"+. c #3574C3",
"@. c #3A77C6",
"#. c #397BCC",
"$. c #2776D7",
"%. c #2E79D7",
"&. c #2C7ADA",
"*. c #327EDB",
"=. c #387FD8",
"-. c #4C7BC3",
";. c #547EC1",
":. c #8D7685",
">. c #947384",
",. c #9D7D83",
"<. c #967D8B",
"1. c #85799B",
"2. c #917896",
"3. c #AB7580",
"4. c #A27D81",
"5. c #B67E83",
"6. c #7C80A4",
"7. c #7983A8",
"8. c #6984BA",
"9. c #7888B4",
"0. c #3E80CF",
"q. c #3C81D6",
"w. c #3581DE",
"e. c #3B84DD",
"r. c #3D86E0",
"t. c #3F88E1",
"y. c #5B87C8",
"u. c #588FD0",
"i. c #5694DE",
"p. c #688BC6",
"a. c #7098D1",
"s. c #4189E2",
"d. c #498EE2",
"f. c #4D91E3",
"g. c #5495E4",
"h. c #5999E6",
"j. c #639EE6",
"k. c #67A1E7",
"l. c #7CACE7",
"z. c #9B828C",
"x. c #8E8092",
"c. c #938393",
"v. c #9E8C9F",
"b. c #A58485",
"n. c #AC8385",
"m. c #A78888",
"M. c #AA8C8D",
"N. c #B48486",
"B. c #B98286",
"V. c #B68A87",
"C. c #B6848A",
"Z. c #BB8688",
"A. c #B58B8C",
"S. c #B98C8B",
"D. c #B6908E",
"F. c #BC908D",
"G. c #A48792",
"H. c #AA8B94",
"J. c #A58C9A",
"K. c #AB9191",
"L. c #A8969E",
"P. c #B39096",
"I. c #BB9394",
"U. c #B4949C",
"Y. c #BD9899",
"T. c #8887A9",
"R. c #8D8BAA",
"E. c #948BA5",
"W. c #998BA2",
"Q. c #8390A7",
"!. c #9C97A4",
"~. c #9190AF",
"^. c #868FB5",
"/. c #A794A4",
"(. c #C18F8D",
"). c #C2928F",
"_. c #C49591",
"`. c #C59995",
"'. c #82AFE7",
"]. c #84B3EC",
"[. c #8CB5E8",
"{. c #94BCED",
"}. c #A7C6EE",
"|. c #ABCBF2",
" X c #B7D2F3",
".X c #C1D7F4",
"XX c #CCE0F7",
"oX c #DDEAFA",
"OX c #E9F2FC",
/* pixels */
"e e e a g j c c M M x 4.,.x c a r e w ) / _ _ Y x c j g a y r r ",
"y y i n m B._.)._.).(.Z.Z.(.V.s e K D $.} ] 7.P._._.5.n b R U y ",
"b b n m n B._._.L.~.Y.`.`._._.k U G $.e.| D I.).)._.R.2.3.~ 1.a ",
"v b b b n N S.S.R.p.H.K.J.S.G.U [ %.e.w.X.T A.S.S.A.8.~ b x b a ",
"g g g g g x M d z z.b.7.y.G.P [ *.s.w.{ P >.M f >.4.>.f g h h a ",
"B.B.B.B.B.).S.x S._._.U./.`.E / e.s.*.` Y F.P.^ 9._._.B.5.5.B.C.",
"_._.`.)._.F.n.j I._._._.P.Q a.'.s.&.O.^ J._.C.Y E._._./.^.I._._.",
"S.S.S.S.D.H.E.k 3.S.W.J.G.) [.oXg.$.X.! H.S.A.z n.S.S.W.p.J.S.S.",
"x 4.b.m.H.E.y.x.c z.y.Q Y O.[.XXf.t.*.' 7.M.m.,.4.4.4.4.,.4.4.d ",
")._.`.`.`.Y.U.I._._.U.Q @..X{.h.s.t.w.` 7.`._._._._._._._._._.x ",
"`.).).)._._._._._.I.E a.}.].h.s.t.t.e.%.+.W F.^.^._._.Z.).A.4.d ",
"V.S.S.S.R.E.S.S.S.m...l.OXg.s.e.t.t.t.r. .G M.^.T.A.S.A.F.P.n.d ",
"M M 4.4.8.9.,.d :.Y [ '.OXg.s.s.t.t.t.t. .D ,.d z b.b.m.M.K.m.c ",
"B.B.Z.5.C.I._.4.! ] *.{.oXg.r.s.t.t.t.t. .G <.k A.I._.`.`.Y.`._.",
"n n n m n Z._.4.W ' *.g.j.s.s.e.t.t.t.t.w.%.G I W.p.U._.I.p.^.).",
"e t :.^ >.3.A.P G *.{.].s.s.s.s.t.t.t.t.t.w.$.F R ^.H.S.D.R.v.F.",
"l z 2.p.c.:.W X.&.f.|.].t.t.t.s.t.t.e.s.t.t.t.| F ,.z j g u u y ",
").)._.`._.T._ *.e.e.@.0.t.t.t.e.+.q.t.t.t.t.t. .J J.C.n n t y y ",
"`.)._._._.6.{ *.t.q.; 6 t.t.t.+.= C s.t.t.t.t.w.%.X.2.n n n b s ",
"V.S.A.A.R +.&.e.t.#.% 4 t.t.t.H O V s.t.t.t.t.t.e.%.o.P b b 1.;.",
"9.c.4.,.D *.{.g.t.#.@ 4 t.t.t.H O B s.s.t.t.t.t.s.r.} S g h I W ",
"p./._.S.G i.OXk.t.q.3 B s.t.s.@.1 Z s.e.t.t.t.r.r.r.{ T 5.C.C.5.",
"I._._.I.G i.oXj.t.e.0.q.s.t.s.e.0.e.s.s.t.t.t.d.d.=.| E `._._._.",
"A.S.A.A.D $.j.d.t.t.t.t.s.e.s.t.s.s.e.s.t.t.d. X{. .~ G.A.S.A.S.",
"c 4.b.m.5 2 3 #.t.t.t.t.t.t.t.t.t.t.t.t.t.k. XOX|.{ -.! 4.4.1.8.",
"_._.N.q $   . 4 F t.s.t.s.t.t.t.t.t.g.].h.u.!.!.Q.E p.~._._.W.8.",
"_._.p X       . 3 H %.r.w.s.t.s.t.w.g..Xa.V X X , x A.S.).V.,.f ",
"V.S.p X         . & A ( ' w.e.q.q.[ ' [ 2 O     . # d A.A.D.m.d ",
"M c l q #           & * 1 ) 6 ; ; - - - O         . L 9.K.K.m.c ",
"B.N.B.B.q 9 8 o         O P w 7 0 0 < .       : 8 0 ! W.S.Z.Z.Z.",
"b n m m n 5.S.< $     + > g v v V.F.M < > > > q V.F.Z.m n n n b ",
"t u v m n B.).l 9     < v v p u F._.F.V.V.S.S.x V.).5.m n b i y "
};
