/* XPM */
static char *e563344ba8b9490cf9e1414da2c1fd0bAJ192s6n4LRjxJpi[] = {
/* columns rows colors chars-per-pixel */
"32 32 193 2 ",
"   c #010101",
".  c #01060B",
"X  c #0C0909",
"o  c #010D1B",
"O  c #0B111B",
"+  c #1B1515",
"@  c #241C1C",
"#  c #000E20",
"$  c #091626",
"%  c #041D3C",
"&  c #11243C",
"*  c #302626",
"=  c #4B3135",
"-  c #523A3C",
";  c #0D284A",
":  c #183456",
">  c #373B4F",
",  c #1F436F",
"<  c #1E4471",
"1  c #224979",
"2  c #5D4545",
"3  c #644C4A",
"4  c #664C50",
"5  c #6C5253",
"6  c #795858",
"7  c #6D5967",
"8  c #6D5A68",
"9  c #735B69",
"0  c #7B626C",
"q  c #67627F",
"w  c #7E687B",
"e  c #7C7C7D",
"r  c #805F6D",
"t  c #856566",
"y  c #856B6B",
"u  c #94666B",
"i  c #8A6370",
"p  c #8C6B74",
"a  c #89687B",
"s  c #936673",
"d  c #956B76",
"f  c #926978",
"g  c #967371",
"h  c #95727A",
"j  c #9B767C",
"k  c #9E7A7E",
"l  c #A56B77",
"z  c #A56D79",
"x  c #AB6F7A",
"c  c #A7707A",
"v  c #AD707B",
"b  c #A27C7E",
"n  c #034291",
"m  c #28568F",
"M  c #2D619F",
"N  c #3C6094",
"B  c #0951A9",
"V  c #0456BB",
"C  c #2D64A7",
"Z  c #326CB2",
"A  c #3768B6",
"S  c #3572BD",
"D  c #55659A",
"F  c #5C6C9C",
"G  c #6F6780",
"H  c #777D89",
"J  c #616699",
"K  c #66719C",
"L  c #777498",
"P  c #4C68A9",
"I  c #576FA8",
"U  c #5C73AB",
"Y  c #486FB8",
"T  c #4973BC",
"R  c #5D78B3",
"E  c #6677A6",
"W  c #7274A2",
"Q  c #737AA5",
"!  c #7C7CA2",
"~  c #757DAB",
"^  c #6179B1",
"/  c #6A7EB6",
"(  c #085EC8",
")  c #1A65C4",
"_  c #1366CE",
"`  c #1966C9",
"'  c #0F66D1",
"]  c #166AD1",
"[  c #1C6DD2",
"{  c #2666C1",
"}  c #2D6CC4",
"|  c #246CCA",
" . c #2D6FC9",
".. c #356EC3",
"X. c #2E70C9",
"o. c #3774C2",
"O. c #3D73C3",
"+. c #3272C9",
"@. c #397ACA",
"#. c #2474D6",
"$. c #2B77D3",
"%. c #2F7BD7",
"&. c #2D7BDB",
"*. c #327EDC",
"=. c #447ECB",
"-. c #587EC0",
";. c #826E89",
":. c #976D82",
">. c #86708D",
",. c #9A7386",
"<. c #9D7D83",
"1. c #897898",
"2. c #997C93",
"3. c #A06E81",
"4. c #A27E81",
"5. c #A57987",
"6. c #B57E83",
"7. c #7880AA",
"8. c #6B80B2",
"9. c #6687BB",
"0. c #7283B3",
"q. c #7B8CB7",
"w. c #778AB9",
"e. c #3C82D6",
"r. c #3682DE",
"t. c #3C85DE",
"y. c #3784E0",
"u. c #3D86E0",
"i. c #3F88E1",
"p. c #5886C4",
"a. c #4789DB",
"s. c #5A95DF",
"d. c #6989C3",
"f. c #7199D4",
"g. c #4189E2",
"h. c #498EE1",
"j. c #4D91E4",
"k. c #5495E4",
"l. c #5897E5",
"z. c #5D9BE6",
"x. c #629EE7",
"c. c #6AA2E8",
"v. c #78AAE7",
"b. c #7EB0EC",
"n. c #9F828B",
"m. c #86819C",
"M. c #9C8594",
"N. c #99879B",
"B. c #A48385",
"V. c #AB8282",
"C. c #AD828E",
"Z. c #A68989",
"A. c #AD8A8E",
"S. c #B48586",
"D. c #B98286",
"F. c #B58589",
"G. c #BB8688",
"H. c #B48C8C",
"J. c #B98C8B",
"K. c #BB918E",
"L. c #A58692",
"P. c #AC8C95",
"I. c #A48B9B",
"U. c #AF8F98",
"Y. c #B78D91",
"T. c #AC9197",
"R. c #BD9494",
"E. c #B59398",
"W. c #8283A4",
"Q. c #8884A4",
"!. c #8D8AA9",
"~. c #9384A3",
"^. c #938BA5",
"/. c #9A8BA1",
"(. c #9E96AD",
"). c #868EB5",
"_. c #9190B0",
"`. c #A692A4",
"'. c #C2928F",
"]. c #C39591",
"[. c #C69994",
"{. c #83B1E8",
"}. c #89B6EC",
"|. c #93BCEF",
" X c #90BBF0",
".X c #9CC1EE",
"XX c #A2C4ED",
"oX c #AECCF1",
"OX c #BAD4F3",
"+X c #C6DCF7",
"@X c #CBE0F9",
"#X c #DBE9F9",
"$X c #E6F0FC",
/* pixels */
"7 8 8 i s d 4.<.K ) ( ( _ L h i 8 8 8 i s d k b k k d s i 7 7 7 ",
"9 F E ,.x 6.].].U.W.{ ] #.S W a 8 9 i z v D.].].].].D.v x r 9 7 ",
"z 1.! ,.1.~.R.].'.Y.S [ r.#.=.F a z z x x C._.U.].].D.v v c x i ",
"l z z z ~ ~ P.J.J.P.U X.*.t.$.` J :.:.,.,.2.d.^.H.J.5.l l l l i ",
"s s s d f ,.4.a ,.4.n.E ` *.i.*._ D >.-.W ,.<.p j b k s s s s s ",
"D.D.D.D.6.].J./ q.E.].7.` &.i.y.' U 5.5.C.].K.j F.].'.G.D.D.D.D.",
"].].E.q.`.K.B.L /.].].I.~ +.&.h.}.f./ U.].].H.d J.].].].].].].].",
"J.J.I.w./.J.J.d V.J.J.M.~  .$.l.#Xv...M.N./.P.h L.^.P.J.J.J.J.J.",
"k 4.B.Z.T.Z.B.B.k b b K ` *.u.k.OX{.a.L 9.d.n.b 1.p.m.<.b 4.b p ",
"'.].].[.[.[.[.R.].].R.~ ` &.i.g.j..XoXa.0.E.R.[.].R.[.'.].].].k ",
"].'.'.[.].].R.).).T.R +.*.t.i.i.t.s.b.oXf.R P.'.'.].'.J.K.H.b p ",
"F.J.J.G.J.J.H.^.!.L.A [ u.i.i.i.a.t.z.#Xv.+.M.J.J.J.!.!.Y.K.V.p ",
"b 4.5.B.4.4.b p j n.A ] y.g.i.i.i.u.x.#Xv.+.E w g n.7.0.M.T.Z.b ",
"D.F.C.6.D.R.E.n.A.I.S #.y.i.i.i.i.u.z.@X}.r._ D A.[.[.[.[.[.[.[.",
"z ~ / 5.v N.d.m.W.} %.t.i.i.i.i.i.i.g.l.j.y.] F A.[.].].R.].'.[.",
"9 G >.3.l 5.!.P ..%.t.t.g.i.i.i.i.i.i.i.}..Xa.} I Z.J./.w.I.J.J.",
"p j 4.Z.B.b <.A [ y.i.i.i.i.i.g.i.i.i.i.b. Xj.&.X.I ;.>.E q 0 9 ",
"].].].].].E.N.O.#.u.i.i.i.i.@.S e.i.i.i.o.S e.i.r._ L x x r 9 9 ",
"R.[.].R.].Q.} &.y.g.i.i.i.i.1 & Z t.i.t., & o.i.&._ W ,.v x x i ",
"d.!.H.J.U  .*.y.i.i.i.i.i.g.1 & Z t.i.i., & S i.r.r.| P h z z i ",
"W.N.k n.A [ e.i.i.i.i.i.i.g.1 $ Z t.i.t.: & S i.x.|.a.A a s >.^ ",
"[.].'.J.Y [ r.i.i.i.i.i.i.i.M < o.a.i.i.m 1 @.u.v.#Xs.Y 5.F.2.d.",
"'.'.].[.^ X.*.k.k.g.i.i.i.i.t.t.i.i.i.i.i.i.i.i.c.+Xa.T U.].].].",
"H.H.J.J.A.Q | XXoXl.g.i.i.g.g.i.i.i.i.i.i.i.i.i.h.a.] Y L.J.J.Y.",
"9.7.n.Z.q.=.] oX$X@Xc.g.i.i.i.i.i.i.g.t.i.i.t.h.A : % > p 4.b p ",
"_.T.R.[.(.q.8.H e H p.c.|.z.g.i.i.i.i.g.g.g.g.M : .   @ 2 b '.b ",
"].].].].'.F.y * . . < 9..Xk.r.i.i.g.g.r.&.$.C ; .       X t j p ",
"S.J.J.J.Y.y +         ; B V ) o.@.e.*.V V n #           + y b p ",
"b B.4.4.0.N O         . o o O $ $ < B % # o           * y Z.Z.k ",
"D.D.D.D.N.N.y 5 - X     X 3 6 6 t a G O         @ 5 t u S.G.G.G.",
"l z x x v G.].b d 3 - = - u x c K.'.Z.4 @     @ 5 S.G.v x x c l ",
"7 i z v v 6.'.j S.'.6.x x l 9 i J.].'.'.3 @ + 3 b [.6.x v z t 9 "
};
