/* XPM */
static char *result[] = {
/* columns rows colors chars-per-pixel */
"32 32 188 2 ",
"   c #030100",
".  c #0C0501",
"X  c #371502",
"o  c #391503",
"O  c #451D03",
"+  c #481D04",
"@  c #5F361A",
"#  c #653B22",
"$  c #693E25",
"%  c #6B4128",
"&  c #7E5C25",
"*  c #764932",
"=  c #7B5A47",
"-  c #7F604D",
";  c #6E5967",
":  c #735B69",
">  c #873D08",
",  c #9C470B",
"<  c #9E4809",
"1  c #87421F",
"2  c #805F15",
"3  c #A34B0B",
"4  c #B6540E",
"5  c #B8540F",
"6  c #816217",
"7  c #927715",
"8  c #8F5738",
"9  c #90692F",
"0  c #F5580F",
"q  c #E85612",
"w  c #EE5A15",
"e  c #F55B15",
"r  c #F95C13",
"t  c #F45E19",
"y  c #CB6010",
"u  c #D86512",
"i  c #EC6F15",
"p  c #F57317",
"a  c #FE7716",
"s  c #FE7A16",
"d  c #FF7718",
"f  c #FF7819",
"g  c #D15D2E",
"h  c #F76726",
"j  c #FF6723",
"k  c #FF6926",
"l  c #FF7C22",
"z  c #E96D39",
"x  c #FE6E31",
"c  c #FA7338",
"v  c #866641",
"b  c #846552",
"n  c #966B54",
"m  c #AB775B",
"M  c #B07F5E",
"N  c #805F6D",
"B  c #8E6A66",
"V  c #956D6D",
"C  c #9A796D",
"Z  c #8A6370",
"A  c #8B6A73",
"S  c #936672",
"D  c #956C76",
"F  c #987471",
"G  c #9D767C",
"H  c #9E7A7E",
"J  c #A67669",
"K  c #B2756A",
"L  c #A66D76",
"P  c #A56D79",
"I  c #AB6F7A",
"U  c #AB7A72",
"Y  c #AD707B",
"T  c #A57B78",
"R  c #FE7D46",
"E  c #FE7F48",
"W  c #CB7D66",
"Q  c #B6A113",
"!  c #DB9D1A",
"~  c #FE8217",
"^  c #FF8813",
"/  c #E39F19",
"(  c #FF9414",
")  c #F6A809",
"_  c #FEB309",
"`  c #EFA716",
"'  c #E6A41E",
"]  c #F4AB14",
"[  c #FAB318",
"{  c #DD9B28",
"}  c #D9983F",
"|  c #FF812D",
" . c #FF8532",
".. c #FE8A3E",
"X. c #DFA02A",
"o. c #C7B522",
"O. c #ECAA2E",
"+. c #FFB624",
"@. c #FEB828",
"#. c #E9A93C",
"$. c #F1AF3C",
"%. c #FFC40A",
"&. c #E1D802",
"*. c #FFDF05",
"=. c #FFD408",
"-. c #FFE303",
";. c #F2EC02",
":. c #FFEE02",
">. c #FFF401",
",. c #FFFA00",
"<. c #FFFB0D",
"1. c #F3ED10",
"2. c #FFFA17",
"3. c #FFFA22",
"4. c #FFFB2B",
"5. c #AB8274",
"6. c #B2847B",
"7. c #D89741",
"8. c #D19259",
"9. c #FE8C42",
"0. c #FF934D",
"q. c #F98953",
"w. c #FF9551",
"e. c #FE9759",
"r. c #FF9B59",
"t. c #EEAE41",
"y. c #FFBC46",
"u. c #F1B459",
"i. c #DB8365",
"p. c #C98878",
"a. c #CD9A7B",
"s. c #FD9C63",
"d. c #FFA46B",
"f. c #FFAC6B",
"g. c #FEA574",
"h. c #FDAE7E",
"j. c #FFBA78",
"k. c #FFFC4F",
"l. c #F6E75D",
"z. c #FFFC53",
"x. c #FEC168",
"c. c #FFDA66",
"v. c #FFC470",
"b. c #FEC37C",
"n. c #FFE260",
"m. c #FFFC7C",
"M. c #A27E80",
"N. c #B67E82",
"B. c #A98887",
"V. c #BA8285",
"C. c #B68887",
"Z. c #B98B8A",
"A. c #AC9292",
"S. c #CB8E81",
"D. c #C99784",
"F. c #C4948E",
"G. c #C49591",
"H. c #FEB687",
"J. c #F3B38E",
"K. c #FFB889",
"L. c #FEBC93",
"P. c #FDBB97",
"I. c #FFC780",
"U. c #FFC882",
"Y. c #FFC89C",
"T. c #FFFD98",
"R. c #F5C5A6",
"E. c #FFC6A3",
"W. c #FFCFA2",
"Q. c #FFCEAC",
"!. c #FFD0AD",
"~. c #FACBB2",
"^. c #FFD2B2",
"/. c #FAD2BC",
"(. c #FDDCB8",
"). c #FFFDA3",
"_. c #FAD4C0",
"`. c #E2DDDA",
"'. c #FFFEC4",
"]. c #FBE6D9",
"[. c #FFFED3",
"{. c #FFFEDF",
"}. c #F9ECE5",
"|. c #F0EDEC",
" X c #F3F1EF",
".X c #FFFFEC",
"XX c #F9F6F2",
"oX c #FFFFFE",
/* pixels */
"; ; : Z S D G G T X.' ' ' ' O./ ! ! ! / / ' { 5.G G F S Z : ; ; ",
": : N P Y V.G.G.a.[ _ _ _ _ _ _ _ _ _ _ _ _ [ a.G.G.V.Y P N : : ",
"P P I Y Y 8.O.O.t.b.I.I.b.b.U.b.b.b.b.b.I.I.b.t.O.O.8.Y I I P Z ",
"P P P P P 7._ _ @.Y.Q.Q.!.!.!.!.!.!.!.(.Q.Q.W.@._ _ } L P P P Z ",
"S S S m { u.U.U.b.r.w.w.w.w.w.w.w.j.}.E.0.w.r.b.U.U.u.{ m S S S ",
"V.V.V.8._ x.!.!.Y. .d f f d f f a d. XP.l f | Y.!./.v._ 8.V.N.V.",
"F.D.#.u.U.f.0.0.0.f d f f f a f a  .s.P./.w.f 9.h.].(.b.q.z S.G.",
"Z.6.] y.!.d.s f f s f f f a f f a s a K. Xg.l s s.XX].Q.R e p.Z.",
"5.5.] y.!.f.a f f f f a d f f f f f a 9.d.R.Q.c s.XX].Q.R 0 K A ",
"F.a.[ y.!.d.d f a f f f d s f a a f d f l /.}...r. X].Q.E r p.G ",
"#.$.b.v.w. .f f s f f a f f f f f f d f f _.}.9. .s.e.0.g.h.z g ",
"` +.W.K.f f f f d f f f d f s f a f f f l _.}.9.a d s f K.E.k e ",
"` @.W.K.f f f f y > u s p 3 , p f a f f l _.}.9.d f f f H.E.k w ",
"] +.W.K.l f f s < . 5 f p + o i f f d f f /.}.9.d f f f K.E.k t ",
"` +.Y.K.f f f s <   5 f p O X i f f f s f w.r.l f f d f H.E.k e ",
"/ +.W.K.l f f s <   5 s p O X i a f d d f f d f d f d f H.W.k t ",
"i l E.K.f f f f <   4 f p O o i f a f f d f f f f f f f K.E.k q ",
"t j E.K.f f s f <   4 f p O X i f f d f f d f d f d f f K.E.k q ",
"t j E.K.l f f f u 3 u f s 4 3 p d d d d d d f f s f f f K.E.k q ",
"t j E.K.f f f d s ~ ~ ~ ~ ~ ~ ~ ~ ~ ~ ~ ~ ~ ~ f d d f f K.E.h q ",
"w j E.K.f f f d ~ =.-.*.*.*.*.*.*.*.*.*.*.*.=.^ f f s f K.R.8 1 ",
"h h P.K.| l f ~ ( :.>.,.,.,.2.3.3.3.3.2.,.,.:.( ~ s l | H.J.* * ",
"p.i.c q.L.r.f %.-.,.,.,.,.<.T.[.[.[.[.m.,.,.,.-.%.s e.K.M v U 6.",
"Z.p.e R ^.f.~ *.,.,.,.,.2.4.'.oXoXoXoXT.3.3.3.,.*.^ f.~.n % 6.Z.",
"G U 0 E Q.c.-.,.,.,.,.,.m.[..XoXoXoXoX.X[.[.'.4.>.-.c.~.n # F A ",
"G.S.t E E.c.,.,.,.,.,.,.T.oXoXoXoXoXoXoXoXoX.Xk.2.,.l.R.n % 6.H ",
"G.F.p.W x [ ,.,.,.,.,.,.T.oXoXoXoXoXoXoXoXoXoX{.).1.o.8 C 5.H A ",
"C.Z.Z.W e ) ;.;.;.,.<.3.T.oXoXoXoXoXoXoXoXoXoX X'.1.Q # C Z.B.A ",
"M.M.M.T K 9 6 2 7 ;.z.[..XoXoXoXoXoXoXoXoXoX XC v 6 v F B.A.B.T ",
"V.V.V.V.Z.n $ $ & &.n.|.|.|.|.|.|.|.|.|.|.|.`.= $ $ n Z.V.Z.Z.V.",
"P I I I I N.N.F J 6 & - - - - - - - - - - - b B U V.N.I I I P P ",
": : P Y I N.G.P T % @ @ @ @ @ @ @ @ @ @ @ @ % V C.Z.N.Y Y P N : "
};
