/* XPM */
static char *result[] = {
/* columns rows colors chars-per-pixel */
"32 32 195 2 ",
"   c #060300",
".  c #080401",
"X  c #150A02",
"o  c #1D0E03",
"O  c #2B1404",
"+  c #492307",
"@  c #582908",
"#  c #5F361A",
"$  c #7A3A0B",
"%  c #663D24",
"&  c #683F27",
"*  c #7D5C16",
"=  c #6A4128",
"-  c #7C5A22",
";  c #754932",
":  c #7A5539",
">  c #7C5A44",
",  c #6E5967",
"<  c #735B69",
"1  c #833D0C",
"2  c #A34D0F",
"3  c #B25410",
"4  c #917512",
"5  c #8C4A27",
"6  c #825F20",
"7  c #97683B",
"8  c #C65D13",
"9  c #DF5415",
"0  c #F6590E",
"q  c #E85715",
"w  c #F45C14",
"e  c #F65D17",
"r  c #D86614",
"t  c #DC6814",
"y  c #E86C15",
"u  c #FF6517",
"i  c #F5611B",
"p  c #FD6518",
"a  c #FF681C",
"s  c #F57317",
"d  c #FD7617",
"f  c #FF7A17",
"g  c #F77418",
"h  c #FE7718",
"j  c #FF7919",
"k  c #CE5D30",
"l  c #FA6A22",
"z  c #FF7E22",
"x  c #FA722E",
"c  c #E86C35",
"v  c #FF7A35",
"b  c #FE7E3A",
"n  c #865C41",
"m  c #8A6446",
"M  c #8F6A53",
"N  c #956859",
"B  c #A97658",
"V  c #805F6D",
"C  c #936C6B",
"Z  c #8A6370",
"A  c #8B6A73",
"S  c #936672",
"D  c #956C76",
"F  c #9A7673",
"G  c #9E767B",
"H  c #9E7A7E",
"J  c #A5776B",
"K  c #B2766A",
"L  c #A66D77",
"P  c #A86F74",
"I  c #A56D79",
"U  c #AB6F7A",
"Y  c #A67C75",
"T  c #AD707B",
"R  c #A57C7B",
"E  c #B27F7E",
"W  c #DF7F59",
"Q  c #CD7B62",
"!  c #AC9613",
"~  c #BFAA1C",
"^  c #DB9D1A",
"/  c #FF8216",
"(  c #FF8813",
")  c #E19F1C",
"_  c #FF9313",
"`  c #F5AB0C",
"'  c #FEB306",
"]  c #FDB309",
"[  c #E6A41E",
"{  c #E9A318",
"}  c #F2AA15",
"|  c #F8AE10",
" . c #FAB414",
".. c #FEB51C",
"X. c #FFB81C",
"o. c #DC9C29",
"O. c #DA993D",
"+. c #FF832A",
"@. c #FE8834",
"#. c #FE8C3C",
"$. c #DFA029",
"%. c #ECAA2F",
"&. c #EBAA38",
"*. c #ECAB39",
"=. c #F2B035",
"-. c #FFBD3B",
";. c #FFC40A",
":. c #E0D805",
">. c #FFD807",
",. c #FFE104",
"<. c #F1EE03",
"1. c #FAEB05",
"2. c #FFF501",
"3. c #FFFE01",
"4. c #FFFE0A",
"5. c #FFFE13",
"6. c #FFFF1C",
"7. c #FFFF33",
"8. c #B1866D",
"9. c #AB8176",
"0. c #B2847B",
"q. c #D79741",
"w. c #CF905E",
"e. c #D19258",
"r. c #F98746",
"t. c #FF9346",
"y. c #FE954A",
"u. c #FF9A4E",
"i. c #FE9B55",
"p. c #FD9E5A",
"a. c #F2B44A",
"s. c #FFA25E",
"d. c #FFAC5F",
"f. c #F1B552",
"g. c #D88365",
"h. c #CA8878",
"j. c #CB9978",
"k. c #FEA666",
"l. c #FFB66B",
"z. c #FDAA73",
"x. c #FFB47F",
"c. c #FEC35D",
"v. c #FFDB58",
"b. c #F7E64D",
"n. c #FFFF42",
"m. c #FDC46E",
"M. c #FFC676",
"N. c #FFC779",
"B. c #FFC87A",
"V. c #FFFF65",
"C. c #A27E80",
"Z. c #B67E82",
"A. c #A98887",
"S. c #BA8285",
"D. c #B68988",
"F. c #BA8B8A",
"G. c #AC9292",
"H. c #C98F84",
"J. c #CA9981",
"K. c #C4948D",
"L. c #C49591",
"P. c #FEB684",
"I. c #FFB884",
"U. c #FCBC8D",
"Y. c #E1B596",
"T. c #ECBEA0",
"R. c #FAC498",
"E. c #FFC49C",
"W. c #FFCE9E",
"Q. c #FFFF85",
"!. c #FFFF91",
"~. c #FFC5A0",
"^. c #FECBA6",
"/. c #FECEAB",
"(. c #FFD0AD",
"). c #FCDBAF",
"_. c #FBD1B2",
"`. c #F0ECA4",
"'. c #FFFFAE",
"]. c #FFFFBE",
"[. c #DCD3CD",
"{. c #FCE1CD",
"}. c #FFFFC7",
"|. c #FFFFCB",
" X c #FAE5D5",
".X c #FBEADF",
"XX c #FFFFDA",
"oX c #EEEBE5",
"OX c #EEEBE8",
"+X c #F9EBE1",
"@X c #F2EEED",
"#X c #FFFFE7",
"$X c #F8F0EA",
"%X c #FAF8F2",
"&X c #FFFFFE",
/* pixels */
", , < Z S D H H 9.$.[ [ [ [ [ { ^ ^ ^ ) { { $.9.H H D S Z < , , ",
"< < V I U S.K.K.j.| ' ' ' ' ' ' ' ' ' ' ' '  .J.L.F.D.T I V < , ",
"I I U T T e.%.%.=.m.M.M.B.B.B.M.M.M.M.M.B.B.m.*.%.%.e.T T T I Z ",
"I I I L P O.' ' X.W.(./.(._./././././.(.^.^.R...] ] q.P I I I Z ",
"S S S B o.f.B.B.l.i.y.t.R..Xz.t.t.t.t.t.y.t.u.M.N.N.f.o.B S S Z ",
"S.S.S.e.' c.(./.R.z f +.U.$Xi.h f / j j j j +.R._./.c.` w.S.S.S.",
"K.J.&.a.N.d.t.t.t.h t._.P.i.+.h f j f j j j j t.z..X).M.r.c H.L.",
"D.j.| -./.s.h j j j k.$Xx.h j h j j j f j j j j p.%X X/.v w h.F.",
"G 8.` -.(.s.f h @.^.R.p.@.j j f h f f h j h j h p.%X X/.v w K A ",
"K.j. .-.^.p.h f #..X_.j h f j j h j h j h f j h p.@X{.~.v e h.G ",
"&.=.M.l.t.+.f h #.+X_.j j h h j j j h h j f j j +.i.y.t.k.z.c k ",
"} X.W.x.j f h h #.+X_.z h f j j h d s d j h j g s h j z P.E.u q ",
"} X.W.P.h h j f @.+X_.j j h j h j 8 + 2 f f y @ $ h j j P.E.u q ",
"} X.W.x.j h h f #. X/.j h h j h j 3 . $ f j t o + g j z I.E.u i ",
"} X.W.x.j j j h z y.t.h j j j j d 3 . 1 f j t o + g h j I.E.u i ",
")  .W.x.j j j j g h h h j h h j j 3 . 1 f j t o + g h z I.E.a e ",
"s j E.x.j f j h h f j h j h f j d 3   * j j t o + d j z I.E.p q ",
"e a ~.x.j j h f h j h f f j h j f 3 X 1 f j t O @ g j j I.R.p q ",
"i a ~.P.j j f j j h f j h h d h f y 8 q h h g 8 r j d z P.E.p q ",
"e a E.P.j h j f f / / f / / / / / / / f / / / j d j j j P.R.e 9 ",
"q a ~.I.f h f f ( >.>.,.>.,.,.,.,.,.,.>.,.,.>.f h j f j P.T.5 5 ",
"i l R.x.+.j h f _ 2.3.3.3.3.4.5.5.5.5.3.3.3.2._ f j j +.P.Y.; ; ",
"h.g.x r.U.u.f ;.1.3.3.3.3.4.!.|.}.}.}.V.3.3.3.,.;.f i.U.B n J 0.",
"F.h.0 v /.d.( >.3.3.3.3.4.6.].&X&X&X%XQ.5.5.5.3.>.( k./.m = 0.F.",
"R K 0 b /.v.,.2.3.3.3.3.V.XX%X&X&X&X&X#X|.|.'.5.2.,.v._.m % D A ",
"K.h.i b ~.b.3.3.3.3.3.3.Q.&X&X&X&X&X&X&X&X&XXX7.5.3.v.T.m ; D.G ",
"K.K.h.W l ] 3.3.3.3.3.3.Q.&X&X&X&X&X&X&X&X&X&XXX!.4.~ : J Y R A ",
"D.F.D.Q p ` <.<.<.3.4.6.!.&X&X&X&X&X&X&X&X&X&X@X`.<.! & J F.A.A ",
"C.C.C.Y K 7 * * 4 <.n.|.#X&X&X&X&X&X&X&X&X&XOXM : 6 m F A.G.A.H ",
"S.S.S.S.S.M & % - :.b.oXOXOXOXOXOXOXOXOXOXOX[.: = = N F.D.D.D.S.",
"L U U T U E 0.C J * - > > > > > > > > > > > > C 9.8.Z.T U U I I ",
"< V L U T Z.K.G R = # # # # # # # # # # # # = C D.K.Z.T T I V < "
};
