/* XPM */
static char *result[] = {
/* columns rows colors chars-per-pixel */
"32 32 190 2 ",
"   c #0C0501",
".  c #2D1103",
"X  c #431A03",
"o  c #5D2806",
"O  c #5F361A",
"+  c #693F25",
"@  c #6D4329",
"#  c #73472F",
"$  c #7D5B25",
"%  c #7F604D",
"&  c #6E5967",
"*  c #735B69",
"=  c #984509",
"-  c #805F15",
";  c #A6520B",
":  c #B6530F",
">  c #BB5C0E",
",  c #826319",
"<  c #917615",
"1  c #B9600E",
"2  c #884320",
"3  c #855B3E",
"4  c #8A6832",
"5  c #EB5713",
"6  c #EB5B19",
"7  c #F35B15",
"8  c #F85B13",
"9  c #F55D18",
"0  c #D96B12",
"q  c #E56B15",
"w  c #E86E19",
"e  c #FA6118",
"r  c #F27216",
"t  c #FE7616",
"y  c #F67E16",
"u  c #FD7B16",
"i  c #FE7718",
"p  c #FF7818",
"a  c #D25D2E",
"s  c #F16221",
"d  c #FE6622",
"f  c #F76C2E",
"g  c #FE6E2D",
"h  c #FF7D23",
"j  c #F06D35",
"k  c #FC6F33",
"l  c #EA703E",
"z  c #846148",
"x  c #9D6C40",
"c  c #846452",
"v  c #956858",
"b  c #9D7357",
"n  c #AC775A",
"m  c #805F6D",
"M  c #8E6965",
"N  c #946D6B",
"B  c #9C7368",
"V  c #8A6370",
"C  c #8C6A73",
"Z  c #936672",
"A  c #956C76",
"S  c #9D767C",
"D  c #9E7A7E",
"F  c #A57A6C",
"G  c #B37569",
"H  c #A66D77",
"J  c #A56D79",
"K  c #AB6F7A",
"L  c #A77977",
"P  c #A57C74",
"I  c #AD707B",
"U  c #B27F7D",
"Y  c #FD7B43",
"T  c #CA7E68",
"R  c #B9A613",
"E  c #DB9D1A",
"W  c #FF8217",
"Q  c #FF8B16",
"!  c #E19E1A",
"~  c #FF9614",
"^  c #F6A409",
"/  c #FDB309",
"(  c #FFBF0B",
")  c #E6A41E",
"_  c #ECA51D",
"`  c #F3AC1A",
"'  c #FDB416",
"]  c #DB9B2C",
"[  c #DB9A3C",
"{  c #FF822C",
"}  c #FF8532",
"|  c #FF8837",
" . c #CAB921",
".. c #ECAA2E",
"X. c #FEB624",
"o. c #EBA937",
"O. c #F0AE3C",
"+. c #FEB931",
"@. c #DBD104",
"#. c #FFCB09",
"$. c #FFD607",
"%. c #FDDE04",
"&. c #FFE503",
"*. c #F2EB02",
"=. c #FFE209",
"-. c #F0E90E",
";. c #FFF501",
":. c #FFFA01",
">. c #FFFB0B",
",. c #FFFA14",
"<. c #FFFB1E",
"1. c #FFFA21",
"2. c #FFFB29",
"3. c #FFFB34",
"4. c #9A8176",
"5. c #B08267",
"6. c #AE8471",
"7. c #B2847C",
"8. c #D59645",
"9. c #D29358",
"0. c #FF844E",
"q. c #FF9045",
"w. c #FF934C",
"e. c #FA8B54",
"r. c #FF9550",
"t. c #FF9A57",
"y. c #FF9E5D",
"u. c #EAAB42",
"i. c #FEBB43",
"p. c #F2B24E",
"a. c #EFB35A",
"s. c #DA8366",
"d. c #CD9060",
"f. c #C38376",
"g. c #CD8B7B",
"h. c #C9977C",
"j. c #D19273",
"k. c #FFA264",
"l. c #FFA66D",
"z. c #FFAD6C",
"x. c #F8B467",
"c. c #FFA675",
"v. c #FFA871",
"b. c #FFBD7A",
"n. c #FFDB5F",
"m. c #FEFB4E",
"M. c #F5E758",
"N. c #FFFC57",
"B. c #FFC169",
"V. c #FFD96C",
"C. c #FCC276",
"Z. c #FEC47D",
"A. c #FFE064",
"S. c #FFFC73",
"D. c #A27E80",
"F. c #B67E82",
"G. c #A98887",
"H. c #BA8385",
"J. c #B68888",
"K. c #BA8B8B",
"L. c #AC9292",
"P. c #CB8D81",
"I. c #C99785",
"U. c #C4948E",
"Y. c #C49590",
"T. c #FFB382",
"R. c #F7B58F",
"E. c #FFB98C",
"W. c #FFC780",
"Q. c #FFC882",
"!. c #FFC595",
"~. c #FFC19B",
"^. c #FFCD9C",
"/. c #FFFC88",
"(. c #FFFD98",
"). c #FFC6A2",
"_. c #F9C9A4",
"`. c #FFCDAA",
"'. c #FFD0AC",
"]. c #FFFDA9",
"[. c #FFFEBF",
"{. c #E3DEDB",
"}. c #FFFEC7",
"|. c #F0EDDE",
" X c #FFFED2",
".X c #F0EDEC",
"XX c #FFFFEC",
"oX c #F4F2F2",
"OX c #FFFFF4",
"+X c #FFFFFE",
/* pixels */
"& & * V Z A D D 6.] ..) ) ) ) ! E E E ) ) ) ] 5.D D A Z V * * * ",
"* * m J K H.U.U.h.` / / / / / / / / / / / / ' j.U.Y.H.I K * * & ",
"J J K I K 9.....O.C.Q.Q.Z.Z.Q.Q.Q.Z.Z.Z.Q.Q.Z.u.....9.I I K J V ",
"J J J J J 8.' / X.^.`.'.'.'.'.'.'.'.'.'.'.'.^.+./ / [ F J J J V ",
"C Z Z n ] a.Z.Q.W.y.r.r.r.r.r.w.r.r.r.r.r.r.t.Z.Q.Q.a.] n Z Z Z ",
"H.H.H.d./ x.'.'.~.| p p p p i p p p p p p u { !.'.'.B.' 9.7.H.H.",
"Y.I.o.p.Q.z.r.w.q.h p p p p p p p p p p p p p w.r.r.z.W.e.j g.Y.",
"J.h.` i.'.v.p u p p p p i p p p p p p p p p p p i p k.`.0.8 f.K.",
"S 6.` i.`.z.p p p p p p p p p p p p p p p i p p p p k.`.0.8 G C ",
"U.h.` i.`.l.p p p p p p p p p p p p p p p p p p p p k.).0.e j.J ",
"o.O.Z.b.w.| p p p p p p p p i i p p i p p p p p p p { w.c.T.l a ",
"..X.^.E.h p p p p p p p p p p i p p p p p p i p p p i p T.).g 5 ",
") ' ^.E.h p p p p p p p p p i i p p p p p p p p p p p p T.).g 5 ",
"_ X.!.E.h p p p p p p p p t i i p p p p i p p p p p p p T.).g 9 ",
"_ X.^.E.h p p p p p p p r 0 r t t q q t p p p p p p p p T.).g 9 ",
"! X.^.E.h p p p p p p p ; . > t r o o q p p p p p p p p T.).g 9 ",
"w h ~.E.{ p p p p p p p =   : t r X X q p p p p p p p p T.).g 5 ",
"e d ~.E.p p p p p p p p =   : y r X X q p p p p p p p p T.).g 5 ",
"s d ~.E.{ p p p p p y p =   : t r X X q p p p p p p p i E.).g 5 ",
"6 d ~.E.p p p p p W W W 0 ; q y y 1 1 y W W W p p p p p b.).f 5 ",
"6 d ~.E.h p p p W #.&.%.%.-.%.%.%.%.%.%.%.%.$.Q p p p p T._.3 2 ",
"j f R.T.} h p p ~ &.:.:.:.:.,.1.1.<.1.,.;.:.;.~ W p p { T.R.3 # ",
"g.s.k e.E.y.p ( &.;.:.:.:.:.(. X X X XS.>.:.:.&.#.W t.E.5.z H 7.",
"K.f.9 0.`.v.Q $.:.:.:.:.>.1.[.+X+X+X+X].2.1.1.>.&.Q k.).n + P J.",
"D.L 7 Y `.V.=.;.:.:.:.:.S. XOX+X+X+X+XXX X X}.3.;.&.n.'.v @ M C ",
"U.P.s Y R.A.>.>.:.:.:.:./.OX+X+X+X+X+X+X+X+XOXN.<.:.n._.b # 7.S ",
"Y.U.g.s.k ' ;.:.:.:.:.:./.OX+X+X+X+X+X+X+X+X+X X].,. .3 b P D C ",
"J.J.J.T 9 ^ *.*.*.:.>.<.(.+X+X+X+X+X+X+X+X+X+XoX}.-.R + B L.G.C ",
"D.D.D.L G x , - < *.m.}.XX+X+X+X+X+X+X+X+X+XoX4.4 $ z B G.L.G.D.",
"H.H.H.H.K.v + + $ @.M.|..X.X.X.X.X.X.X.X.X.X{.% @ @ v H.J.K.H.H.",
"J K K I K U H.N F 4 $ % % % % % % % % % % % c M P 7.I I K K K J ",
"* m J I K F.U.S L # O O O O O O O O O O O O @ M J.K.F.F.K J m * "
};
