/* XPM */
static char *result[] = {
/* columns rows colors chars-per-pixel */
"32 32 188 2 ",
"   c #080401",
".  c #351302",
"X  c #481E04",
"o  c #5E351A",
"O  c #6E3006",
"+  c #61361B",
"@  c #663C24",
"#  c #6A3F27",
"$  c #775517",
"%  c #785719",
"&  c #6C412A",
"*  c #7F4123",
"=  c #795624",
"-  c #764B35",
";  c #795337",
":  c #75543F",
">  c #7A5945",
",  c #6E5967",
"<  c #735B69",
"1  c #833B06",
"2  c #9A460A",
"3  c #A44C0B",
"4  c #8E7216",
"5  c #805D23",
"6  c #80573E",
"7  c #905131",
"8  c #C55B10",
"9  c #DD5416",
"0  c #F6580F",
"q  c #E75715",
"w  c #F35B13",
"e  c #F85811",
"r  c #F45E19",
"t  c #D86513",
"y  c #EA6D14",
"u  c #EE7016",
"i  c #F47217",
"p  c #FE7615",
"a  c #FF7A14",
"s  c #FE7718",
"d  c #FF7818",
"f  c #D45C2A",
"g  c #F26424",
"h  c #FF6723",
"j  c #FF6925",
"k  c #FF6A28",
"l  c #FF7D22",
"z  c #FF7928",
"x  c #ED6A32",
"c  c #FA6E30",
"v  c #926749",
"b  c #8A6A53",
"n  c #956A57",
"m  c #AB7859",
"M  c #805F6D",
"N  c #946C6C",
"B  c #8A6370",
"V  c #8B6A73",
"C  c #936672",
"Z  c #956C76",
"A  c #9A7473",
"S  c #9E777C",
"D  c #9E7A7D",
"F  c #AD776F",
"G  c #A3786C",
"H  c #B2776C",
"J  c #A76E75",
"K  c #A56D79",
"L  c #AB6F7A",
"P  c #A67374",
"I  c #AB7D77",
"U  c #AD707B",
"Y  c #A27C7D",
"T  c #FF7C43",
"R  c #CC7C64",
"E  c #B09915",
"W  c #BFAC1E",
"Q  c #FF8516",
"!  c #FF8C14",
"~  c #E99E11",
"^  c #FF9814",
"/  c #F6AC0C",
"(  c #FFB50C",
")  c #E4A213",
"_  c #EAA515",
"`  c #EDA817",
"'  c #F4AB14",
"]  c #F9B21A",
"[  c #DC9B3E",
"{  c #FF832D",
"}  c #E29E21",
"|  c #FF8939",
" . c #E4A324",
".. c #EFAB26",
"X. c #F0AC25",
"o. c #FFB228",
"O. c #FFB82A",
"+. c #ECA931",
"@. c #F1AF3A",
"#. c #F3B13B",
"$. c #DED506",
"%. c #FFCA09",
"&. c #FFDB05",
"*. c #EDE606",
"=. c #FFE604",
"-. c #F2EC03",
";. c #FFEB02",
":. c #FFF401",
">. c #FFFB01",
",. c #FEFA0C",
"<. c #FFFB16",
"1. c #FFFB21",
"2. c #FFFB2A",
"3. c #FFFB35",
"4. c #AA816E",
"5. c #B1866D",
"6. c #A88071",
"7. c #AC817D",
"8. c #D99942",
"9. c #D39357",
"0. c #FF8F45",
"q. c #F5844D",
"w. c #FE804A",
"e. c #FF8954",
"r. c #FF9956",
"t. c #FFBD4B",
"y. c #F4B658",
"u. c #D98366",
"i. c #C28478",
"p. c #D08A78",
"a. c #C99678",
"s. c #D19C76",
"d. c #FF9F62",
"f. c #FFA063",
"g. c #FFA46B",
"h. c #FFAD6A",
"j. c #FAB86F",
"k. c #FFAC7D",
"l. c #FFE258",
"z. c #FFFC59",
"x. c #FFC26A",
"c. c #FFDF65",
"v. c #ECE561",
"b. c #A27E80",
"n. c #B87E82",
"m. c #A98988",
"M. c #B58484",
"N. c #BA8385",
"B. c #B98A82",
"V. c #BB8689",
"C. c #BA8B8B",
"Z. c #B6908E",
"A. c #AC9292",
"S. c #CA8F83",
"D. c #C99784",
"F. c #C5958C",
"G. c #C49591",
"H. c #DFB595",
"J. c #F5B185",
"K. c #FFB585",
"L. c #FFB98A",
"P. c #F7B794",
"I. c #FEC484",
"U. c #FFC78B",
"Y. c #FFC98C",
"T. c #FFC197",
"R. c #FFC39D",
"E. c #FFCA9C",
"W. c #FFFC85",
"Q. c #FFFD9C",
"!. c #EFC2A1",
"~. c #FFC6A2",
"^. c #FFCDA4",
"/. c #FECEAC",
"(. c #FFD0AE",
"). c #FFD0B0",
"_. c #FFFDA7",
"`. c #EDE7B0",
"'. c #FFFDB0",
"]. c #DAD3CE",
"[. c #FFFEC8",
"{. c #FFFED8",
"}. c #EBE7E4",
"|. c #EEEBEA",
" X c #FFFEE2",
".X c #FFFEE8",
"XX c #FFFFF4",
"oX c #FFFFFF",
/* pixels */
", , < B C Z D D 4. .` ` ` ` _ ) ) ) ) _ _ `  .6.b.D Z C C , , , ",
"< < M K L N.F.F.s.' ( ( ( ( ( ( ( ( ( ( ( ( ] a.F.F.7.U L M < , ",
"K K L U U 9.X.X.t.K.Y.U.Y.Y.Y.Y.Y.Y.Y.Y.Y.Y.I.@.....9.U L L L B ",
"K K K J F [ ( ( O.E./.^.(.^.(.(.^.(.(.^.^.(.E.O.( ( 8.J J K K B ",
"C C N m ~ j.Y.Y.I.r.0.0.0.0.0.0.0.0.0.0.0.0.r.I.Y.Y.y.} m C C C ",
"n.S.7.9.( x././.T.{ p p s s a a a a s s p p { R././.x.] 9.n.N.n.",
"G.D.+.y.Y.h.0.0.| l d d d d d d d d d d s d l | 0.0.h.U.q.x S.G.",
"V.a.' t.).f.p p s d a d d p d d d s p d a s s s s a g.).T w i.C.",
"S 5.' t.(.g.p a s s d d 3 2 t d y 2 2 s s s d d s s g./.T e I V ",
"D.s.] t.^.f.p a d d d s 1   8 d y . X i d a d s d s g.^.T g p.P ",
"+.#.U.k.0.{ d d d d d p 1   8 s y . X i d s d d d d { 0.k.K.x f ",
"' O.^.K.d d d d d d d i 2   8 s y . X i d d d d d s s d L.R.h q ",
"' O.^.K.d a d d a d s s 3 X t s u O O i a s s s d d s l L.R.h q ",
"' O.^.K.d d d d d d d s i i p d d i i d d d d d d s s l L.~.j r ",
"' O.^.K.d d d d d d d a d d d d d d d d s d d s a s s d L.R.j r ",
"~ o.^.K.d d d d d d d s d d d d d d d d d d d d d s s l L.~.j r ",
"y z ~.K.d s d d d s s a d d d a a d d d d d d d d d d d L.~.h q ",
"r k ~.K.d d d s d d d d d d d d d d d d d d d s d d d l L.~.h q ",
"r k ~.L.d d d d d s d s s s d d s s d s d d d d s d d l L.~.h q ",
"w k ~.L.d d d s d Q Q Q Q Q Q Q Q Q Q Q Q Q Q d d d s d L.P.g 9 ",
"w k ~.L.d s d s Q &.=.=.=.=.=.=.=.=.=.=.=.=.&.Q s s s d L.!.7 * ",
"g c P.K.{ l d Q ^ :.>.>.>.>.1.2.2.2.3.2.>.>.;.^ Q s l | J.H.: - ",
"S.u.c e.T.d.a %.:.>.>.>.,.,.'..X{. X{.z.>.>.>.;.%.d d.R.m 6 I B.",
"C.i.e T /.h.! =.>.>.>.>.<.3.[.oXoXoXoX_.2.2.2.>.&.! h./.v @ 7.C.",
"D H 0 w.(.c.=.>.>.>.>.>.W..XXXoXoXoXoXXX{. X[.2.:.;.c./.b @ A B ",
"F.S.g T R.l.>.>.>.>.>.>.Q.oXoXoXoXoXoXoXoXoX.Xz.1.,.c.!.b - B.S ",
"G.G.S.u.j ( >.>.>.>.>.>.Q.oXoXoXoXoXoXoXoXoXoX.X'.,.W - G 7.D V ",
"M.C.V.R w / *.*.*.>.<.3._.oXoXoXoXoXoXoXoXoXoX|.`.*.E # G Z.m.V ",
"b.b.b.Y F v $ $ 4 -.z..XXXoXoXoXoXoXoXoXoXoX}.b ; % v D m.A.m.D ",
"N.N.N.N.N.n @ @ 5 $.v.|.}.}.}.}.}.}.}.}.}.}.].> & & n V.V.V.V.V.",
"K L L L L M.B.A G = = : : : : : : : : : : : > N 6.B.M.U U U K K ",
"< M K U L n.F.S P # o + + o o o o + + + + + & A m.G.n.L U K M < "
};
