/* XPM */
static char *ae3a086b5f754e41e857c2b038382d06Vnd85AwnlRp6JmVa[] = {
/* columns rows colors chars-per-pixel */
"32 32 208 2 ",
"   c #1D0F04",
".  c #1E191B",
"X  c #3F2005",
"o  c #1D2730",
"O  c #562909",
"+  c #5D3417",
"@  c #6F340A",
"#  c #553C2B",
"$  c #683D24",
"%  c #524C15",
"&  c #6C6E00",
"*  c #4D413B",
"=  c #534339",
"-  c #784F33",
";  c #785737",
":  c #1F3344",
">  c #6E5967",
",  c #725B69",
"<  c #9A470E",
"1  c #CF5308",
"2  c #FE5603",
"3  c #FC5B06",
"4  c #F95E11",
"5  c #D9721C",
"6  c #FF6A05",
"7  c #FF6A0E",
"8  c #F67D07",
"9  c #FF7A01",
"0  c #F6790C",
"q  c #FB7B0A",
"w  c #E66A17",
"e  c #E26D1C",
"r  c #F96712",
"t  c #E87618",
"y  c #FF7716",
"u  c #F47C13",
"i  c #FE7A16",
"p  c #F3751B",
"a  c #FF7718",
"s  c #F47E1A",
"d  c #FF7818",
"f  c #C76E2B",
"g  c #DB772A",
"h  c #C1713A",
"j  c #D77739",
"k  c #E5662C",
"l  c #EA7E25",
"z  c #E2792A",
"x  c #FF7D22",
"c  c #E96D36",
"v  c #865A47",
"b  c #9B6853",
"n  c #A66746",
"m  c #AF6B55",
"M  c #AB6C5A",
"N  c #B8735C",
"B  c #805F6D",
"V  c #87636F",
"C  c #9D7463",
"Z  c #8A6370",
"A  c #8C6A73",
"S  c #936672",
"D  c #946C75",
"F  c #9F7773",
"G  c #9D767B",
"H  c #9E7A7E",
"J  c #A37266",
"K  c #B0726D",
"L  c #B6736D",
"P  c #A56D79",
"I  c #AA6E7A",
"U  c #AB7D73",
"Y  c #AE707A",
"T  c #A37D7D",
"R  c #CD7646",
"E  c #C57550",
"W  c #D67C5A",
"Q  c #CC7B63",
"!  c #FF8400",
"~  c #FE8D02",
"^  c #FE9203",
"/  c #FE9C02",
"(  c #F7950D",
")  c #FD9B0C",
"_  c #E78012",
"`  c #F38714",
"'  c #FF8415",
"]  c #FF8B14",
"[  c #FE9412",
"{  c #F89D14",
"}  c #FEA401",
"|  c #FFAC00",
" . c #FCA60A",
".. c #F6AD0C",
"X. c #FCAE0B",
"o. c #FEB202",
"O. c #FEBE05",
"+. c #FCB10B",
"@. c #F9BF0B",
"#. c #E8A21F",
"$. c #F9A914",
"%. c #F1AC1C",
"&. c #EDBA1A",
"*. c #F8B716",
"=. c #D99B27",
"-. c #D89829",
";. c #EB822C",
":. c #FF832B",
">. c #E29C23",
",. c #E49E29",
"<. c #FF9B2A",
"1. c #E78133",
"2. c #E98539",
"3. c #FF8631",
"4. c #FF8C3A",
"5. c #E79D37",
"6. c #DFA12E",
"7. c #DFB32F",
"8. c #D6A538",
"9. c #EAA525",
"0. c #E6A32C",
"q. c #E7B628",
"w. c #E4A432",
"e. c #EBA933",
"r. c #E2AE38",
"t. c #E5B532",
"y. c #E7B636",
"u. c #D6CC07",
"i. c #E4CE01",
"p. c #FEC304",
"a. c #FECA04",
"s. c #FDCA09",
"d. c #FCD903",
"f. c #F5C316",
"g. c #EAE900",
"h. c #FDE903",
"j. c #FFF201",
"k. c #FFFE01",
"l. c #FFF70D",
"z. c #DBD225",
"x. c #EFEB2B",
"c. c #FFFD29",
"v. c #B88856",
"b. c #9F8574",
"n. c #B68A69",
"m. c #BE9264",
"M. c #A98279",
"N. c #A18879",
"B. c #B7837C",
"V. c #BC8B7C",
"C. c #CB8B4C",
"Z. c #C89749",
"A. c #C38256",
"S. c #D78857",
"D. c #C79557",
"F. c #D69A55",
"G. c #E28848",
"H. c #FF9E59",
"J. c #DCA649",
"K. c #DAA456",
"L. c #E1A64A",
"P. c #E3B345",
"I. c #E1A651",
"U. c #FFA05D",
"Y. c #CC8767",
"T. c #D68864",
"R. c #C8966A",
"E. c #C68C79",
"W. c #C39273",
"Q. c #CD997A",
"!. c #D9A160",
"~. c #FFA464",
"^. c #FFAB6D",
"/. c #FFAE75",
"(. c #FFB976",
"). c #FFDC54",
"_. c #FFFF49",
"`. c #FFFD67",
"'. c #FFFF71",
"]. c #A27D80",
"[. c #AD7980",
"{. c #B67E83",
"}. c #A88683",
"|. c #B48686",
" X c #B98285",
".X c #BA8786",
"XX c #BB8983",
"oX c #BA8C8A",
"OX c #C18F89",
"+X c #CA9484",
"@X c #C89886",
"#X c #C4938D",
"$X c #C49591",
"%X c #C69890",
"&X c #C3B49F",
"*X c #FFBF91",
"=X c #FFC297",
"-X c #FFCCA5",
";X c #FFCDAB",
":X c #FFFFA6",
">X c #FFFFB1",
",X c #FFDDC5",
"<X c #FFE9D9",
"1X c #FFFED7",
"2X c #EDE8E5",
"3X c #FEF8E9",
"4X c #FFFBF4",
"5X c #FFFFFE",
/* pixels */
"> > > Z S D [.].H H H ].H H H V n 8 n B S D ].T ].G D S Z , > , ",
"f f f j j Y $X$X$X$XoXoXoXOXXXh 5 9 n P Y {.$XS.G.#X{.Y I B , > ",
"u q 9 9 0 Q #X#X$X#X+X+X+X+XY.0 9 9 R L L B.#X;.u +X XI I P I Z ",
"J R 9 9 q u 2.oXoXE.l u s i u 9 9 9 0 p u j oXl u V.[.P P P I V ",
"S M g u 9 9 g A K R ! 9 9 9 9 9 9 9 9 9 9 g U g p U ].S S S S S ",
" X{.{.z 9 9 1.G 1.9 9 9 9 9 9 9 9 9 9 9 9 2.OXz u +X#X.X X X X X",
"$X$X$X1.9 9 g D z 9 9 9 9 ^ } } / } ! 9 9 u ;.0 u +X$X$X$X$X$X$X",
"oXoXoXG.` 9 ;.J l 9 ! ! ! $.%.%.%.%.( ! ! 9 9 9 0 Y.XXoXoXoXoXoX",
"].].}.}.V.u 9 8 9 ! } o.| D.U A F M.0.o.| / 9 9 9 q j T ].].T Z ",
"oX$X%XT.2.q 9 9 ~ ) L.J.L.L.P.8.J.P.L.I.I.,./ ! 9 9 s G.Q.$X$XG ",
"%X#X#X;.9 9 9 9 } %.Q.E.@Xt.p.p.a.a.K.%X@XK.*.~ 9 9 9 9 S.XX].A ",
"|.Y.s q 9 9 ~ | F.R.q.f.f.{ ' ' ] ] %.f.f.r.n.0.} 9 9 9 u 1.B.A ",
"].E 9 9 9 ~ ( -.Z.Z...*.).<.a a y y ) X.X.9.D.-.=.~ ! 9 9 s M.T ",
" XS.9 9 ! | e.T q.p.' ^.4X^.a d y y d i a ) a.v.W.+./ 9 9 ` +X$X",
"g p 9 ^ ) F.K.q.$.<.-X=X~.3.a d a d d d y ' [ 9.y.!.5.} ! s +X$X",
"q 9 ! ( #.v.J.O.] 3.,X*Xa a a a d d d d i y i X.*.R.F.%.^ ` Y.E.",
"9 ~ | D.n.&...' d d :.x d d d d d d d i 7 y y i ] @.8.J >.} 8 f ",
"9 ^ o.!.@Xf.X.d d a y y d d d d d a y :.*XH.y y ' p.r.I >.| ! f ",
"9 ^ +.K.Q.s. .d p p y y a p p d d a y 4.3X;Xd a ' O.r.L 0.| ! g ",
"} 9.W.y.&.[ ' a - * z d a - * t d y y 4.3X-Xy a i ] { &.C.N / -.",
"o.6.].7.p.' a a # o e d i * : e d d a 3.;X=XH.3.a a ) a.v.M ..=.",
"o.e.#Xy.p.i a a O   e d i = : e d d d a d /.4XU.y a ) s.D.W...0.",
"o.e.%Xy.p.' i i O   w [ s.% . e a d a a y /.5XU.y a q ! T.Q...e.",
"o.e.oXt.p.' a i @ X t +.k.& X _ ] ] ] ] y ~.<XH.y d 7 3 Q W.+.0.",
"o.6.}.t.p.' a a w t h.j.k.g.g.h.j.j.j.d.' x 3.x d d 7 2 N M.X.=.",
"o.e.%X5.^ i d d U.(.l.c.'.'.'.'._.k._.`.*.+.X.] a d 7 2 T.Q.+.=.",
"o.e.@Xc 3 a d i ;X1Xc.`.4X5X5X5X:Xl.>X1Xc.k.k. .i d 7 3 T.m...-.",
"R.F.%.C.Q 4 ~ h.c._.:X1X5X5X5X5X4X>X`.c.k.k.k.h.a.6 c Q 5.e.D.C ",
"].v.9.Z.A.k _ a.i.z.3X5X5X5X5X5X5X5X:Xc._.x.u.d.p.w j R.8.w.}.T ",
" X XXX5.$.Q.W 6 < ; 2X5X5X5X5X5X5X5X4X4X5X&X$ 1 r E.F.o.R.OX X X",
"P I Y E C.OXE.E M C b.N.N.N.N.N.N.N.N.N.N.F b m Q #XW.C.L I I P ",
", B P I Y {.$XP |.XX$ + + + + + + + + + + v #XG  X#X XY Y P B , "
};
