/* XPM */
static char *_4969a18cbb94754ef726e866ba22c2b4H0YmJizSjWtYdH8[] = {
/* columns rows colors chars-per-pixel */
"32 32 210 2 ",
"   c #120902",
".  c #0F0F11",
"X  c #0F1B26",
"o  c #5C2F07",
"O  c #6B330A",
"+  c #693E28",
"@  c #585200",
"#  c #786F0B",
"$  c #71492F",
"%  c #734A32",
"&  c #774B34",
"*  c #0B2A44",
"=  c #263542",
"-  c #6D5967",
";  c #755B61",
":  c #795C64",
">  c #735B69",
",  c #9A480F",
"<  c #A3481B",
"1  c #855230",
"2  c #B76A35",
"3  c #FE5803",
"4  c #F45C12",
"5  c #F45F19",
"6  c #C96216",
"7  c #D36619",
"8  c #FF7103",
"9  c #FE7A01",
"0  c #F6790D",
"q  c #FA7B0A",
"w  c #FB6A16",
"e  c #EC7714",
"r  c #E9761B",
"t  c #FF7616",
"y  c #F57D12",
"u  c #FF7B16",
"i  c #FF7718",
"p  c #F47A1B",
"a  c #FF7918",
"s  c #CA6A24",
"d  c #D26A21",
"f  c #CF7029",
"g  c #DE7627",
"h  c #D76C3B",
"j  c #C87234",
"k  c #D47837",
"l  c #E17B27",
"z  c #EB7D25",
"x  c #FF7E22",
"c  c #E66D39",
"v  c #E67A3A",
"b  c #815642",
"n  c #83634E",
"m  c #9C6349",
"M  c #8B6855",
"N  c #A86B57",
"B  c #BD775B",
"V  c #805F6D",
"C  c #986767",
"Z  c #97726A",
"A  c #8B6370",
"S  c #8C6A73",
"D  c #936672",
"F  c #956B75",
"G  c #9D767B",
"H  c #9E7A7E",
"J  c #AD776C",
"K  c #BC7163",
"L  c #B77A68",
"P  c #A86D75",
"I  c #A46D78",
"U  c #AB6E7A",
"Y  c #A27A73",
"T  c #A97E77",
"R  c #AE707B",
"E  c #A27C7D",
"W  c #C87547",
"Q  c #D37140",
"!  c #C67C57",
"~  c #A1A200",
"^  c #B9A919",
"/  c #DA910D",
"(  c #FF8202",
")  c #FF8C01",
"_  c #FE9202",
"`  c #FB9508",
"'  c #FA9D0D",
"]  c #FF8315",
"[  c #FF8C13",
"{  c #F9821F",
"}  c #E79113",
"|  c #FF9313",
" . c #F59A15",
".. c #F49C16",
"X. c #D4A807",
"o. c #FDA604",
"O. c #FCAD04",
"+. c #FDA50B",
"@. c #FBAA0B",
"#. c #FEB202",
"$. c #FFBD05",
"%. c #FEB209",
"&. c #FABD0D",
"*. c #ECA617",
"=. c #FEA211",
"-. c #F7A817",
";. c #F5AD15",
":. c #EEBF16",
">. c #F7B815",
",. c #DD9A29",
"<. c #C9963A",
"1. c #D49A38",
"2. c #ED822D",
"3. c #FB8525",
"4. c #E88536",
"5. c #FF8834",
"6. c #DAA62D",
"7. c #DBAA31",
"8. c #E3A22D",
"9. c #E9A52C",
"0. c #E9A82C",
"q. c #F1AD23",
"w. c #EDBB22",
"e. c #FFB528",
"r. c #E6A737",
"t. c #EBA931",
"y. c #E3AC38",
"u. c #E6B436",
"i. c #FFC302",
"p. c #FDC90A",
"a. c #FED707",
"s. c #F7C414",
"d. c #FEE704",
"f. c #FEFC02",
"g. c #FBF60A",
"h. c #FEFD0C",
"j. c #FEF919",
"k. c #FFDA2E",
"l. c #FCFC2C",
"z. c #FFFF37",
"x. c #BB8546",
"c. c #B58C6D",
"v. c #AB8576",
"b. c #BC897C",
"n. c #C8884C",
"m. c #D98749",
"M. c #CC954A",
"N. c #D09942",
"B. c #D79B47",
"V. c #C5835A",
"C. c #D98857",
"Z. c #CB9653",
"A. c #D59858",
"S. c #FF9245",
"D. c #FF9A52",
"F. c #D2A243",
"G. c #DBA546",
"H. c #D8A356",
"J. c #DBA35B",
"K. c #E2A749",
"L. c #FFAA44",
"P. c #CC8666",
"I. c #C4836E",
"U. c #D4896A",
"Y. c #C2926D",
"T. c #CA8874",
"R. c #C89777",
"E. c #CD927D",
"W. c #D09677",
"Q. c #D4A167",
"!. c #FFA668",
"~. c #FFAD73",
"^. c #FFB17A",
"/. c #FFFF4D",
"(. c #FAEF69",
"). c #FEFE75",
"_. c #FFFF7D",
"`. c #A67C80",
"'. c #B67E83",
"]. c #A68583",
"[. c #B58586",
"{. c #B98386",
"}. c #BC8B86",
"|. c #BB8689",
" X c #BB8C8A",
".X c #BF908B",
"XX c #C08F8C",
"oX c #C99286",
"OX c #C4948F",
"+X c #C99888",
"@X c #C49591",
"#X c #FFBB8A",
"$X c #FFBF92",
"%X c #FFC59C",
"&X c #FFD290",
"*X c #FFFF85",
"=X c #FFFE9B",
"-X c #FFCEAC",
";X c #FFD2AA",
":X c #FFFFA0",
">X c #FEFEBD",
",X c #D5CBC4",
"<X c #FFDCC3",
"1X c #FFFFCA",
"2X c #FAE9D5",
"3X c #EEEAE8",
"4X c #F5EDE8",
"5X c #FFFCEB",
"6X c #FFF8F3",
"7X c #FFFFFE",
/* pixels */
"- - > A D F H Y H H H H H k 9 N ; - - A D F `.`.`.G F F C : ; ; ",
"> > V I R {.E.4.U.OXOX}.XXm.9 g 2 ; V I R {..X@X.X.XL k l f f s ",
"I I U R U {.U.9 C.OXE.W.W.4.9 9 e K K K K I.OX@X.X+XP.0 9 9 e e ",
"I I I I I T P.9 m.}.z 0 0 9 9 9 9 0 0 0 0 l T..X.X4.0 9 9 8 W C ",
"D D D D F I B q W T p 9 9 9 9 9 9 9 9 9 9 q k N G l 9 9 e j N D ",
"{.{.[.{.'.OXP.9 m.E.{ 9 9 9 ( ( 9 9 9 9 9 9 9 k  Xz 9 9 v {.{.'.",
"@X@X@X@X@X XV.9 y p 9 9 9 _ o.o.o.o._ 9 9 9 9 f  Xz 9 9 4.@X@X@X",
" X X X X XP.m.9 9 9 ) ) )  .0.0.0.0...) ) ) 9 l ! z 9 z C. X X X",
"`.`.].].b.{ 9 9 9 9 o.@.O.N.v.Z v.v.B.%.O.+.( q q 9 y L E E E S ",
".X.X@XU.2.q 9 9 _ o.G.H.J.K.u.7.u.u.K.J.Q.K.o._ 9 9 q 2.C.OXOXH ",
"OX+XW.2.9 9 9 ( ' q.Q.R.R.y.$.$.$.$.y.W.W.Q.q.=.( ( 9 9 2.I.T S ",
"[.P.0 q 9 9 ) o.B.Y.w.s.s.=.] u ] y -.s.p.w.c.B.o.) 9 9 9 y V.S ",
"E ! 9 9 9 ) } <.<.F.-.+.+.[ a t a a L.(.e.+.F.<.<. ._ 9 9 9 V.H ",
"{.V.9 9 ( @.t.v.y.i.] a a a t a a t ^.4X!.3.$.6.b.t.@.( 9 9 C.oX",
"P W 9 ` +.A.H.w.-.[ a a a a t a i i x D.-X;X3.-.s.J.A.-._ 9 ] { ",
"m j ) ..,.Z.G.%.[ i a a a a a a i i t x $X%X3.[ &.G.H.y...) ( 9 ",
"9 ) #.M.v.s.%.u a a x x a a t a i i i i a x a a a %.:.J x.#.) 9 ",
"9 _ #.J.+Xs.%.u t x $X#Xa a a a i i i i a a a a a %.s.J n.O.) 9 ",
"( ` >.H.Q.s.+.u t x 2X<Xx a a a p d g t a i 7 r a @.>.V.m.*.` ( ",
"o.9.b.K.s.[ u a a 5.2X<Xx a a u d = 1 a a 7 = & a y [ &.6.J ,.O.",
"%.8.E 7.i.] u u D.#X$X~.a a a a s * & y u 7 X + u a ] i.6.D ,.O.",
"#.t.@Xy.#.] a t %X6XS.t a a a a 6 * $ [ u 7   O i u ] i.u.b.8.#.",
"#.t.@X4.8 t t t %X6XS.t a u u u 6 . # a.| 6   O i i ] i.u.OXt.#.",
"#.0. Xc 3 t t t ~.-X5.] ' =.=.+./ @ ~ g.p.} o , a i ] i.u. X0.#.",
"#.6.].h 3 t t u { { u =.g.h.f.h.h.g.g.h.f.d.3.p a i ] $.7.v.,.%.",
"#.t.@Xc 3 t u t @.p.p.k.=X/.h._.:X:X=X=Xl.l.&X!.a i u q 4.+Xt.%.",
"-.y.W.v w w u [ p.f.f.l.1X*Xz.1X7X7X7X7X)./.1X&X| u w 5 v Y.1.*.",
"b.A.;.A.L w ( d.f.f.h.h.j.*X5X7X7X7X7X7X5X>Xl.j.d.) w L A.;.Z.Z ",
"E c.1.M.M.h l O.X.^ (.).).>X7X7X7X7X7X7X7X2X^ X.#.g Q B.F.G.c.`.",
"'.|.'.r.-.+XU.4 < $ ,X3X3X3X3X3X3X3X3X3X3X,X% < 4 U.+X-.r.|.|.[.",
"I I U L L  XoXK L T n n ; b n n n n ; n n M Y C I.oXXXB L U I I ",
"> V I R R '..XG [.OX1 + $ $ + + $ $ $ $ % 1 XXG [.OX'.U R I V > "
};
