/* XPM */
static char *_894c6a8acaf49b499767650f45bbcf6yjejtCmJRrsXjuxC[] = {
/* columns rows colors chars-per-pixel */
"32 32 201 2 ",
"   c #2B0D02",
".  c #543E02",
"X  c #5C3314",
"o  c #652B05",
"O  c #693D1B",
"+  c #7F5105",
"@  c #7F6348",
"#  c #6E5967",
"$  c #725B69",
"%  c #8A3E07",
"&  c #8F4E0B",
"*  c #A7663E",
"=  c #D7540A",
"-  c #FD5A04",
";  c #FB5708",
":  c #DB731A",
">  c #FC650B",
",  c #FF690F",
"<  c #FE7A01",
"1  c #F57A0C",
"2  c #FB7C0A",
"3  c #E46B14",
"4  c #EA6D17",
"5  c #F36517",
"6  c #EE7A18",
"7  c #F67417",
"8  c #FF7615",
"9  c #F47C13",
"0  c #FD7B15",
"q  c #FE7718",
"w  c #F37E1B",
"e  c #FF7818",
"r  c #CA6D26",
"t  c #C46D2E",
"y  c #D97427",
"u  c #C86F30",
"i  c #C27138",
"p  c #D77937",
"a  c #E5672C",
"s  c #EB7E22",
"d  c #E47828",
"f  c #EA6E32",
"g  c #885C4A",
"h  c #996754",
"j  c #AD6A51",
"k  c #AD6C58",
"l  c #B8745C",
"z  c #805F6D",
"x  c #85646E",
"c  c #9D7566",
"v  c #8A6370",
"b  c #8C6A73",
"n  c #936672",
"m  c #956C75",
"M  c #9F7773",
"N  c #9E767B",
"B  c #9E7A7E",
"V  c #AE6D68",
"C  c #A57364",
"Z  c #B6746D",
"A  c #A56D79",
"S  c #AA6E7A",
"D  c #AA7D76",
"F  c #AD707B",
"G  c #A47D7C",
"H  c #B37273",
"J  c #C7744D",
"K  c #D27741",
"L  c #D57B5A",
"P  c #CA7E66",
"I  c #FF8400",
"U  c #FF8D01",
"Y  c #FE880C",
"T  c #FE9303",
"R  c #FF9B01",
"E  c #F8990C",
"W  c #FD9D0E",
"Q  c #E98313",
"!  c #FF8316",
"~  c #FE8B15",
"^  c #F4831A",
"/  c #E29C1F",
"(  c #FE9213",
")  c #F79913",
"_  c #FEA402",
"`  c #FEAB02",
"'  c #FCA20B",
"]  c #F5AE0C",
"[  c #FCAD0B",
"{  c #FEB202",
"}  c #FEBD06",
"|  c #FCB10B",
" . c #EFAC1D",
".. c #F7A716",
"X. c #ECBA1B",
"o. c #F7B618",
"O. c #D1922E",
"+. c #D6992B",
"@. c #DC9F31",
"#. c #EB812C",
"$. c #FF8320",
"%. c #E49E24",
"&. c #E78437",
"*. c #EA9C35",
"=. c #DFB22B",
"-. c #D8A538",
";. c #DFA738",
":. c #E6A323",
">. c #EAA528",
",. c #F2AF20",
"<. c #E3B62D",
"1. c #EAB828",
"2. c #E5A334",
"3. c #E9A836",
"4. c #E7A838",
"5. c #E6B635",
"6. c #DBCF06",
"7. c #FEC304",
"8. c #FDC906",
"9. c #FBC309",
"0. c #E6D103",
"q. c #FBD601",
"w. c #F7C413",
"e. c #F3C219",
"r. c #ECE700",
"t. c #FAE404",
"y. c #FEED01",
"u. c #FFF701",
"i. c #FFFB01",
"p. c #FFF81A",
"a. c #DFD63D",
"s. c #FFF839",
"d. c #B78857",
"f. c #B98966",
"g. c #BA9268",
"h. c #A9857A",
"j. c #B9887C",
"k. c #CA8B4D",
"l. c #DD8342",
"z. c #C8974A",
"x. c #D89D4E",
"c. c #C38654",
"v. c #D78857",
"b. c #C49557",
"n. c #D69553",
"m. c #E0884B",
"M. c #DDAE41",
"N. c #DBA34C",
"B. c #DEA452",
"V. c #D9A25E",
"C. c #E1A74B",
"Z. c #E2B345",
"A. c #CB8869",
"S. c #D68665",
"D. c #C89669",
"F. c #D29266",
"G. c #CA8C76",
"H. c #C08A7B",
"J. c #C59371",
"K. c #CE9C77",
"L. c #CB947D",
"P. c #D9A263",
"I. c #FFA26E",
"U. c #FFFC41",
"Y. c #FFFC54",
"T. c #FFFC59",
"R. c #FFC37D",
"E. c #FFFC6A",
"W. c #FFF779",
"Q. c #A27D80",
"!. c #AD7980",
"~. c #B67E83",
"^. c #A88883",
"/. c #B58686",
"(. c #B98285",
"). c #BA8786",
"_. c #BC8B85",
"`. c #BA8C8B",
"'. c #A69387",
"]. c #A79388",
"[. c #C48F87",
"{. c #C79587",
"}. c #CA9385",
"|. c #C5948D",
" X c #C7988C",
".X c #C49490",
"XX c #C49591",
"oX c #C69790",
"OX c #CDA080",
"+X c #C3B6A6",
"@X c #FFFC86",
"#X c #FFFC91",
"$X c #FFD7BB",
"%X c #FFFDAD",
"&X c #FFFDBE",
"*X c #FFFEC7",
"=X c #FFFEDA",
"-X c #F3EFED",
";X c #FEFDE9",
":X c #FEFEF7",
">X c #FFFFFE",
/* pixels */
"# # # z n Q.Q.Q.B B B Q.B B N x * < h z n m Q.G Q.N m n v $ # # ",
"t t u p K P `.`..X.X`.`.).|.j.i : 2 j S !.)..Xv.m.|.(.F S z $ # ",
"1 1 < < 7 A..X.X|.|.}.}.}.}.A.2 < < J V Z H }.#.q }.(.S S S S v ",
"V K < < < q K `.`.H.w 9 q 9 ^ < < < 1 1 9 p _.#.w j.!.A S A A v ",
"n k y 9 < < p b l k.1 < < < < < < < < < < p G y 6 D B n n n n v ",
"(.(.(.d < < &.M d < < < < < < < < < < < < p [.d w }..X`.(.(.(.(.",
".X.X X#.< < p m #.< < < < R _ _ R _ I < < 9 s 1 w }..X.X.X.X.X.X",
"`.`.`.l.6 < #.l s < I I I .. . . . .T I I I < < 9 A._.`.`.`.`.`.",
"B Q.^.^.j.Y < 1 < I ` ` { c.h.b A h.:.{ { R < < < 1 p Q.Q.Q.Q.b ",
"|..XoXS.&.2 < < U E C.C.C.C.Z.-.;.Z.C.C.C.*.R I < < ^ m.}..X.XN ",
"`.|.}.#.< < < < ' o.K.H.L.1.7.7.8.8.V. X{.B.] T < < < < v.(.Q.b ",
"`.v.9 2 < < U ` x.D.1.e.e.) ~ ! ~ ~ o.e.e.M.J.:.R < < < 9 &.h.b ",
"Q.J < < < U E +.z.z.o.| [ ~ e e e e ' | | >.b.O.%.T I < < w ^.B ",
"/.v.< < I ` 3.h.1.} ! e e e e e e e e e e W 8.d.J.| R < < ^ {..X",
"d 6 < T E x.B.<...~ e e e e e e e e e e q ! ) ,.5.F.*.R I w }.oX",
"< < I E :.f.N.} ~ e e e e e e e e e e e e e e | X.D.N. .T ^ A.H.",
"< U ` b.g.X.] ! e e q e e e e e e e e e e q e e ~ 9.-.c / _ 1 t ",
"< U { P.OXw.[ e e e e e e e q e e e e e e e e e ! 8.;.F :.` I r ",
"< T | V.K.w.' e e e e e q e q e e e e e e e e q ~ 9.4.H %._ I y ",
"_ >.J.5.o.( ! e e e e q 7 7 e e q 7 7 e q e e e 0 ~ .. .k.c.' O.",
"{ ;.G =.} ! e e e e e 4 o % e e 4 o & 8 q q q e q q W 8.d.C ] +.",
"{ 3.|.1.} ! e e e q e 3   o q 0 3   o q q q e e q q W 8.b.f.] *.",
"{ 3. X5.} ! q e e e e 3   o q e 3   o 7 q e e e e e 2 Y F.K.| 3.",
"{ 4._.5.7.! q e e 0 ~ Q . + ~ ~ Q . + ~ q q q e q e , ; P J.| 2.",
"{ -.^.<.} ! q e e Y t.y.r.r.y.y.y.r.r.q.! e q q e e , ; l f.] +.",
"{ 3.|.*.T 0 e e I.R.p.s.@X@X@X@XT.i.E.W.o.| | ~ e e , ; S.K.[ @.",
"{ 3.[.f ; q e $.$X=Xs.@X>X>X>X>X%Xp.&X=Xs.i.u.' e e , ; S.J.] O.",
"D.x. .n.L > T t.s.E.&X;X>X>X>X>X;X*XW.U.i.i.i.t.8., a A.2.2.b.c ",
"h.d.>.z.d.a ^ q.0.a.-X>X>X>X>X>X>X>X#XY.T.U.6.8.} 5 K b.-.;.^.G ",
"(.).j.2...}.v.- & @ -X>X>X>X>X>X>X>X>X:X:X+XX = 5 }.B.[ F._.`.(.",
"S S S J k.(.G.J k c '.'.'.'.'.'.'.'.].'.].h.h j P [.J.k.Z F S A ",
"$ $ S F F ~.|.A /./.O X X X X X X X X X X g .XN /..X~.F F S $ $ "
};
