/* XPM */
static char *_caa0dd9e0a446938f473eb49d4a24acFrv1L5JOHgJrIhGZ[] = {
/* columns rows colors chars-per-pixel */
"32 32 212 2 ",
"   c #170A02",
".  c #3B1703",
"X  c #653C24",
"o  c #6A3E26",
"O  c #6E4328",
"+  c #774D32",
"@  c #7C5D40",
"#  c #6D5967",
"$  c #765B67",
"%  c #725B69",
"&  c #8E4008",
"*  c #964409",
"=  c #AE5010",
"-  c #B76A34",
";  c #C55B10",
":  c #C85D10",
">  c #FF5B04",
",  c #F75E0B",
"<  c #CE6012",
"1  c #DC6714",
"2  c #F7610F",
"3  c #FE7A02",
"4  c #F2760A",
"5  c #F67B0B",
"6  c #FA7C0A",
"7  c #E76C15",
"8  c #F86515",
"9  c #EF7915",
"0  c #EB7718",
"q  c #F67317",
"w  c #FD7616",
"e  c #F37B15",
"r  c #FF7C16",
"t  c #FF7718",
"y  c #F27D1A",
"u  c #FF7818",
"i  c #D5752C",
"p  c #C36D32",
"a  c #D86C34",
"s  c #C87539",
"d  c #D67735",
"f  c #D6733B",
"g  c #E57A22",
"h  c #EF7F21",
"j  c #E66931",
"k  c #E57839",
"l  c #825741",
"z  c #976555",
"x  c #A86641",
"c  c #A46A5C",
"v  c #BB775C",
"b  c #805F6D",
"n  c #996A67",
"m  c #93796B",
"M  c #9B7868",
"N  c #896270",
"B  c #8B6A73",
"V  c #936672",
"C  c #956B76",
"Z  c #9E767B",
"A  c #9E7A7E",
"S  c #A47869",
"D  c #B67867",
"F  c #B5716D",
"G  c #A96D74",
"H  c #A46D78",
"J  c #A96E7A",
"K  c #A67874",
"L  c #AE707A",
"P  c #A47C7C",
"I  c #B67770",
"U  c #C8774B",
"Y  c #C47D56",
"T  c #D87F57",
"R  c #E37541",
"E  c #CB7C66",
"W  c #FF8401",
"Q  c #FE8B01",
"!  c #FE9203",
"~  c #F99A0B",
"^  c #FB9B0A",
"/  c #FF8415",
"(  c #FF8B14",
")  c #F2801E",
"_  c #E8901F",
"`  c #F29612",
"'  c #FE9214",
"]  c #F59B12",
"[  c #FF9813",
"{  c #DEBC08",
"}  c #FFA401",
"|  c #FDAC03",
" . c #F8A309",
".. c #F5AC0C",
"X. c #FDAD0C",
"o. c #E2BC05",
"O. c #FDB204",
"+. c #FDBD04",
"@. c #FBB40C",
"#. c #FBBE0B",
"$. c #EDA81A",
"%. c #FCA414",
"&. c #F6AD16",
"*. c #F4A31C",
"=. c #F1AB1D",
"-. c #EEB919",
";. c #F6B716",
":. c #DA9929",
">. c #C58B3C",
",. c #CA9B38",
"<. c #D89D36",
"1. c #EF8126",
"2. c #EC812B",
"3. c #E88436",
"4. c #E5853D",
"5. c #DFA12D",
"6. c #CCBD24",
"7. c #DEB02E",
"8. c #D9A73A",
"9. c #DFB13E",
"0. c #E2A227",
"q. c #EEAA21",
"w. c #E9A42B",
"e. c #EEAA2B",
"r. c #E8B826",
"t. c #E5A735",
"y. c #E4A43D",
"u. c #E8A53B",
"i. c #E5B334",
"p. c #FCC207",
"a. c #FEC20C",
"s. c #FFCF09",
"d. c #FFD905",
"f. c #F7C416",
"g. c #F3C21A",
"h. c #FFE703",
"j. c #FFEF02",
"k. c #FFF101",
"l. c #FFFA06",
"z. c #FFFB10",
"x. c #FFF424",
"c. c #FFEE31",
"v. c #FFFB39",
"b. c #AC846F",
"n. c #BB8662",
"m. c #B8916D",
"M. c #AA8375",
"N. c #A88179",
"B. c #BC887C",
"V. c #CC8B48",
"C. c #DD8245",
"Z. c #CD9846",
"A. c #CC9C44",
"S. c #D7984A",
"D. c #C9835C",
"F. c #D58552",
"G. c #D38759",
"H. c #DA8C5C",
"J. c #C69057",
"K. c #CB9551",
"L. c #D69955",
"P. c #DAA746",
"I. c #DDA453",
"U. c #DDA657",
"Y. c #E3AA47",
"T. c #E4B442",
"R. c #E0A653",
"E. c #C38868",
"W. c #D78B65",
"Q. c #C8976C",
"!. c #D29D6B",
"~. c #C08578",
"^. c #CD927A",
"/. c #C99579",
"(. c #D19572",
"). c #D6A165",
"_. c #FFA068",
"`. c #FFD547",
"'. c #FFFC48",
"]. c #FFFB58",
"[. c #FCF866",
"{. c #FFFC7C",
"}. c #A37E81",
"|. c #B67E83",
" X c #A68586",
".X c #B58484",
"XX c #BA8385",
"oX c #B78882",
"OX c #BD8B83",
"+X c #BA8D8B",
"@X c #C58C84",
"#X c #C18E8B",
"$X c #CA9484",
"%X c #C99984",
"&X c #C4948E",
"*X c #C89689",
"=X c #C39592",
"-X c #C49591",
";X c #C59792",
":X c #FFC694",
">X c #FFFC87",
",X c #FFFC94",
"<X c #FFFD9E",
"1X c #FFFEB8",
"2X c #D7CFC8",
"3X c #E5DFD4",
"4X c #F9F6CA",
"5X c #FFFBDA",
"6X c #FFFFE1",
"7X c #FFFFE9",
"8X c #FBF9F4",
"9X c #FEFDFC",
/* pixels */
"# # % N V C A A A A A }.K s 9 z # # % N V C A P Z A C N N % # # ",
"% % b J L XX^.C.(.&X#X+X@XC.3 i x % $ J J .X;X;X=X=XB.R f p p - ",
"H H J L J OXH.6 H.&X$X%X$X3.3 3 0 F F I D B.;X;X&X$XD.5 3 3 5 0 ",
"H H H H H L G.6 F.B.2.e e 6 3 3 5 e 0 0 9 k OX+XOXk 5 3 3 3 U z ",
"V V V V C K Y 4 U K e 3 3 3 3 3 3 3 3 3 3 9 U c K g 3 3 7 d c N ",
"XXXXXXXXXX#XG.3 F.^.) 3 3 3 3 3 3 3 3 3 3 3 6 U B.1.3 6 k XXXXXX",
"=X=X;X=X=X#XY 3 ) 1.3 3 3 ! } } ^ } Q 3 3 3 3 s OX1.3 3 C.&X;X=X",
"+X+X+X+X+XE.C.3 3 3 W W Q ] q.=.=.=.~ W W W 3 i Y ) 3 y F.+X+X+X",
"}.}. X XB.1.3 3 3 W } O.X.Z.K m K M.<.O.| } 3 3 5 3 y I N. XN.B ",
"#X=X&XW.3.6 3 3 ! ~ Y.I.R.P.T.8.T.T.Y.R.R.y.^ Q 3 3 6 C.W.+X+X}.",
";X&X^.2.3 3 3 W ^ &.!.~./.i.#.p.p.a.Y././.).&.^ 3 3 3 3 4.B.}.B ",
"oXG.y 6 3 3 Q  .S.Q.r.f.g.%./ ( / ( &.g.f.i.Q.P.| W 3 3 6 h E.B ",
"P U 3 3 3 ! ` :.A.P.=.X.X.( u u u u [ X.X.=.A.>.:.~ Q 3 3 6 D.A ",
"XXF.3 3 W | t.b.i.#.( r r r u u u u r u u ( #.,./.e.| W 3 6 W.&X",
"G U 3 ! ~ L.I.r.] ( r u u u u u u u u u u / ' *.i.U.L. .! 3 ) 3.",
"z p W ] 0.J.P.@.' u u u 1 & : u w 7 & ; u u u ] @.I.L.q.] Q W 5 ",
"5 ! | K.m.-.X.r r u u q =   * r e ;   & u u u r / ;.r.S >.| Q 4 ",
"3 ! O.).%Xf.@.t u u u t ;   * u w ;   & u u u u / @.-.I V.| Q 4 ",
"W ! &.).).f.X.t u u u t < . * u w < . * u u u u r X.-.n.Z...Q 5 ",
" .w.Q.i.;.( / u u u u u q 1 q u u q 1 q u u u u u / ' -.<.v 0. .",
"O.8.M.7.+./ u u u u u u u u u u u u u t u t u u u u ( p.,.n 0...",
"O.u.%Xi.+./ u u u u u u u u t u u u u u u u u u u u ( p.t.B.w.X.",
"| u.*X3.3 t t u u t u u w u u u u u t t t t t u u u ' p.T.%Xe.X.",
"O.t.OXj > w u u u u t / [ [ [ [ [ [ [ [ [ ' u u u u ( p.9.OXw...",
"O.<.N.j > w t t t t u %.j.j.k.k.j.k.k.k.j.s.w w u u ( p.8.P 0...",
"O.t.*Xj > w t u X.p.a.`.,X].z.>X<X<X<X,Xv.c.:X_.w u r ( <.*Xe...",
"X.Y./.j 2 w u ( s.k.l.[.5X>X'.5X9X9X9X7X[.[.5X:X/ u w 2 R E.5.$.",
"E.I.=.L.E 8 ! h.k.l.l.z.v.<X6X9X9X9X9X9X5X1X'.x.d.Q 8 E S.=.K.M ",
"A n.<.Z.V.a _ +.{ 6.[.{.>X4X9X9X9X9X9X9X9X4X6.o.+.g a K.P.8.m.}.",
"XXB.B.t.*.^.T , = @ 3X8X8X8X9X8X9X9X8X9X9X2X+ = 2 W.(.&.S.@X+XXX",
"H H J E Y OX@Xv D M m m m m m m m m m m m M M c E $X@XD.D J H H ",
"$ b H L J |.&XH .XoX+ o o o X X O O O O o l +XZ .X=X|.L L H b % "
};
