/* XPM */
static char *dc0d27d306be471e9d31ed97514aeadaEJrvRzbLVuyMzXni[] = {
/* columns rows colors chars-per-pixel */
"32 32 203 2 ",
"   c #020101",
".  c #0A0605",
"X  c #0C0908",
"o  c #170E03",
"O  c #120D0D",
"+  c #1F1616",
"@  c #240C00",
"#  c #2D1504",
"$  c #3A1B06",
"%  c #241B1C",
"&  c #363003",
"*  c #291F22",
"=  c #2D2222",
"-  c #372629",
";  c #411F06",
":  c #582809",
">  c #662702",
",  c #71370B",
"<  c #493336",
"1  c #565004",
"2  c #6E4E10",
"3  c #606102",
"4  c #523D41",
"5  c #594447",
"6  c #655659",
"7  c #7B575A",
"8  c #6D5967",
"9  c #785A65",
"0  c #735B69",
"q  c #933402",
"w  c #88400D",
"e  c #8F5411",
"r  c #B05311",
"t  c #8B750C",
"y  c #B56916",
"u  c #B67B1B",
"i  c #A34F2C",
"p  c #FD5604",
"a  c #FF5B04",
"s  c #F5570B",
"d  c #F6590B",
"f  c #FB5A0B",
"g  c #E45615",
"h  c #EE5A14",
"j  c #EC5C1C",
"k  c #F45C13",
"l  c #F95C11",
"z  c #F15E1A",
"x  c #CF6113",
"c  c #D96614",
"v  c #F3600B",
"b  c #FF650B",
"n  c #FF6A0E",
"m  c #FA7B0F",
"M  c #E76D15",
"N  c #EA6E16",
"B  c #F96212",
"V  c #FF6C10",
"C  c #F4611B",
"Z  c #F27217",
"A  c #FF7415",
"S  c #FF7817",
"D  c #FD7718",
"F  c #FF7818",
"G  c #D95C28",
"H  c #C75D39",
"J  c #D95F34",
"K  c #E25C24",
"L  c #E35D28",
"P  c #CD6137",
"I  c #D76437",
"U  c #DF703F",
"Y  c #EC6122",
"T  c #E7662A",
"R  c #EC672B",
"E  c #F06626",
"W  c #E76D38",
"Q  c #EA7138",
"!  c #AE5F4C",
"~  c #B8644C",
"^  c #AA665B",
"/  c #B26756",
"(  c #B7715E",
")  c #855E61",
"_  c #8A5E65",
"`  c #815F6D",
"'  c #89636D",
"]  c #96646C",
"[  c #986468",
"{  c #876471",
"}  c #8C6A73",
"|  c #936673",
" . c #946B75",
".. c #9D6C72",
"X. c #977177",
"o. c #9C757B",
"O. c #9E7A7E",
"+. c #A76665",
"@. c #B56C6C",
"#. c #AF786E",
"$. c #B97467",
"%. c #A66C76",
"&. c #AC6C73",
"*. c #A56D78",
"=. c #AB6E7A",
"-. c #A47575",
";. c #AB7973",
":. c #AE707A",
">. c #A27C7E",
",. c #AC7B7C",
"<. c #C35F40",
"1. c #C66C4B",
"2. c #C86849",
"3. c #D86C45",
"4. c #D97048",
"5. c #C66952",
"6. c #C77558",
"7. c #D47453",
"8. c #D37857",
"9. c #DD7A54",
"0. c #DA7D5B",
"q. c #E37344",
"w. c #C87965",
"e. c #C97E6A",
"r. c #C77F71",
"t. c #9A9A04",
"y. c #B8841C",
"u. c #A9A927",
"i. c #C6931C",
"p. c #F4871B",
"a. c #FE841B",
"s. c #FF8B1C",
"d. c #CFBF09",
"f. c #CBA514",
"g. c #FE9C21",
"h. c #FEA122",
"j. c #F0AE24",
"k. c #FEAB24",
"l. c #FEB627",
"z. c #FFBA25",
"x. c #FFB828",
"c. c #F7C61C",
"v. c #FFC51E",
"b. c #FECB1C",
"n. c #FDD218",
"m. c #EBEB06",
"M. c #FFEA0C",
"N. c #FAF206",
"B. c #FFFC02",
"V. c #FFFB0C",
"C. c #FFE011",
"Z. c #FFF814",
"A. c #FEFB1B",
"S. c #FFC221",
"D. c #FEFD21",
"F. c #BC8177",
"G. c #A5A56E",
"H. c #CD8168",
"J. c #D68265",
"K. c #D4856C",
"L. c #C58273",
"P. c #C88676",
"I. c #CC8C7D",
"U. c #D18C77",
"Y. c #FCFC77",
"T. c #AB7781",
"R. c #A27D80",
"E. c #B47B83",
"W. c #A58485",
"Q. c #AD8582",
"!. c #A88A8A",
"~. c #B58485",
"^. c #B98286",
"/. c #B88787",
"(. c #BB8A86",
"). c #B58B89",
"_. c #BA8C8B",
"`. c #B8908E",
"'. c #AA9394",
"]. c #A9A9A0",
"[. c #C38E86",
"{. c #CB8E80",
"}. c #C18F8C",
"|. c #C2928F",
" X c #C4938E",
".X c #C9958A",
"XX c #C49491",
"oX c #C49591",
"OX c #C59792",
"+X c #C69994",
"@X c #FFFF8C",
"#X c #FFFF93",
"$X c #C1C0BF",
"%X c #FFFFA4",
"&X c #FEFEAC",
"*X c #FFFFB1",
"=X c #DFD1D3",
"-X c #EBDCDF",
";X c #FFFFCF",
":X c #FFFFD2",
">X c #DFDEE0",
",X c #FFFFF7",
"<X c #FEFEFD",
/* pixels */
"8 8 8 { |  .O.O.O.O.O.O.O.>.R.9 8 8 9 G s p k h h k / | ' 0 8 8 ",
"0 0 { *.=.^.oXoXoX|.|._._.}._.{ 0 0 { @.I j K.{.I.{.r.@.&._ 9 0 ",
"*.*.=.:.:.^.oXoX|.|. XoXoX X[.X...*.*.:.@.r.oX|.XXXX3.K K h J [ ",
"*.*.*.*.*.T._._.L.W H.(._.4.R G +.&.&.I 2.,._._./._.$.5.<.j p G ",
"| | | |  .o.R.} ( s T 6.W.6.P 2.[ / J p H -.>.! 2.,.*.| | / <.<.",
"^.^.^.^.^.}._.o.H.f R 9..XJ.9.9.8.R b p L 8.|.I h {.XX}.E.}.E.E.",
"oXXX+XoXoX_.R.X.H.f Q J.J.C a b a V A b a k F.P k 0.{.oXXXXX+XoX",
"_._._.`._.(.L...$.d a a b a n D A D D D b f 8.P j C w.^._._._.}.",
"o.R.W.!.'.F.h 1.( d n D D D D D F F F F b a C 1.-.,.>.F.R.W.R.} ",
"XXXXXXOX+XU.f J.K.f V F F F D F F F F D b v K..XXX|. XoX`.`.`.R.",
"XXXXXXXX|.U.l 0.K.f V F F F F F F F F F n k I.|.|.|.|.(.`._.R.} ",
"~._._._._.r.k 8.H.f V F F F D F F F F S n k P._.`._._.)._.`.Q.} ",
"R.R.R.,.R.$.d ~ ( s n F F D F F F F D n b d #.} X.F.6.3.3.4.6.-.",
"^.~.E.7.L.P.f I U B A F F F F F F F A a C 4.;.^ 6.9.q.Q Q Q 9..X",
"*.=.@.k 3.e.l a b D D F F F F F F D A b Q J.e.G d R J. XoXoXoXoX",
"0 9 +.l I 5.l n D D D D F F F D F F A A b p b a C P._._._._._.`.",
"X.o.#.k f b A D F F F F F F F F F F A a a a A b h #.X. .| ) ) ) ",
"`.XXI.B b A D D F F F F F F F F F F A a b A A b C {.~.:.=.H g g ",
"XXXXU.k n A D A D F F D D D D F D D F A A D A b C {.^.:.=.L h ! ",
"^.w.T f n D D e w Z F x , x a.g.h.g.g.a.D A b a z F.E.*.=.L K _ ",
"4.Y p b A D S : $ N F r o y h.z.z.x.l.g.s.A a p h #.o.+.H d K [ ",
"f a b D F F S : $ N s.y o y.l.z.b.v.z.z.g.A b a k 9.0.q.p L 4.F.",
"f b D D F F S w , p.k.i.1 f.b.n.N.M.v.z.h.s.F n a p k E R K.oXXX",
"f n D F D S S D p.z.S.n.N.D.A.V.B.B.M.S.x.k.a.D V p 7.(.(._._._.",
"f d N M M N D g.v.N.Z.Z.D.*X#XV.V.C.z.l.z.k.s.D A p 1.>.>.R.>.} ",
"d q # # # : c g.b.V.@X;X:X,X&XV.n.z.z.l.z.z.k.s.A a 0. XoXoXoXO.",
": @       . ; u c.V.&X,X<X<X%XV.v.z.l.j.l.k.S b C J.I.(.XX).R.} ",
"X             & t m.&X,X<X<X%XV.M.n.j.e 1 2 > i 6._.(._._.`.Q.} ",
"4 = .           & m.&X,X<X<X:XY.A.d.2 o       = 5 O.T.W.!.'.!.R.",
"~.7 - .         & t.G.$X<X<X>X].u.3 . .         % Q.oX}._._./.E.",
"*.=.] - O           + 6 =X-X'.= X             O < )./.T.=.=.=.=.",
"0 9 *.%.< X .     . 7 *.T.T.{ 8 = . . .   . . 4 ,.|.E.:.=.*.` 0 "
};
