/* XPM */
static char *_d41b7024ddd4749a9b6345fadfa6e72WcV4sIjTwSVFUqic[] = {
/* columns rows colors chars-per-pixel */
"32 32 203 2 ",
"   c #010100",
".  c #0A0502",
"X  c #0B0805",
"o  c #160C02",
"O  c #161601",
"+  c #191314",
"@  c #221D07",
"#  c #3E1903",
"$  c #251A1C",
"%  c #2E2B0A",
"&  c #2E2425",
"*  c #36292A",
"=  c #462107",
"-  c #562909",
";  c #5D2C09",
":  c #742F07",
">  c #78390C",
",  c #442F2E",
"<  c #523D3D",
"1  c #494601",
"2  c #614410",
"3  c #7B7A02",
"4  c #684B4D",
"5  c #6F5452",
"6  c #715156",
"7  c #6D5967",
"8  c #735B69",
"9  c #7D5D6C",
"0  c #716C6B",
"q  c #973B03",
"w  c #A7460A",
"e  c #AE5A12",
"r  c #B55511",
"t  c #986A16",
"y  c #A6781A",
"u  c #FC5704",
"i  c #FE5A05",
"p  c #F6570A",
"a  c #FA5A0B",
"s  c #EE5A15",
"d  c #E75D1E",
"f  c #EB5D1B",
"g  c #F55D13",
"h  c #F95E12",
"j  c #F45F19",
"k  c #D56E16",
"l  c #FF6007",
"z  c #FF640B",
"x  c #FF690E",
"c  c #FF730E",
"v  c #E56818",
"b  c #F76213",
"n  c #FE6D12",
"m  c #F3611C",
"M  c #F27217",
"N  c #FF7315",
"B  c #FE7718",
"V  c #F37919",
"C  c #FF7818",
"Z  c #C45521",
"A  c #DD5A24",
"S  c #D75B2B",
"D  c #C95E3A",
"F  c #DA5F32",
"G  c #CF653C",
"H  c #D6633B",
"J  c #D96139",
"K  c #EE6121",
"L  c #E26228",
"P  c #EA652A",
"I  c #ED692D",
"U  c #ED6A2F",
"Y  c #E66D38",
"T  c #895A5D",
"R  c #945E5C",
"E  c #BB6648",
"W  c #AC6556",
"Q  c #A96559",
"!  c #B66A56",
"~  c #B7715E",
"^  c #BD725B",
"/  c #805F6D",
"(  c #905D66",
")  c #88676B",
"_  c #99666E",
"`  c #9D6D6D",
"'  c #8A6370",
"]  c #866872",
"[  c #8C6A74",
"{  c #936672",
"}  c #956B75",
"|  c #9D6975",
" . c #967178",
".. c #9C767B",
"X. c #9D797E",
"o. c #B66862",
"O. c #B66D6D",
"+. c #A9716A",
"@. c #B77665",
"#. c #B3776A",
"$. c #A36B76",
"%. c #AF6C70",
"&. c #A56D78",
"*. c #AA6F7A",
"=. c #A97975",
"-. c #AE707B",
";. c #A27C7E",
":. c #B47675",
">. c #BD7F7E",
",. c #C86447",
"<. c #D16F46",
"1. c #DD6C41",
"2. c #DA7247",
"3. c #DA744C",
"4. c #C66953",
"5. c #C77556",
"6. c #DE7A52",
"7. c #D17759",
"8. c #D97D5C",
"9. c #E47242",
"0. c #E27649",
"q. c #CA7A66",
"w. c #CA7F68",
"e. c #D17A61",
"r. c #C17B73",
"t. c #B39311",
"y. c #CD911C",
"u. c #FF821B",
"i. c #FF8C1A",
"p. c #FF931F",
"a. c #FDB81D",
"s. c #FFA322",
"d. c #FEAD24",
"f. c #FEB526",
"g. c #FFBA26",
"h. c #FFBB28",
"j. c #CCCB04",
"k. c #E1CA0C",
"l. c #FFC51F",
"z. c #FFCA1E",
"x. c #FFDD12",
"c. c #FAE90E",
"v. c #FFEB0C",
"b. c #FEFB05",
"n. c #FCF708",
"m. c #FFF810",
"M. c #D1D126",
"N. c #FFC222",
"B. c #B1867E",
"V. c #BC857E",
"C. c #C7816E",
"Z. c #C9806A",
"A. c #D3866E",
"S. c #C48374",
"D. c #CE8673",
"F. c #C5877A",
"G. c #CD8B7B",
"H. c #D08773",
"J. c #D18974",
"K. c #D18E7B",
"L. c #FFFF4B",
"P. c #FFFE74",
"I. c #A27E80",
"U. c #AC7C81",
"Y. c #B57E81",
"T. c #A58485",
"R. c #AA8585",
"E. c #A78888",
"W. c #AC8B89",
"Q. c #B58486",
"!. c #B98285",
"~. c #B58A86",
"^. c #BB8A85",
"/. c #BB8688",
"(. c #B48A89",
"). c #B88C8B",
"_. c #AD908E",
"`. c #B6908E",
"'. c #BC918E",
"]. c #AB9191",
"[. c #BE9794",
"{. c #AFAAA9",
"}. c #C18B85",
"|. c #CA8F83",
" X c #C4938E",
".X c #C99288",
"XX c #C39491",
"oX c #C49590",
"OX c #C59791",
"+X c #C69993",
"@X c #C99A93",
"#X c #CEA8A5",
"$X c #CCCC8E",
"%X c #FFFF98",
"&X c #CECEB0",
"*X c #FFFFA3",
"=X c #FFFFB2",
"-X c #FFFFBD",
";X c #DCDCDD",
":X c #EFECE9",
">X c #FFFFEB",
",X c #FCF9F5",
"<X c #FFFFFE",
/* pixels */
"7 7 7 ' { ! s s s s s j L =.X.] 7 7 7 ' { } I.;.X.X.} { ' 8 7 7 ",
"8 8 9 U.*.r.e.8.8.6.a P e.^.(.] 7 8 9 *.-.Y.OXOXXXXXY.*.*./ 8 8 ",
"$.,.F F J 7..X X X.X6.A.OX X X .| *.*.-.-.!.XX XOXOX!.*.*.*.&.' ",
",.g s F F 4.).).).).~.C.7.).).` E ,.4.$.$.:.7.F.).(.U.&.&.&.&.' ",
"A A D _ $.&.;.Q +.B.T.<.g 5.=.+.S A D _ Q ,.p Q  .I.I.} { { { ' ",
"r.>.Y.Q.Y. X}.d 1.OXG.Y u a 0.D.q.q.q.Y.1.j p ~ /.XX X/.!.!.Y./.",
"OXOX+XXXXX}.@.s Y |.K i i N n h h a U |.J.6.a W ).XXXXOXXXOX+XoX",
").).).'.).q.j p H F.g l N B N N n a i b j g a ! U././.).).).).).",
"I.I.I.E.].Q.@.~ <.d u z C C C C B N n N n x u ~ @.L #.I.I.I.I.[ ",
" XXXXX+X+XOXOX.XG.6.a x B C C C C C C C C N a A.8.h J.OXOXoXoXX.",
"XXXXXXXXoXXXOXOXXXG.g x C C C C C C C C C n a A.e.a H.). X(.I.[ ",
"Q.`.).).).).(.).(.F.g x C C C B C C C C C x i Z.7.a C.(.).).R.[ ",
"I.@.4.~ ^ #.;.[ ..=.g a N B C C B C C B C x a Q ! a @.E.].].E.I.",
"Y.1.K K K 9.H.#.F.|.U h i N C C C C C C C n i E 2.a K..XG.OXOXOX",
"*.%.O.O.O.7.m g H |.J.Y i B C C C C C C B B N b a a D.e.j G.XXOX",
"8 / | &.$.:.w.s a m b n N B C C C C C B B B B N x a w.3.h F.).).",
" ...;.T.T.B.=.s z x i i l N C B B C C B C C C C N c f s p T 8 9 ",
"U Y 6.OX[.XX.Xm z C x i i N C B C C C C C C C C C B N x p R 8 8 ",
"0.m U  X'.XX|.m z C C N x B B B C C C C C C C C C C C x p O.&.) ",
"V.P P (.).).V.m l x C C C i.p.p.p.u.v w v C V r r C C x u G o.] ",
"T.L s ^ =.;.=.s i i N u.p.f.f.f.g.p.k o e B M = ; C C x a i S W ",
".X9.b a 8.D.w.s i i N p.f.f.g.l.g.g.t.X e u.V # - C C B N i i p ",
"OX|.8.b m m a i z N u.p.g.g.c.v.N.g.y.% y s.V ; : B C C B B z u ",
").).^.S.C.2.i x C u.s.f.a.v.n.b.n.m.c.j.z.f.d.k k B B B B B x u ",
"X.;.T.T._.5.i N C C f.g.g.z.v.b.b.P.%Xn.n.v.c.a.p.C C B B B x u ",
"XXOXOXOX@X8.u N i.s.f.f.f.f.l.x.n.%X>X*X%XP.b.z.s.M > ; ; ; w u ",
"XXXXOXXXXXJ.9.b c i.f.h.h.g.f.l.n.*X<X<X<X=Xb.z.y.: o . . . # : ",
"Q.).).).).^.^.3.Z q t t y f.z.x.n.%X<X<X<X=Xn.t.2 .         . . ",
"I.I.I.I.I.;.X.6 , . . X @ y k.m.L.-X<X<X<X=Xn.1 .           + * ",
"!.!.!.!.). X~.$ .         X 3 M.&X:X<X<X;X$Xj.%           + 4 U.",
"&.*.*.-.*./.~.& X           o @ * {.,X:X0 $ O .       . $ T $.$.",
"7 ' &.-.*.Y. X) <             + [ [.#X#XW.6 .         * ( $.9 8 "
};
