/* XPM */
static char *fb087c50117d4df0bbcd858a7807e86fTj7l2ZS1OrBk6nKe[] = {
/* columns rows colors chars-per-pixel */
"32 32 196 2 ",
"   c #040202",
".  c #090706",
"X  c #0A0B00",
"o  c #0E0A0B",
"O  c #160803",
"+  c #1A1704",
"@  c #1D1315",
"#  c #280D03",
"$  c #231705",
"%  c #261C1C",
"&  c #2C2B0A",
"*  c #262424",
"=  c #2E2822",
"-  c #342E2E",
";  c #323232",
":  c #681F02",
">  c #4E3339",
",  c #675C02",
"<  c #7E7D01",
"1  c #5A4342",
"2  c #6E4D53",
"3  c #6E5967",
"4  c #735B69",
"5  c #785C69",
"6  c #A93903",
"7  c #835E0E",
"8  c #BC5810",
"9  c #8C6312",
"0  c #A87716",
"q  c #B85A39",
"w  c #CB4B0E",
"e  c #F75607",
"r  c #FD5603",
"t  c #FE5B05",
"y  c #F5570B",
"u  c #F6580C",
"i  c #FB5A0B",
"p  c #E75817",
"a  c #EC5F1E",
"s  c #F55D14",
"d  c #F25E18",
"f  c #CD6011",
"g  c #DD6411",
"h  c #FF6107",
"j  c #FF640B",
"k  c #FF690E",
"l  c #EE641D",
"z  c #FD6D13",
"x  c #F86917",
"c  c #F5611A",
"v  c #F56A1D",
"b  c #F77516",
"n  c #FF7416",
"m  c #FF7817",
"M  c #FF7718",
"N  c #FF7818",
"B  c #D85C2C",
"V  c #C75F3B",
"C  c #E35D22",
"Z  c #DF622C",
"A  c #CA643D",
"S  c #DB6A39",
"D  c #EC6425",
"F  c #ED6922",
"G  c #E7662A",
"H  c #F16422",
"J  c #F16926",
"K  c #E46634",
"L  c #E46A34",
"P  c #EB6D34",
"I  c #E26D3B",
"U  c #AA5B42",
"Y  c #BE5F45",
"T  c #9F605B",
"R  c #BC6755",
"E  c #BD725C",
"W  c #805F6D",
"Q  c #8B6565",
"!  c #96656A",
"~  c #8A6370",
"^  c #8D6B74",
"/  c #946672",
"(  c #946B75",
")  c #9D6976",
"_  c #9B7275",
"`  c #957078",
"'  c #9B767B",
"]  c #9E7A7E",
"[  c #AF6A6B",
"{  c #B76A66",
"}  c #AF746A",
"|  c #B47769",
" . c #A66B76",
".. c #A56D78",
"X. c #AB6E7A",
"o. c #A67875",
"O. c #AD707B",
"+. c #A47C7D",
"@. c #AE7A7C",
"#. c #B77B74",
"$. c #CD6442",
"%. c #C86646",
"&. c #CD6D47",
"*. c #C3694B",
"=. c #D36E43",
"-. c #DB6C40",
";. c #DA734C",
":. c #C36E52",
">. c #D57654",
",. c #DD7A53",
"<. c #D77B59",
"1. c #D57C5C",
"2. c #E37344",
"3. c #E1764B",
"4. c #CA7B64",
"5. c #D47C60",
"6. c #C77F72",
"7. c #A9A203",
"8. c #C98F1C",
"9. c #CD931D",
"0. c #D8991F",
"q. c #EC900E",
"w. c #FF8D14",
"e. c #FF821A",
"r. c #FF8B1D",
"t. c #FF9E14",
"y. c #D0BE06",
"u. c #FFBE0C",
"i. c #FFA810",
"p. c #FE9C20",
"a. c #E6A522",
"s. c #F7A723",
"d. c #FDAB24",
"f. c #F5B225",
"g. c #FEB325",
"h. c #FFBA24",
"j. c #FFBD3D",
"k. c #D3D009",
"l. c #FFCD0B",
"z. c #FFCB1D",
"x. c #F1D311",
"c. c #FFDC14",
"v. c #E7E401",
"b. c #FFE205",
"n. c #FEF601",
"m. c #FFFA01",
"M. c #FCF80A",
"N. c #FFFB10",
"B. c #D6D321",
"V. c #FEFA29",
"C. c #A9817F",
"Z. c #BB8575",
"A. c #C8806B",
"S. c #D68064",
"D. c #D4856A",
"F. c #C78777",
"G. c #C28579",
"H. c #CC8C7E",
"J. c #D38A73",
"K. c #FFD641",
"L. c #FFD653",
"P. c #FFC860",
"I. c #FFCE78",
"U. c #FFFC63",
"Y. c #A27E80",
"T. c #AD7980",
"R. c #A68384",
"E. c #AB8383",
"W. c #A88A8A",
"Q. c #B58586",
"!. c #BA8385",
"~. c #BC8985",
"^. c #B68A88",
"/. c #B98C8B",
"(. c #AC9292",
"). c #BCBCB9",
"_. c #C38C84",
"`. c #C58F88",
"'. c #CA9185",
"]. c #C5938D",
"[. c #C99389",
"{. c #C49591",
"}. c #C79A94",
"|. c #C89993",
" X c #FFD78F",
".X c #FFD792",
"XX c #D7D6B5",
"oX c #FFFCA0",
"OX c #D7D7D7",
"+X c #D9D9DA",
"@X c #FFE7C1",
"#X c #F6F4C4",
"$X c #FEFDD7",
"%X c #F6F4F0",
"&X c #FFFCF5",
"*X c #FEFEFE",
/* pixels */
"3 3 3 ~ ~ ( o.} o.] ] Y.Y.' } p r e q ~ / ( Y.] ] Y.) / ~ 4 3 3 ",
"4 4 ~ ..O.!.S.d 1.]./.`./._.#.p e e q ..X.!.{.{.{.{.T.O.X.W 4 4 ",
"....X.O.X.!.<.t <.}.{.}.[.3.H R %.u $.O.X.!.{.{.{.{.T.T.T.....~ ",
" . .......O.1.t >././.4.D v z a B R [ X...@.^./.^.^.T.X.......~ ",
"B Y / ( / ..:.y *.o.S F k n n i B ! ) ! V A +.^ ` Y.Y./ / / / / ",
"r K !.T.!.].F.*.F.H.d h N m n t C 6.!.#.d H `.' /.{.]._.4.-.6.T.",
"r P }.{.}./.R.^ /.H.c h N N n z J 3.,.3.s H !.( /.{.{.].,.i 5.|.",
"r I /././././.` E.G.d h M N N N n j h h r H ~.` T././.!.;.r -.5.",
"C &.Y.W.(.W.R.Y.Y.o.Z F n M M M m m n n F S C.] Y.Y.Y.+.&.r r e ",
"].{.{.|.|.|.{.{.{.].J.,.c z n M m n j s J.|.}.'.F.].{.{.,.r s C ",
"{.{.{.{.]._.'.{.].'.H K F.I t n m m j u J.].].,.s D.{.!.;.e :.! ",
"Q./././.G.D I /./.G.d D G.I t n N m j u A./.!.;.i 4./.!.>.s 4.^ ",
"Y.Y.Y.Y.| s G ~ _ #.d e l x n n N n k u | +.+.V y E R.W.^.Z.C.] ",
"!.!.!.!.6.s P +.^.H.c t z m N N N N n z J 2.#.A t c 2.[.}.}.}.|.",
"..X.X.O.{ s P +./.H.c j m n m N M N N n i J Z.A r j z P S.{.].].",
"4 5 ) ..{ s K ( E.~.;.L k n m m N N N M z b -.D k n n t I /././.",
"` ' +.| =.x F *.} Y.+.E r k N N N N N N N M j z N N n j G U Q 4 ",
"}.].'.P r n n j 2.5.5.2.j z N N N M N M N N M M N N N m j e U 3 ",
"].{.`.P t n N M j t h k M M N M M M M M N N N N N N N N z r %.T ",
"^.^.~.G t n M N N N M N N N e.e.e.e.e.e.N N N N N N M N k r r p ",
"R.C.} G t n N N N N N N e.p.g.d.g.d.d.d.r.N N N N N N N n n t u ",
"}.S.c z M M M N N N N r.d.0.8.f.g.h.a.8.s.s.e.N N N N N N n h u ",
"[.<.r z N N N N N N N r.f.7 $ 0.h.f.9 $ 9.d.N N N M N N N n h u ",
"/.>.r z N N N N N N N t.x.< + y.c.f.9 + 9.h.l.i.N N N N N M h u ",
"+.} &.F k n m m N N N i.n.k.7.x.z.g.9.0 a.z.m.b.u.w.N M n j r u ",
"].{.].P t n N N N b e.i.n.n.m.c.K. XP.h.g.z.n.m.n.t.M m j r P $.",
"{.{.].,.J x n n N N N i.n.m.N.U.oX&X@XI.j.z.n.m.n.w.n z v S | ^ ",
"Q./././.Z.L v z g f b i.n.m.V.$X*X*X*X&X.XL.M.v.y.q.x D >./.E.^ ",
"Y.Y.Y.Y.Y.Q U w : # 8 q.m.v.B.XXOXOXOX+X%X#XB.< O 6 w ! C.(.W.] ",
"!.!.!.!._ % O O     O , k.< + = - - * ; ).).& X   O O @ 1 ^.!.Q.",
"..X.X.X.! % .         X & + @ 2 C.C.1 o * *         . o > O.O...",
"5 5 ..X. .! 1     .   X X > 2 4 ^.].C.Q %   .     . % 2 ! ..5 4 "
};
