/* XPM */
static char *_d20c0cdcf9c4595906053e86a2c44d5sMIna1ittseAdkZ0[] = {
/* columns rows colors chars-per-pixel */
"32 32 200 2 ",
"   c #020101",
".  c #0D0806",
"X  c #1C0902",
"o  c #171204",
"O  c #1C1313",
"+  c #260C03",
"@  c #241C03",
"#  c #361404",
"$  c #221A19",
"%  c #343309",
"&  c #352D28",
"*  c #323131",
"=  c #3D3938",
"-  c #642B06",
";  c #793006",
":  c #51393C",
">  c #5E4109",
",  c #746303",
"<  c gray25",
"1  c #5F4751",
"2  c #70484F",
"3  c #6E5251",
"4  c #6E5967",
"5  c #735B69",
"6  c #7A5D69",
"7  c #885B0E",
"8  c #AC4608",
"9  c #AC530F",
"0  c #9F6A13",
"q  c #A77716",
"w  c #AE583B",
"e  c #B75D3D",
"r  c #D64B04",
"t  c #C65D10",
"y  c #D9571B",
"u  c #EE550C",
"i  c #FC5604",
"p  c #FE5B05",
"a  c #F3560B",
"s  c #F85709",
"d  c #F75A0D",
"f  c #FA5A0B",
"g  c #E85A19",
"h  c #F45D15",
"j  c #F65D15",
"k  c #CE6412",
"l  c #D96513",
"z  c #FF6107",
"x  c #FD640C",
"c  c #FE690F",
"v  c #E36812",
"b  c #F96714",
"n  c #FD6C12",
"m  c #F3621B",
"M  c #F66A1D",
"N  c #E17015",
"B  c #F67417",
"V  c #FF7416",
"C  c #FF7817",
"Z  c #FF7718",
"A  c #F47818",
"S  c #FF7818",
"D  c #D25C2F",
"F  c #E05A21",
"G  c #DE622B",
"H  c #C6613E",
"J  c #D96A3C",
"K  c #E36527",
"L  c #EC6423",
"P  c #EC6629",
"I  c #EA6A2E",
"U  c #F16524",
"Y  c #F06923",
"T  c #E36736",
"R  c #E56933",
"E  c #EB6D33",
"W  c #E46F3B",
"Q  c #E6723E",
"!  c #9B594C",
"~  c #865E5F",
"^  c #A65C48",
"/  c #9B605F",
"(  c #BC644C",
")  c #BF6C51",
"_  c #BD735D",
"`  c #805F6D",
"'  c #915E67",
"]  c #8E696F",
"[  c #976569",
"{  c #8A6370",
"}  c #8E6B74",
"|  c #936673",
" . c #956B75",
".. c #9D6976",
"X. c #9C7673",
"o. c #967078",
"O. c #9B757B",
"+. c #9E7A7E",
"@. c #A06C60",
"#. c #B56A67",
"$. c #AC766E",
"%. c #B67666",
"&. c #A66B76",
"*. c #A56D78",
"=. c #AA6E7A",
"-. c #A77674",
";. c #AD707B",
":. c #A37C7C",
">. c #AC7C7A",
",. c #CB6543",
"<. c #CB6A45",
"1. c #C46A4C",
"2. c #D56B43",
"3. c #DD7348",
"4. c #DC744C",
"5. c #C36A52",
"6. c #C3745B",
"7. c #D57754",
"8. c #DD7A53",
"9. c #D27858",
"0. c #DA7C5A",
"q. c #E37749",
"w. c #CA7C67",
"e. c #D17F66",
"r. c #C67D72",
"t. c #8A8801",
"y. c #D8901D",
"u. c #F48B0E",
"i. c #EC9D0F",
"p. c #FF8618",
"a. c #FF8B1D",
"s. c #FF9D15",
"d. c #FFB70E",
"f. c #FFA411",
"g. c #EDA924",
"h. c #F7A322",
"j. c #F5AD24",
"k. c #FFAB24",
"l. c #FEB626",
"z. c #FFB924",
"x. c #FFBB38",
"c. c #D9D10E",
"v. c #FFC60D",
"b. c #E2DE00",
"n. c #FFC719",
"m. c #FFCA1D",
"M. c #FFDE13",
"N. c #FFD518",
"B. c #ECE901",
"V. c #FFEF03",
"C. c #FFF601",
"Z. c #FFFA01",
"A. c #FEFA0B",
"S. c #FFE012",
"D. c #DFDD23",
"F. c #FFD43B",
"G. c #FFFB28",
"H. c #AC827F",
"J. c #B3867D",
"K. c #C0826C",
"L. c #C8806C",
"P. c #D68264",
"I. c #D8876A",
"U. c #C58272",
"Y. c #C28579",
"T. c #CC8D7E",
"R. c #D08873",
"E. c #FFCC52",
"W. c #FFFA59",
"Q. c #FFCA6D",
"!. c #A27E80",
"~. c #AD7980",
"^. c #A58384",
"/. c #AB8283",
"(. c #A88A8A",
"). c #B58586",
"_. c #B98285",
"`. c #BC8A85",
"'. c #BB8689",
"]. c #B98C8B",
"[. c #AC9292",
"{. c #C28D85",
"}. c #C58F88",
"|. c #CA9185",
" X c #C5938C",
".X c #C9948B",
"XX c #C49591",
"oX c #C79993",
"OX c #C89A94",
"+X c #FFD486",
"@X c #FFF996",
"#X c #C4C4BB",
"$X c #DFDFBD",
"%X c #FCECBA",
"&X c #C5C5C5",
"*X c #FFFECF",
"=X c #DFDFE1",
"-X c #E2E2E1",
";X c #FFF9EC",
":X c #FFFEFB",
/* pixels */
"4 4 4 { {  .:.$.:.+.+.:.+.+.$.g a u w 6 | o.!.O.!.O. .| { 5 4 4 ",
"5 5 { *.;._.P.m P. X].].'.}.J.g i i e =.=._.XXXXXXXX_.=.*.6 5 5 ",
"*.*.=.;.;.~.0.f 0. XXXXX.X8.P ( H s ,.=.=._.XX XXXXX_.=.=.*.*.{ ",
"*.*.*.*.=.>.9.s 9.].].L.I M n K D 5.#.&.*.>.].].].].~.*.*.~.*.{ ",
"D ( | | ..*.5.s 1.>.J K c V C f F [ | [ H ,.:.} O.!.:.| | | | | ",
"s T _.)._. XU.<.U.T.m x V C V p U _._.r.U P {.O.'.XXXX_.r.2.r.~.",
"i W XXXXXX].H. .`.T.m z Z Z V c U 8.0.8.j U _.o.].XXXXXX8.f e.OX",
"i R ].].].].].o./.Y.m z Z Z C C n x x f i U _. .~.].'.'.4.i 3.e.",
"g <.^.(.[.(.^.!.!.>.K m n C C C V V V n M J :.^.!.!.!.:.<.i i a ",
"|..XXXXXoXoXoXoX].XXR.8.m V V C S V c x I..XXX|.T. XXX X8.i j g ",
"XXXXXXXX X}.}.XX X|.P R R.J p V S Z z d R. X X7.m R. X`.4.s 1.[ ",
").].].].Y.P 3.].].Y.j P Y.W p V Z Z c d L.].`.3.s w.].`.7.b 6. .",
":.!.!.!.$.j G | o.$.h s P M V V Z Z c d _ H.:.H f _ ^.(.J.J.J.-.",
"_.)._._.r.j E :.].T.m p n V Z Z Z Z V n I 4.>.H i U q..XOXOXXX X",
"*.=.=.=.#.j E :.].|.m z C C C Z S Z Z V p P {.H i z b Q P.XXXX X",
"5 6 *.&.#.j I o./.Y.3.I c V Z Z Z Z Z V c M 3.K c V V f 3.].].].",
"o.O.H.%.<.b L ) $.:.:.6.i c Z Z S S Z S S V c n Z Z V c G ^ ~ 5 ",
"].XX XE f V V b q.P.e.3.z V S V S S S S S S V Z S Z C C c a ! 4 ",
"XXXX|.E p V Z C b f j x V B A B Z Z B A S S S S S S S S c s ,./ ",
").].`.I p V Z S Z V V V B 9 - N p.S 9 - l S Z S Z S S Z c p f g ",
"(.H.-.G z V Z Z Z Z S S A ; o y.k.j.7 o k S Z Z Z S S Z V V p s ",
"oXI.P n V Z Z Z Z Z Z a.h.0 > g.z.j.q > y.h.S Z S S S S V V z d ",
".X0.p c S S S Z Z Z S a.l.j.g.l.l.l.j.g.l.k.V V S S S S Z V z f ",
"`.7.p c S S S S Z Z S f.M.S.S.S.N.z.z.l.x.z.v.f.Z Z Z S Z V z d ",
"O.%.J Y c V C C C Z S f.Z.Z.C.S.m.l.l.l.l.m.C.S.d.a.C V V z p s ",
" X X|.E z C S Z C C S f.Z.Z.C.M.F.Q.E.z.l.m.Z.Z.V.f.C C c i P J ",
"XXXX X4.L n V C C C V f.Z.Z.A.W.@X;X%XQ.x.n.Z.Z.C.s.c n M R %.] ",
").].].].U.I M V v l B f.Z.Z.G.*X:X:X:X;X+XE.A.B.c.u.n L 4.`./.} ",
":.!.!.!.+.[ w r ; # t i.C.B.D.$X=X=X-X-X;X%XD.t.@ 8 y @.H.[.(.O.",
"'._._._.-.& o + .   + , b.t.% & = = * < &X#X% o   X + O 1 `.).`.",
"*.=.=.=.' O           o % @ O 3 X.X.: . * *           . : ;.*.*.",
"5 6 &.=.&.~ 1           . & 1 6 ].].H.6 $           O 2 ' =.6 5 "
};
