/* XPM */
static char *_bdd42153e14468fcd1e9f5d9687a6b3LawSnFyvHYWZl4fT[] = {
/* columns rows colors chars-per-pixel */
"32 32 149 2 ",
"   c #130404",
".  c #280507",
"X  c #350607",
"o  c #380102",
"O  c #351214",
"+  c #361417",
"@  c #3F1119",
"#  c #241A23",
"$  c #281B27",
"%  c #2D202B",
"&  c #35212C",
"*  c #2E2231",
"=  c #352532",
"-  c #30283A",
";  c #3D2C3C",
":  c #430A0C",
">  c #510709",
",  c #491316",
"<  c #4B1416",
"1  c #43191C",
"2  c #5D1316",
"3  c #6C0E0E",
"4  c #740C0D",
"5  c #790C0C",
"6  c #611010",
"7  c #49221E",
"8  c #481D22",
"9  c #4C2628",
"0  c #5A2125",
"q  c #422B3D",
"w  c #4E2F3C",
"e  c #562F31",
"r  c #602D2C",
"t  c #743534",
"y  c #562F42",
"u  c #423345",
"i  c #46354A",
"p  c #4A364B",
"a  c #5A3445",
"s  c #443751",
"d  c #453851",
"f  c #4C3B52",
"g  c #523E54",
"h  c #5A3D53",
"j  c #663A41",
"k  c #7A3545",
"l  c #713D4F",
"z  c #643A53",
"x  c #6C3C52",
"c  c #763F50",
"v  c #7B3A53",
"b  c #5C4054",
"n  c #75464D",
"m  c #7D4B4E",
"M  c #694354",
"N  c #744452",
"B  c #7C4552",
"V  c #744856",
"C  c #77525B",
"Z  c #7B5E62",
"A  c #7C6263",
"S  c #8C0606",
"D  c #840D0D",
"F  c #8A0A0A",
"G  c #930303",
"H  c #9A0101",
"J  c #960F0F",
"K  c #9B0E0E",
"L  c #B30101",
"P  c #BC0F0F",
"I  c #A41010",
"U  c #AB1111",
"Y  c #B21111",
"T  c #B91010",
"R  c #C40000",
"E  c #CA0101",
"W  c #C40D0D",
"Q  c #C90C0C",
"!  c #D40000",
"~  c #D40909",
"^  c #DB0808",
"/  c #E50303",
"(  c #EC0303",
")  c #F30101",
"_  c #FF0000",
"`  c #FF0A0A",
"'  c #FF1B1B",
"]  c #FF2222",
"[  c #FF2C2C",
"{  c #FF3F3F",
"}  c #8B3F40",
"|  c #8F3E51",
" . c #903E51",
".. c #884B49",
"X. c #864652",
"o. c #834C55",
"O. c #9A4E58",
"+. c #825257",
"@. c #8A5257",
"#. c #8D5559",
"$. c #9F5857",
"%. c #94565B",
"&. c #95595B",
"*. c #AE5053",
"=. c #A35D5D",
"-. c #A95D5B",
";. c #B05355",
":. c #AB615C",
">. c #B5675C",
",. c #A25F60",
"<. c #9C6261",
"1. c #936966",
"2. c #A26362",
"3. c #A56A65",
"4. c #BC6962",
"5. c #A67F71",
"6. c #AB7F71",
"7. c #FF4E4E",
"8. c #FF5454",
"9. c #C06E62",
"0. c #CD7969",
"q. c #D27D6D",
"w. c #FF6A6A",
"e. c #FF7C7C",
"r. c #A68275",
"t. c #AF8776",
"y. c #A98A79",
"u. c #A9917F",
"i. c #D3806F",
"p. c #D38471",
"a. c #DA997D",
"s. c #EF9C7D",
"d. c #AA9382",
"f. c #AA9A8A",
"g. c #AA9E91",
"h. c #FF8686",
"j. c #FF8888",
"k. c #FF9F9F",
"l. c #F1A582",
"z. c #F7B88D",
"x. c #FFB4B4",
"c. c #FAC292",
"v. c #FCC896",
"b. c #FECE9A",
"n. c #FED19D",
"m. c #FFC4C4",
"M. c #FFCCCC",
"N. c #FFD4D4",
"B. c #FFD9D9",
/* pixels */
"A d.f.d.Z 1.y.f.f.d.f.u.y.1.C r.f.u.y.1.C r.u.g.f.u.1.Z u.f.d.A ",
"y.b.n.n.t.a.b.n.n.n.b.b.b.a.3.c.n.b.b.a.3.c.b.n.n.n.a.t.b.n.b.y.",
"5.v.v.v.6.p.z.c.c.c.c.c.z.p.2.s.c.c.z.p.2.l.c.c.c.z.i.6.v.b.v.5.",
"<.s.l.s.2.4.q.i.i.q.q.p.q.4.%.q.i.i.q.4.%.0.q.i.i.q.4.2.s.l.s.<.",
"V ,.2.,.M f g f ; = = = = q h g g b ; = * = = ; g g f M $.2.2.V ",
"1.a.p.4.f h a q . o o o o , k v z k : o o X o : u a h f 4.p.a.1.",
"y.b.z.q.g i + . I ( ) _ _ L 9 ..m 1 R _ _ ) _ ! . 1 p g q.z.b.d.",
"f.b.c.q.f # 3 K / _ _ _ _ ( S O O H _ _ _ _ ` ) ! S $ f q.c.b.d.",
"g.b.c.q.% 3 U / _ _ _ _ _ _ ( ! ! ) _ _ _ ' h._ _ ( S = q.c.n.f.",
"d.b.c.q.# 5 T ( _ _ _ _ _ _ _ _ _ _ _ _ _ ] m.h._ _ H % q.c.b.d.",
"r.z.l.q.# 5 T ( _ _ _ _ _ _ _ _ _ _ _ _ _ ` j.M.` _ H % q.l.c.5.",
"C 3.2.%.# 5 T ( _ _ _ _ _ _ _ _ _ _ _ _ _ ` w.M.` _ H $ %.<.3.C ",
"1.a.p.4.# 5 T ) _ _ _ _ _ _ _ _ _ _ _ _ _ 7.N.k.` _ H % 4.i.a.1.",
"y.b.z.q.# 5 T / _ _ _ _ _ _ _ _ _ _ _ _ [ N.x.' _ _ H % q.z.b.d.",
"d.b.c.i.# 4 Y T ) _ _ _ _ _ _ _ _ _ _ ' m.B.[ _ _ _ G % i.c.n.g.",
"d.n.c.i.u + D Y Q ) _ _ _ _ _ _ _ _ _ ' m.8.` _ _ L @ i q.c.n.d.",
"d.b.c.q.h y < K Y ~ _ _ _ _ _ _ _ _ _ ` { ` _ _ E 2 y g q.c.b.f.",
"g.n.v.q.h X.t 6 I T ^ _ _ _ _ _ _ _ 8.] _ _ _ ( 5 t  .h p.c.b.y.",
"d.b.z.q.g h M 9 3 I T / _ _ _ _ _ _ e.[ _ _ ( S e B p g 0.z.b.y.",
"1.l.q.4.f h o.>.7 D U W ) _ _ _ _ _ ` _ _ ) L 9 >.O.s f 4.q.l.1.",
"M 3.<.%.f x X.@.p + J U Q _ _ _ _ _ _ _ _ R < o.V X.x f #.3.3.Z ",
"r.c.l.q.g | ;.-.f - X I Y ~ _ _ _ _ _ _ / > } -.o.;. .h 0.l.z.5.",
"d.b.z.p.f f M #.#.+.w : U Y ^ _ _ _ _ / > t M %.#.B d g p.c.b.d.",
"f.n.c.q.b d z :.4.4.m r 3 Y P ( _ _ _ G t =.C >.4.O.s g q.z.n.f.",
"d.b.c.q.g x o.o.V &.&.n 8 4 Y W ^ ~ G 0 M %.%.@.V X.x g p.c.b.d.",
"d.n.z.q.h | ;.-.o.>.9.-.j < J U U F 1 ..o.9.4.-.X.*.| h q.z.b.y.",
"1.a.p.4.f f x c l M f f d ; < D D , u f d g M N c x f f 4.p.a.1.",
"V ,.2.,.M f b b b b b d b d &     & f f g g h b h b f M ,.,.,.V ",
"<.s.l.l.2.4.q.q.q.q.q.%.4.q.q.0.0.&.4.q.q.p.q.q.q.q.4.2.l.l.l.<.",
"5.v.v.v.6.p.z.c.c.c.s.3.p.z.c.c.s.3.p.z.c.c.c.c.c.z.p.6.c.v.c.5.",
"y.b.b.b.t.a.b.b.n.b.c.3.a.n.b.n.c.3.a.b.v.n.b.b.n.b.a.t.b.n.b.y.",
"Z d.f.u.Z 1.y.d.f.d.5.C 1.y.u.f.r.C 1.y.d.f.d.f.f.y.1.Z d.f.d.Z "
};
