/* XPM */
static char *_02036dc2e22427bfe2b1535a3d1b02259pXAhxrctzsgfHz[] = {
/* columns rows colors chars-per-pixel */
"32 32 206 2 ",
"   c #010102",
".  c #00040A",
"X  c #0C0A0A",
"o  c #130E0E",
"O  c #01091C",
"+  c #161317",
"@  c #261C1D",
"#  c #0B1428",
"$  c #34282B",
"%  c #392B2B",
"&  c #40302F",
"*  c #473438",
"=  c #011D4A",
"-  c #112C4E",
";  c #06275A",
":  c #153058",
">  c #3F3E58",
",  c #022860",
"<  c #022F6F",
"1  c #1A3E6A",
"2  c #0E3C76",
"3  c #1B406F",
"4  c #1E4678",
"5  c #484258",
"6  c #7A585D",
"7  c #6E5967",
"8  c #6A596A",
"9  c #795C67",
"0  c #735B69",
"q  c #6F5D74",
"w  c #776170",
"e  c #865964",
"r  c #805F6D",
"t  c #876667",
"y  c #8A6371",
"u  c #876874",
"i  c #8C6A75",
"p  c #8B6B79",
"a  c #936673",
"s  c #946C75",
"d  c #906A7A",
"f  c #94727C",
"g  c #9C757B",
"h  c #9E7A7E",
"j  c #A46A74",
"k  c #A46D79",
"l  c #AB6E7A",
"z  c #AC707B",
"x  c #A17C7F",
"c  c #AD797F",
"v  c #224E84",
"b  c #28558D",
"n  c #285C9A",
"m  c #0F56B5",
"M  c #0858BA",
"N  c #2D64A9",
"B  c #3E67AD",
"V  c #2D68B9",
"C  c #376AB8",
"Z  c #3973BF",
"A  c #425D95",
"S  c #5A6398",
"D  c #7D6E89",
"F  c #6E6990",
"G  c #686A99",
"H  c #7C7392",
"J  c #777498",
"K  c #4B6AA8",
"L  c #596CA4",
"P  c #5472AD",
"I  c #406BB8",
"U  c #4472BD",
"Y  c #4D75BA",
"T  c #5274B3",
"R  c #5E78B2",
"E  c #5379BB",
"W  c #6775A7",
"Q  c #747AA6",
"!  c #7C7AA3",
"~  c #677EB5",
"^  c #065ECA",
"/  c #155FC2",
"(  c #0761CF",
")  c #1663C8",
"_  c #1C6ACE",
"`  c #0862D1",
"'  c #1569D2",
"]  c #1C6ED5",
"[  c #1C70D7",
"{  c #296BC7",
"}  c #236CCC",
"|  c #356DC2",
" . c #3B6FC0",
".. c #2F74CF",
"X. c #3777C6",
"o. c #3374CD",
"O. c #3979CE",
"+. c #236ED0",
"@. c #2972D2",
"#. c #2575D9",
"$. c #2A76D8",
"%. c #3377D2",
"&. c #3279D5",
"*. c #3A7ED2",
"=. c #337EDC",
"-. c #4274C2",
";. c #4C79C7",
":. c #976F85",
">. c #81738B",
",. c #8D798B",
"<. c #947682",
"1. c #9D7D84",
"2. c #997689",
"3. c #937E8D",
"4. c #857B99",
"5. c #927491",
"6. c #967B94",
"7. c #A27E81",
"8. c #AD7980",
"9. c #B47F82",
"0. c #857FA1",
"q. c #7681A8",
"w. c #7C85AA",
"e. c #6B83B8",
"r. c #7283B2",
"t. c #7889B5",
"y. c #3B81D6",
"u. c #3781DE",
"i. c #3C84DD",
"p. c #3D87E1",
"a. c #3F88E1",
"s. c #5280CD",
"d. c #4884D4",
"f. c #7395D3",
"g. c #4287E0",
"h. c #428AE1",
"j. c #4A8DE3",
"k. c #4E91E3",
"l. c #5594E3",
"z. c #5A96E4",
"x. c #5E99E6",
"c. c #629BE5",
"v. c #6B9DE2",
"b. c #6BA1E7",
"n. c #79A6E5",
"m. c #72A5E9",
"M. c #9A828C",
"N. c #8C8196",
"B. c #84819D",
"V. c #958393",
"C. c #988598",
"Z. c #9E8B9D",
"A. c #A58485",
"S. c #AC8384",
"D. c #A9868C",
"F. c #A78888",
"G. c #A98C8C",
"H. c #B58387",
"J. c #B98286",
"K. c #B5848A",
"L. c #BB8688",
"P. c #B48B8C",
"I. c #B98C8B",
"U. c #B6908E",
"Y. c #BC918E",
"T. c #A68A96",
"R. c #AB8B94",
"E. c #A38D9D",
"W. c #AA8D99",
"Q. c #B08C90",
"!. c #AA9196",
"~. c #B69195",
"^. c #BC9495",
"/. c #B2949C",
"(. c #BC979A",
"). c #8583A5",
"_. c #8989AA",
"`. c #8D8BAA",
"'. c #9385A1",
"]. c #938AA5",
"[. c #9A8CA3",
"{. c #9F90A7",
"}. c #9591AE",
"|. c #9B91AA",
" X c #838CB4",
".X c #8491BA",
"XX c #A391A4",
"oX c #AC95A1",
"OX c #C18F8D",
"+X c #C2928F",
"@X c #C39591",
"#X c #C59994",
"$X c #C29998",
"%X c #8DA7D9",
"&X c #87B1EC",
"*X c #8BB3EA",
"=X c #98B4E6",
"-X c #9ABBEB",
";X c #ABC4ED",
":X c #B2C8EE",
">X c #A2C3F0",
",X c #ADCAF1",
"<X c #B4CDF2",
"1X c #BBD3F4",
"2X c #D2E2F7",
"3X c #E3EBF9",
/* pixels */
"7 7 0 y a s g g h h h x g x h y 7 8 A / / / I >.1.h s a a q 7 7 ",
"0 0 r l l J.@X@X+X+X+XI.L.+XP.t 8 n | @.' C 4.~.+X@X9.8.5.G F 0 ",
"k k l l z J.@X@XXX{.^.#X#X@XY.>.L | &.=.' L ~.@X@X/.'.5.5.0.5.r ",
"k k k k k c I.R. X XT.W.R.P.C.K } &.p.&.| G P.I.I.Z.Q 4.k :.k r ",
"a a a s s g x i <.1.V.t.t.4.K { =.p.#.{ F p 7.p f 1.2.d a a a a ",
"J.J.J.J.J.+XI.g I.#X^.oX/.E.Z ] p.p.#.| 4.OXE.~ ].^.@XL.9.J.L.9.",
"+X+X@X+X+XY.8.f U.@X@X@XZ.t.%Xb.g.$.-.! W.+XT.J E.@X(.|.}.(.@X@X",
"I.I.I.U.U.Z.Z.f 8.R.[.E.Q ;.:X,Xj.@.-.0.R.I.L.f 8.P.Q._._.R.L.OX",
"g 7.A.F.E.w.r.V.h B.e.q.Q z.:X>Xk.u.#.C B.G.A.h 1.7.x M.1.7.x i ",
"+X#X@X#X$X(./.$X@X^.[.R f.<X*Xl.h.i.#. .].$X#X#X@X@X#X+X+X@X+Xx ",
"@X+X+X@X+X@X@X@X^.C.e.%X>Xn.l.a.a.a.u.%.U ).E..X|.@X+XL.+XP.x i ",
"L.U.I.R.`.E.P.I.U.! s.;X1Xz.a.a.a.a.i.=.} R Z.`.[.P.P.I.U.Y.S.i ",
"x 7.7.N.r.B.7.u >.P s.,X1Xl.p.a.a.a.a.u._ L 1.p g 7.A.F.G.!.F.h ",
"J.J.J.K.K.^.+X,.P } l.,X,Xl.a.a.a.a.p.u.+.R 3.p G.^.#X#X#X(.#X@X",
"j z z l z J.@X,.T ] i.x.x.j.a.a.a.a.p.i.=...T D _..X/.+XXXt.{.+X",
"9 w H ! 2.c C.K o.c.-Xm.i.h.a.a.a.a.a.a.p.u.O.I ~ ].R.U.W.[.W.U.",
"f f ).w.V.H P o.u.b.-Xv.i.i.h.i.y.i.a.a.a.a.u._ L h f s a w w 9 ",
"+X#X^.^.~.R ] u.i.h.d.b 4 X.i.n 4 V a.a.a.a.u.+.R !.H.l l 9 0 0 ",
"@X@X+X@XT.T ] u.i.a.y.3 : Z i.v - N a.a.a.a.i.u.@.Y 6.l l 8.7.y ",
"H.I.P.C.Y o.=.p.a.a.y.4 3 X.i.n 3 C a.a.a.a.a.a.u.&.C D k :.Q G ",
"w.M.A.J Z v.&Xl.a.a.a.y.O.i.h.*.X.y.a.a.a.a.a.a.=.=.} S a :.H D ",
".X/.#XB.;.=X1Xc.a.a.a.i.p.a.p.g.a.i.a.a.a.a.a.a.g.=.} W 9.9.9.9.",
"^.@X+X].;.*X<Xx.a.a.a.a.a.a.a.a.a.a.a.a.a.a.k.l.j.=.| ! +X$X$X$X",
"P.P.P.4.Z i.l.h.a.a.a.a.a.a.a.a.a.a.a.a.a.a.m.<Xn.-.0.R.K.I.I.K.",
"g A.A.M.q.Z $.i.g.g.a.a.a.a.a.a.a.g.p.p.j.*X2X3Xn.{ ;.N.7.1.q.J ",
"+X@XXX|.oX_.E &.=.p.g.a.a.a.a.p.a.h.m.*Xc.b.=X=X.X~  XXX@X(.}.4.",
"+X^.}. X/.^.].Y %.=.=.=.p.a.a.h.a.p.n.-Xz.O.X.E _.~.^.L.+XG.1.p ",
"I.P.P.R.P.I.S.4.B ^ ( ( [ =.=.y.=.' _ _ ) K ,.D.W.~.Q.K.U.U.S.p ",
"x 7.7.7.x 7.6 $ # < M ^ ^ M 2 2 ^ ` ( m ; # * 6 g N.e.).G.~.F.h ",
"L.J.J.L.9.6 % X   # ; , , 1 5 > ; , ; = O   + % t /.XXW.L.I.I.J.",
"j l z z j 6 % X     . . + * e 6 * + . .     o % t Y.L.l l l l k ",
"0 t j z z S.6 @ o o o + * e 9 9 i & o o o o & 6 S.@X9.z z k r 0 "
};
