/* XPM */
static char *_fba3f0cc8874b17b0f8df2c61171f81uLGa5KSHJb7fTHFj[] = {
/* columns rows colors chars-per-pixel */
"32 32 152 2 ",
"   c #171218",
".  c #1A131A",
"X  c #231D1C",
"o  c #1E1A21",
"O  c #241C25",
"+  c #2A1D26",
"@  c #281E28",
"#  c #292528",
"$  c #2C232E",
"%  c #30222E",
"&  c #382429",
"*  c #322B2D",
"=  c #2C2730",
"-  c #392735",
";  c #3C2739",
":  c #383737",
">  c #3E3638",
",  c #3E3C3C",
"<  c #412E3D",
"1  c #502E3D",
"2  c #493037",
"3  c #453539",
"4  c #4C373B",
"5  c #443B3C",
"6  c #4A393C",
"7  c #57383D",
"8  c #6A413B",
"9  c #332F45",
"0  c #3E2E42",
"q  c #432F41",
"w  c #512F40",
"e  c #453447",
"r  c #493E40",
"t  c #4A394C",
"y  c #583445",
"u  c #443751",
"i  c #463951",
"p  c #4C3B52",
"a  c #5B3750",
"s  c #523E54",
"d  c #5A3D54",
"f  c #673F41",
"g  c #6A3F42",
"h  c #62354B",
"j  c #773542",
"k  c #713D4F",
"l  c #643A53",
"z  c #6C3C52",
"x  c #763F50",
"c  c #434141",
"v  c #4C4A4A",
"b  c #504848",
"n  c #594F4F",
"m  c #4F4E50",
"M  c #5C4054",
"N  c #544F50",
"B  c #585757",
"V  c #585758",
"C  c #5C5C5C",
"Z  c #6A4144",
"A  c #78454D",
"S  c #694354",
"D  c #734452",
"F  c #7D4453",
"G  c #744856",
"H  c #7D4B52",
"J  c #77525B",
"K  c #7B5E62",
"L  c #666565",
"P  c gray43",
"I  c #7C6263",
"U  c #766D6E",
"Y  c #757474",
"T  c gray49",
"R  c #8C3D4F",
"E  c #8F3E51",
"W  c #903E51",
"Q  c #844042",
"!  c #964749",
"~  c #95574D",
"^  c #864652",
"/  c #834B55",
"(  c #9A4E58",
")  c #8A5257",
"_  c #845358",
"`  c #8D5559",
"'  c #9A5553",
"]  c #94565B",
"[  c #95595B",
"{  c #AE5053",
"}  c #A35D5D",
"|  c #A95D5B",
" . c #B05355",
".. c #AB615C",
"X. c #BC6B5F",
"o. c #A25F60",
"O. c #9C6261",
"+. c #936966",
"@. c #817B7C",
"#. c #A26362",
"$. c #A56A65",
"%. c #BC6962",
"&. c #A67F71",
"*. c #AB7F71",
"=. c #C06E62",
"-. c #D27D6D",
";. c #A68275",
":. c #AF8776",
">. c #A98A79",
",. c #A9917F",
"<. c #D3806F",
"1. c #D38471",
"2. c #DA997D",
"3. c #EF9C7D",
"4. c #848484",
"5. c #8B8686",
"6. c #8C8B8B",
"7. c #908C8C",
"8. c #959494",
"9. c #999494",
"0. c #9C9999",
"q. c #AA9382",
"w. c #AA9A8A",
"e. c #AA9E91",
"r. c #A29E9E",
"t. c #A5A2A2",
"y. c #A9A3A3",
"u. c #AEAAAA",
"i. c #B5AFAF",
"p. c #B6B1B1",
"a. c #B9B5B5",
"s. c #BEB9B9",
"d. c #F1A582",
"f. c #F7B88D",
"g. c #C3BDBD",
"h. c #FAC292",
"j. c #FCC896",
"k. c #FECE9A",
"l. c #FED19D",
"z. c #C7C1C1",
"x. c #CBC5C5",
"c. c #CFC9C9",
"v. c #D1CBCB",
"b. c #D6D1D1",
"n. c #DAD5D5",
"m. c #DFDCDC",
"M. c #E6E2E2",
"N. c #E9E5E5",
"B. c #EEEBEB",
"V. c #F1EFEF",
"C. c #F5F3F3",
"Z. c #FAF9F9",
/* pixels */
"I q.w.q.K +.>.w.w.q.w.q.>.+.J ;.w.q.>.+.J ;.q.e.w.,.+.K >.w.q.I ",
">.k.l.l.:.2.k.l.k.k.l.k.k.2.$.f.l.k.k.2.$.f.l.l.l.k.2.:.k.l.k.>.",
"&.j.j.j.*.1.f.h.h.h.h.h.f.1.#.d.h.h.f.1.#.d.h.h.h.f.1.*.j.k.j.&.",
"O.3.d.3.#.%.-.<.1.-.-.-.-.%.] -.-.-.-.%.] -.-.-.1.-.%.#.3.d.3.O.",
"G [ o.o.S p p p % @ + + O ; a s M M - O O @ @ % i M i S o.#.o.G ",
"+.d.1.%.p a 1 < * , , , , r j R a j 3 r , , , 5 ; w d p %.1.2.+.",
">.k.f.-.m ; & # 6.z.x.x.x.9.r g f 6 r.x.x.x.x.i.c 5 0 M -.f.k.q.",
"w.l.h.-.i = L 6.g.c.v.c.c.x.Y X # 4.x.v.c.v.b.x.g.6.O t -.h.k.q.",
"e.l.f.-.o V 6.s.c.c.c.c.c.c.z.s.g.x.c.c.c.b.B.b.c.x.4.+ -.j.l.w.",
"q.k.f.1.o C 6.z.c.c.c.c.c.c.c.c.x.c.c.c.c.v.C.V.c.c.6.O -.f.k.q.",
"&.h.d.-.  C 6.z.c.c.c.c.c.c.c.c.c.c.c.c.c.c.m.C.b.v.6.O -.d.h.&.",
"K $.#.]   C 6.z.v.c.c.c.c.c.c.c.c.c.c.c.c.v.N.C.c.v.7.O ] #.$.J ",
"+.2.1.%.  C 6.x.c.c.c.c.c.c.c.c.c.c.c.c.v.M.C.M.c.v.7.O %.1.2.+.",
">.j.f.-.. C 6.p.x.c.c.c.c.c.c.c.c.c.c.c.n.Z.V.c.c.v.6.O -.f.j.q.",
"q.k.h.-.O m 4.6.a.c.c.c.c.c.c.c.c.c.c.b.C.V.b.c.c.g.Y = -.j.l.e.",
"q.k.h.-.p $ L 4.8.z.c.c.c.c.c.c.c.c.c.v.V.n.c.x.x.5.O p -.h.k.q.",
"q.l.h.-.d y * Y 4.8.x.c.c.c.c.c.c.c.v.v.v.c.c.c.r.4 h s -.h.l.q.",
"e.l.h.1.d E Q * Y 6.r.x.c.c.c.c.c.c.N.n.c.c.c.p.6 Q W d <.h.k.,.",
"q.k.f.-.p d D 8 c T 6.u.c.c.c.c.c.c.n.b.c.c.i.b Z F p s -.f.k.>.",
"+.2.1.%.p a / %.8 N 4.8.p.c.c.c.c.c.c.x.c.z.U 8 X.' u p %.1.2.+.",
"J $.#.] i z ^ ` t = V 4.8.s.x.c.c.c.c.c.x.@.1 / G ^ l i ] $.$.J ",
"&.h.d.-.M E { | i 9 o P 6.0.z.c.c.c.c.x.t.& ! | ^  .^ M -.3.h.&.",
"q.k.f.1.M i S ) ` _ t 3 Y 6.t.x.c.v.c.y.6 k D ` ` ^ p M -.h.k.q.",
"w.l.h.-.p i z ..%.X./ 8 : 4.6.u.c.x.x.n ~ } / X.%.( 0 M -.h.l.w.",
"q.k.h.-.d l / / G [ [ H 2 c T 7.8.7.v 7 D ] ` ) G ^ z s 1.h.k.q.",
"q.k.f.-.M E  .| / X.=.| A 8 B 6.4.v 8 ' / =.=.o./ { E d -.f.j.>.",
"+.2.1.%.s i z x k z s p i e ; : : > i p u s S x x z p p %.1.d.+.",
"G o.#.o.S p M M M M s i p v < + + q p p M p M M d d p S o.O.o.S ",
"O.3.d.3.#.%.-.-.-.-.-.] %.-.<.-.-.] %.-.<.-.<.-.-.-.%.o.3.d.d.O.",
";.j.k.j.*.1.f.h.h.h.d.#.1.f.h.h.3.#.1.f.h.h.h.h.h.f.<.*.j.j.h.&.",
">.k.l.l.:.2.k.k.l.k.h.$.2.k.k.l.h.$.2.k.k.k.k.k.l.k.2.:.l.l.k.>.",
"K q.w.>.K +.>.q.w.,.;.J +.>.,.w.;.J +.>.q.w.q.w.w.>.+.K q.w.q.K "
};
