/* XPM */
static char *aa4671bac1a94819d588dc617e81543dQzrsjxwDTTmDqnk0[] = {
/* columns rows colors chars-per-pixel */
"32 32 200 2 ",
"   c #000101",
".  c #02050A",
"X  c #0A0808",
"o  c #130E0E",
"O  c #14100F",
"+  c #040A11",
"@  c #090C11",
"#  c #050D1A",
"$  c #161111",
"%  c #2A1E1E",
"&  c #081428",
"*  c #161A21",
"=  c #0C1E39",
"-  c #0C213C",
";  c #332829",
":  c #3E302F",
">  c #4C3A38",
",  c #0C2544",
"<  c #102C4F",
"1  c #112F52",
"2  c #14355D",
"3  c #163A69",
"4  c #1A406E",
"5  c #1D4678",
"6  c #204A7E",
"7  c #404346",
"8  c #594545",
"9  c #6D5052",
"0  c #464868",
"q  c #5A5B7B",
"w  c #6D5967",
"e  c #735B69",
"r  c #7E5E6E",
"t  c #766376",
"y  c #805F6D",
"u  c #88686C",
"i  c #95706D",
"p  c #866777",
"a  c #8A6370",
"s  c #8C6A74",
"d  c #936673",
"f  c #946C75",
"g  c #9D6877",
"h  c #9E6D7C",
"j  c #8F707E",
"k  c #92717C",
"l  c #9B767B",
"z  c #9E7A7E",
"x  c #A46D79",
"c  c #AB6F7A",
"v  c #AD707C",
"b  c #A9757F",
"n  c #A17C7E",
"m  c #064799",
"M  c #214D84",
"N  c #23528B",
"B  c #315488",
"V  c #285B9A",
"C  c #225EB8",
"Z  c #1C61BF",
"A  c #2C64A8",
"S  c #3465AB",
"D  c #2965BA",
"F  c #316DB6",
"G  c #3469B9",
"H  c #3670BD",
"J  c #525B87",
"K  c #4F6E98",
"L  c #6A6785",
"P  c #75698B",
"I  c #656B95",
"U  c #777599",
"Y  c #4B68A7",
"T  c #5769A3",
"R  c #5B72AB",
"E  c #426BB5",
"W  c #516FB0",
"Q  c #4C73B5",
"!  c #5673B2",
"~  c #5D7AB6",
"^  c #6575A5",
"/  c #697AAC",
"(  c #757AA5",
")  c #677CB2",
"_  c #617EBD",
"`  c #145FC3",
"'  c #0F65CF",
"]  c #1D65C5",
"[  c #1764C9",
"{  c #1B68CD",
"}  c #0A63D1",
"|  c #1166D2",
" . c #156AD3",
".. c #1C6DD5",
"X. c #2367C5",
"o. c #2B6CC4",
"O. c #3675C4",
"+. c #3A75C6",
"@. c #3779CC",
"#. c #246ED1",
"$. c #2B73D3",
"%. c #2675D9",
"&. c #2876D9",
"*. c #2D79DA",
"=. c #3379D5",
"-. c #3A7DD2",
";. c #337CDB",
":. c #4275C3",
">. c #896D85",
",. c #9C6E81",
"<. c #8A768A",
"1. c #997787",
"2. c #9D7C82",
"3. c #947C8A",
"4. c #857A9B",
"5. c #907F91",
"6. c #A87785",
"7. c #A27E81",
"8. c #B37C80",
"9. c #827FA0",
"0. c #7C81A5",
"q. c #7A83AB",
"w. c #6884BA",
"e. c #7A88B7",
"r. c #748BBD",
"t. c #3B80D5",
"y. c #3681DE",
"u. c #3C84DD",
"i. c #3D86E1",
"p. c #3F88E1",
"a. c #4387DF",
"s. c #5286D5",
"d. c #6689C3",
"f. c #6489C5",
"g. c #6495D9",
"h. c #779CDA",
"j. c #4189E2",
"k. c #4A8EE3",
"l. c #4F91E4",
"z. c #5393E4",
"x. c #6097E1",
"c. c #639DE7",
"v. c #6CA1E7",
"b. c #75A7E9",
"n. c #9F8287",
"m. c #85819C",
"M. c #928293",
"N. c #97879F",
"B. c #988698",
"V. c #9A849D",
"C. c #9B899E",
"Z. c #A58485",
"A. c #AC8384",
"S. c #A68489",
"D. c #AA848B",
"F. c #A6898A",
"G. c #AA8B8D",
"H. c #B48485",
"J. c #B98386",
"K. c #B88788",
"L. c #B58B8C",
"P. c #B98C8B",
"I. c #B9908E",
"U. c #A58893",
"Y. c #AD8B92",
"T. c #A38C9B",
"R. c #AB8E99",
"E. c #B18C90",
"W. c #B98F91",
"Q. c #AB9191",
"!. c #AE909A",
"~. c #B89597",
"^. c #BD9494",
"/. c #B2939C",
"(. c #BB9698",
"). c #8484A2",
"_. c #8C84A7",
"`. c #8B8BAC",
"'. c #968BA4",
"]. c #9F91A6",
"[. c #9592AE",
"{. c #9C92AA",
"}. c #8290BB",
"|. c #A291A5",
" X c #AC93A1",
".X c #B096A0",
"XX c #A4A9B0",
"oX c #C2928F",
"OX c #C39591",
"+X c #C69994",
"@X c #86A9DF",
"#X c #94ADDE",
"$X c #87ADE7",
"%X c #8DB5EC",
"&X c #A1BEEC",
"*X c #AFC8EE",
"=X c #A8C7F1",
"-X c #D0DEF5",
";X c #D9E5F7",
":X c #E3ECFB",
/* pixels */
"w w w a d f z z z z z z z z z a w w q C ` ` Z U l l h d y e w w ",
"e e r c v J.OXoXOXoXoXP.P.oXL.u w J S $.' X./ R.OXOX8.6.,.^ L e ",
"x x c v v J.OXoX(.].~.+X+XOXoXj P E $.y. .G R.^.OXOXV.,.6.) 4.a ",
"x x x x c b P.P.C.f.'.E.E.L.L.P D $.i.y.#.E G.L.P.E.d.( ,.,.,.a ",
"d d d d f l n s 1.5.n.).d.B.I o.*.i.;...Y >.z s l 7.<.>.d g g a ",
"J.J.J.J.J.oXP.l P.+XOX.X[.(./ [ ;.i.;.} ( W.^.0.`.OXOXK.8.8.J.J.",
"OXOX+XOXOXI.7.f P.OXoXoXW.'.}.g.j.;.=.:._.W.L./ `.~.OX/.|.^.OXOX",
"P.P.P.P.I.P.E.k 6.P.E.E.U.G @X-Xc.&.o.).G.P.K.j 6.P.P.`.d.T.P.W.",
"l 7.Z.S.Q.N.f.m.2.n.w.q.<.D $X;Xc.u.=.o.0.F.Z.n.2.7.7.M.3.2.7.s ",
"oXOXOX+X+X(.[./.^.^.{.q._ #X&X%Xl.u.y.' q.^.+X+XOXOXOXOXOXOXOXz ",
"oXoXOXOXOXOX^.OXOXOXN.e.h.*X%Xk.p.p.u...w.N.^.R. XOXOXP.P.L.7.s ",
"K.P.P.P.E.Y.L.P.P.G.E h.;Xb.k.p.p.p.u.u.#.H U.r.e.E.K.K.I.I.A.s ",
"n 7.7.7.q.w.3.f l 2.D h.:Xb.j.p.p.p.p.p...G <.P <.Z.Z.F.G.Q.G.z ",
"J.J.J.J.V.{.^.n M.~ @.$X:Xb.j.p.p.p.p.p...H 1.f K.+XoX+X+X+X+XOX",
"c x v c b K.OX7.4.] *.b.*Xc.j.p.p.p.p.p.*.+.0.<.Y.].~.OX^.|./.OX",
"e r g l h b P.j ( [ j.z.z.j.j.p.p.p.p.p.u.;.X.I 0.f.T.P.R.d.`.L.",
"k l M.f.0.2.n.T o.u.*X=Xk.p.p.p.p.p.p.p.p.u.y.o.E 4.,.f s L t e ",
"oXOX^.[./.R.) @.y.p.$Xb.j.p.p.p.p.p.p.p.p.p.i. .Q ~.J.v c r e e ",
"oXOXOX^.^.C.] *.i.p.j.+.F u.p.p.p.F H u.p.p.i.%.E 0.U >.c c x a ",
"K.P.P.L.G.m.{ *.i.i.p.6 < @.p.p.u.2 4 t.p.p.p.p.y.X.[ T h x ,.p ",
"Z.Z.7.7.T o.;.u.p.p.p.5 - O.p.p.u.1 2 t.p.p.j.p._ ( ` Y p f ( :.",
"}.{.OXI.! -.&Xv.p.p.p.5 - O.p.p.u.< 2 t.p.p.u.p.s._ =.+.R 6.5.'.",
"r.[.^.+X! s.;X%Xj.u.p.V 5 -.p.j.u.M N t.p.j.j.p.j.a.j.&.X.|.+X+X",
"Q.L.P.L.W s.;X@Xt.t.u.u.t.u.p.u.t.O.O.@.u.u.p.p.j.j.j.&.X.5.K.W.",
"n n Z.Z.Q #.x.6 = , F u.j.j.p.@.1 = = - A u.j.j.j.j.j.&.] <.2.s ",
"oXOX+X+Xq 3 4 & . . 1 4 5 @.F 3 + .   . , K =Xc.j.;.&.:.( ~.{.) ",
"OXoXoXOX8 @ @ .     . X & F N + .       . 7 XXg.j.i. .! R.L.0.) ",
"K.P.P.P.8 $             # F M +           X * A ;.u.{ R G.W.F.p ",
"n 7.7.7.i 9 X           # F N +             . m | { ^ 5.G.Y.G.z ",
"K.J.J.J.K.i O         - N -.H 5 + .         . m X.) e.'.L.P.K.J.",
"x c v v v x > o     % 0 ~ _ _ R : > ;     o ; B ^ !.e.9.b c c x ",
"e u x v v b H.; . X 9 g 6.,.t t G.K.u $   ; 6.j D.oX8.6.c x y e "
};
