/* XPM */
static char *_54fec71fbe745b4f7ad2e77f730ea0500nsitgY4PlyP3Md[] = {
/* columns rows colors chars-per-pixel */
"32 32 205 2 ",
"   c None",
".  c black",
"X  c #000001",
"o  c #010101",
"O  c #020202",
"+  c gray1",
"@  c #020204",
"#  c #040404",
"$  c #1D1E00",
"%  c #0D0D10",
"&  c #241103",
"*  c #2A1404",
"=  c #261805",
"-  c #301605",
";  c #321905",
":  c #272700",
">  c #2C2106",
",  c #401200",
"<  c #5A1E00",
"1  c #4C3800",
"2  c #707000",
"3  c #777708",
"4  c #7C7C1A",
"5  c #414141",
"6  c gray38",
"7  c #666667",
"8  c #727272",
"9  c gray45",
"0  c #767676",
"q  c #7C7C7C",
"w  c #9C5503",
"e  c #AA5311",
"r  c #AE5310",
"t  c #AF5611",
"y  c #B15411",
"u  c #B45511",
"i  c #B65611",
"p  c #AC7418",
"a  c #C05B12",
"s  c #C15B12",
"d  c #FF5400",
"f  c #FE5500",
"g  c #FF5500",
"h  c #FF5501",
"j  c #FF5600",
"k  c #FF5601",
"l  c #FF5701",
"z  c #FF5702",
"x  c #F65A04",
"c  c #FF5802",
"v  c #FF5A03",
"b  c #FF5A04",
"n  c #FF5B04",
"m  c #FF5B05",
"M  c #FF5C05",
"N  c #FF5D05",
"B  c #FE5D06",
"V  c #FF5D06",
"C  c #FF5E06",
"Z  c #FF5F07",
"A  c #CD6113",
"S  c #CF6314",
"D  c #D06314",
"F  c #D66E16",
"G  c #FF6007",
"H  c #FF6008",
"J  c #FF6108",
"K  c #FF6109",
"L  c #FF6209",
"P  c #FF6309",
"I  c #FF640A",
"U  c #FF650B",
"Y  c #FF660C",
"T  c #FF670C",
"R  c #FF680D",
"E  c #FF690E",
"W  c #FF6A0E",
"Q  c #FF6B0F",
"!  c #E36B15",
"~  c #E76D16",
"^  c #E96E16",
"/  c #FF6D11",
"(  c #FF6E11",
")  c #FF6F12",
"_  c #F17217",
"`  c #F37217",
"'  c #FF7012",
"]  c #FF7013",
"[  c #FF7113",
"{  c #FF7212",
"}  c #FF7114",
"|  c #FF7214",
" . c #FF7314",
".. c #FF7315",
"X. c #FF7415",
"o. c #FF7516",
"O. c #FF7616",
"+. c #FF7617",
"@. c #FF7717",
"#. c #FF7817",
"$. c #FF7F17",
"%. c #FF7618",
"&. c #FF7718",
"*. c #FF7818",
"=. c #FF7918",
"-. c #FF7919",
";. c #FF7A18",
":. c #FF7B18",
">. c #FF7E19",
",. c #818300",
"<. c #8D8E00",
"1. c #B0AB03",
"2. c #D4931F",
"3. c #FF8715",
"4. c #FF801A",
"5. c #FF811A",
"6. c #FF821B",
"7. c #FF891C",
"8. c #FF891D",
"9. c #FF8A1D",
"0. c #FF8B1D",
"q. c #FF8E1D",
"w. c #FF8E1E",
"e. c #ED901E",
"r. c #FF9519",
"t. c #FF961A",
"y. c #FF931F",
"u. c #FF9D1E",
"i. c #F9AF0D",
"p. c #F4B902",
"a. c #FFB90D",
"s. c #E0B01B",
"d. c #D59C20",
"f. c #FF9820",
"g. c #FF9920",
"h. c #FF9C21",
"j. c #FF9F22",
"k. c #FFA723",
"l. c #FFAF26",
"z. c #FFB326",
"x. c #FFB424",
"c. c #FFB624",
"v. c #FFB426",
"b. c #FFB527",
"n. c #FFB627",
"m. c #FFB727",
"M. c #FFBB23",
"N. c #FFBC22",
"B. c #FFB925",
"V. c #FFB826",
"C. c #FFC30A",
"Z. c #F0DA0C",
"A. c #FFCF16",
"S. c #FFC21F",
"D. c #FFD416",
"F. c #FFD616",
"G. c #FFDC13",
"H. c #FFDA14",
"J. c #FFDD14",
"K. c #F7E305",
"L. c #FFE70C",
"P. c #FFE60D",
"I. c #FFF306",
"U. c #FFF207",
"Y. c #FFF705",
"T. c #F9F900",
"R. c #F8FB00",
"E. c #FFFA01",
"W. c #FFF903",
"Q. c #FFFA02",
"!. c yellow",
"~. c #FFFF01",
"^. c #FFFF06",
"/. c #FFF108",
"(. c #FEFE08",
"). c #FFFF0B",
"_. c #FFFD0C",
"`. c #FFFF0C",
"'. c #FFFF0E",
"]. c #F5F611",
"[. c #FFFF12",
"{. c #FFFF1D",
"}. c #FFFF49",
"|. c #FFFF51",
" X c #FFFF54",
".X c #FFFF64",
"XX c #FFFF6A",
"oX c #FFFF7D",
"OX c #B1B1B3",
"+X c #FFFF86",
"@X c #FFFF90",
"#X c #D2D2A9",
"$X c #FFFFA7",
"%X c #CECECF",
"&X c #E6E6D3",
"*X c #FFFFD7",
"=X c #FEFEE0",
"-X c #FFFFE2",
";X c #FFFFE6",
":X c #FFFFEA",
">X c #FFFFF5",
",X c #FEFEFE",
"<X c #FFFFFE",
"1X c #FEFEFF",
"2X c white",
/* pixels */
"              g         g g g                                   ",
"        g g g                 g g g     g       g               ",
"      g g g                     g g   g         g               ",
"    g g g                     g g     g         g               ",
"g g g g                       g M M   g         g g             ",
"                g g g         v | K g           g g g           ",
"                  g g g       M @.K d           g v g g         ",
"                      g g g K [ @.K d           g Q T g         ",
"                        g d K #.*.K g         g g / @.Q g       ",
"                        g g K @.@.K g       g g T | *.[ g       ",
"                        g M Q *.*.Q M g   g v U &.*.@.T v       ",
"        g g g g g g     g Q #.*.*.&./ M   b Q &.&.| K g g       ",
"      g g g g   g g g   g / *.*.*.*.&.[ b Q @.*.@.M g g         ",
"                  g g g g Q *.*.*.*.*.| b / *.| M v g g         ",
"                    g g g / #.*.*.*.*.@.[ @.*.*.[ / K g         ",
"      g g             g T | &.*.*.*.*.&.*.*.*.*.*.*.Q g g       ",
"      g g           M T | 8.7.*.&.*.*.*.#.#.*.*.>.#.[ G g g     ",
"        g         g M / &.k.k.7.7.>.&.` s ~ *._ s ^ *.| K g g   ",
"                  g g b | j.m.n.x.y.6.F ; r *.D * u *.*.@.M g   ",
"                g     b @.g.n.m.m.x.x.2.= e 6.A & u >.*.@.K g g ",
"                g g K | @.6.y.m.V.J.J.d.> p g.S * u *.*.&.| K g ",
"                g K / &.*.&.q.x.V.P.Y.Z.1.s.l.e.t ! *.*.*.*.Q g ",
"                g Q *.*.#.&.q.B.F.U.!.!.!.P.H.A.u.6.*.*.*.*.U g ",
"                g / *.*.@.@.t.F.W.!.!.`.}.{.!.U.N.7.*.*.*.*.T g ",
"                g T [ | @.3.a.W.!.!.[. X*X|.!.U.N.7.#.#.*.| T g ",
"                  v g M [ C.W.!.!.`.XX:X>X.X_.U.S.t.5.*.| G g   ",
"                      g x p.R.!._.+X;X<X<X=XoX`./.K.i.| M g     ",
"                        < 1 <.T.^.$X<X<X<X<X=X@X].,.w M g       ",
"                        o o : 2 3 #X%X0 8 8 OX&X4 $ ,           ",
"                        o o o o @ 7 6 o o o 5 q % o             ",
"                            o o o o o o o o o # o               ",
"                              o o o o o o o o o                 "
};
